<ttFont>
    <TTGlyph name="A" xMin="20" yMin="-131" xMax="739" yMax="1700">
      <contour>
        <pt x="541" y="1700" on="1"/>
        <pt x="690" y="1696" on="0"/>
        <pt x="696" y="324" on="1"/>
        <pt x="739" y="-119" on="1"/>
        <pt x="670" y="-131" on="1"/>
        <pt x="641" y="-131" on="1"/>
        <pt x="600" y="-90" on="1"/>
        <pt x="600" y="422" on="1"/>
        <pt x="586" y="629" on="1"/>
        <pt x="573" y="629" on="1"/>
        <pt x="242" y="588" on="0"/>
        <pt x="211" y="489" on="1"/>
        <pt x="158" y="-14" on="0"/>
        <pt x="131" y="-20" on="1"/>
        <pt x="76" y="-20" on="1"/>
        <pt x="20" y="35" on="1"/>
        <pt x="88" y="561" on="0"/>
        <pt x="242" y="1196" on="1"/>
        <pt x="348" y="1720" on="0"/>
      </contour>
      <contour>
        <pt x="256" y="725" on="1"/>
        <pt x="324" y="672" on="1"/>
        <pt x="600" y="733" on="0"/>
        <pt x="600" y="766" on="1"/>
        <pt x="600" y="1016" on="1"/>
        <pt x="614" y="1196" on="1"/>
        <pt x="580" y="1335" on="1"/>
        <pt x="541" y="1501" on="0"/>
        <pt x="498" y="1501" on="1"/>
        <pt x="410" y="1501" on="0"/>
      </contour>
    </TTGlyph>
    <TTGlyph name="AE" xMin="20" yMin="-131" xMax="1214" yMax="1749">
      <component glyphName="A" x="0" y="0" flags="0x1004"/>
      <component glyphName="E" x="555" y="8" flags="0x1004"/>
    </TTGlyph>
    <TTGlyph name="AEacute" xMin="20" yMin="-131" xMax="1214" yMax="2036">
      <component glyphName="A" x="0" y="0" flags="0x1004"/>
      <component glyphName="E" x="555" y="8" flags="0x1004"/>
      <component glyphName="acute" x="492" y="340" flags="0x1004"/>
    </TTGlyph>
    <TTGlyph name="Aacute" xMin="20" yMin="-131" xMax="739" yMax="1952">
      <component glyphName="A" x="0" y="0" flags="0x1204"/>
      <component glyphName="acute" x="127" y="256" flags="0x1004"/>
    </TTGlyph>
    <TTGlyph name="Abreve" xMin="20" yMin="-131" xMax="758" yMax="2061">
      <component glyphName="A" x="0" y="0" flags="0x1204"/>
      <component glyphName="breve" x="168" y="414" flags="0x1004"/>
    </TTGlyph>
    <TTGlyph name="Acircumflex" xMin="20" yMin="-131" xMax="778" yMax="2009">
      <component glyphName="A" x="0" y="0" flags="0x1204"/>
      <component glyphName="circumflex" x="104" y="268" flags="0x1004"/>
    </TTGlyph>
    <TTGlyph name="Adieresis" xMin="20" yMin="-131" xMax="739" yMax="1874">
      <component glyphName="A" x="0" y="0" flags="0x1204"/>
      <component glyphName="dieresis" x="-69" y="209" flags="0x1004"/>
    </TTGlyph>
    <TTGlyph name="Agrave" xMin="20" yMin="-131" xMax="758" yMax="1981">
      <component glyphName="A" x="0" y="0" flags="0x1204"/>
      <component glyphName="grave" x="123" y="494" flags="0x1004"/>
    </TTGlyph>
    <TTGlyph name="Amacron" xMin="20" yMin="-131" xMax="739" yMax="1880">
      <component glyphName="A" x="0" y="0" flags="0x1204"/>
      <component glyphName="macron" x="164" y="506" flags="0x1004"/>
    </TTGlyph>
    <TTGlyph name="Aogonek" xMin="20" yMin="-470" xMax="828" yMax="1700">
      <component glyphName="A" x="0" y="0" flags="0x1204"/>
      <component glyphName="ogonek" x="451" y="-110" flags="0x1004"/>
    </TTGlyph>
    <TTGlyph name="Aring" xMin="20" yMin="-131" xMax="739" yMax="2052">
      <component glyphName="A" x="0" y="0" flags="0x1204"/>
      <component glyphName="ring" x="-241" y="311" flags="0x1004"/>
    </TTGlyph>
    <TTGlyph name="Atilde" xMin="20" yMin="-131" xMax="1161" yMax="2003">
      <component glyphName="A" x="0" y="0" flags="0x1204"/>
      <component glyphName="tilde" x="84" y="254" flags="0x1004"/>
    </TTGlyph>
    <TTGlyph name="B" xMin="12" yMin="-104" xMax="743" yMax="1808">
      <contour>
        <pt x="209" y="1808" on="1"/>
        <pt x="279" y="1765" on="0"/>
        <pt x="279" y="1698" on="1"/>
        <pt x="291" y="1698" on="1"/>
        <pt x="418" y="1778" on="0"/>
        <pt x="526" y="1794" on="1"/>
        <pt x="645" y="1794" on="0"/>
        <pt x="678" y="1614" on="1"/>
        <pt x="678" y="1501" on="0"/>
        <pt x="467" y="1167" on="1"/>
        <pt x="467" y="1151" on="1"/>
        <pt x="590" y="1167" on="1"/>
        <pt x="692" y="1167" on="0"/>
        <pt x="743" y="946" on="1"/>
        <pt x="743" y="662" on="0"/>
        <pt x="455" y="309" on="1"/>
        <pt x="279" y="78" on="0"/>
        <pt x="96" y="-104" on="1"/>
        <pt x="55" y="-104" on="1"/>
        <pt x="12" y="-92" on="0"/>
        <pt x="12" y="-23" on="1"/>
        <pt x="96" y="207" on="0"/>
        <pt x="92" y="836" on="1"/>
        <pt x="51" y="874" on="1"/>
        <pt x="51" y="891" on="1"/>
        <pt x="92" y="1001" on="1"/>
        <pt x="98" y="1808" on="0"/>
        <pt x="168" y="1808" on="1"/>
      </contour>
      <contour>
        <pt x="209" y="1477" on="1"/>
        <pt x="190" y="1124" on="1"/>
        <pt x="190" y="1057" on="1"/>
        <pt x="229" y="1057" on="1"/>
        <pt x="561" y="1391" on="0"/>
        <pt x="567" y="1614" on="1"/>
        <pt x="543" y="1677" on="0"/>
        <pt x="512" y="1683" on="1"/>
        <pt x="373" y="1683" on="0"/>
      </contour>
      <contour>
        <pt x="190" y="807" on="1"/>
        <pt x="190" y="764" on="1"/>
        <pt x="178" y="184" on="1"/>
        <pt x="193" y="184" on="1"/>
        <pt x="369" y="184" on="0"/>
        <pt x="604" y="725" on="1"/>
        <pt x="633" y="836" on="1"/>
        <pt x="633" y="1057" on="0"/>
        <pt x="522" y="1057" on="1"/>
        <pt x="190" y="936" on="0"/>
      </contour>
    </TTGlyph>
    <TTGlyph name="C" xMin="37" yMin="-25" xMax="737" yMax="1741">
      <contour>
        <pt x="653" y="1741" on="1"/>
        <pt x="737" y="1712" on="0"/>
        <pt x="737" y="1686" on="1"/>
        <pt x="737" y="1657" on="1"/>
        <pt x="737" y="1630" on="0"/>
        <pt x="612" y="1630" on="1"/>
        <pt x="377" y="1507" on="0"/>
        <pt x="291" y="1229" on="1"/>
        <pt x="133" y="915" on="0"/>
        <pt x="133" y="528" on="1"/>
        <pt x="133" y="514" on="1"/>
        <pt x="160" y="100" on="0"/>
        <pt x="326" y="100" on="1"/>
        <pt x="369" y="86" on="1"/>
        <pt x="451" y="86" on="1"/>
        <pt x="530" y="121" on="0"/>
        <pt x="631" y="418" on="1"/>
        <pt x="672" y="418" on="1"/>
        <pt x="672" y="403" on="1"/>
        <pt x="600" y="-25" on="0"/>
        <pt x="424" y="-25" on="1"/>
        <pt x="190" y="-25" on="0"/>
        <pt x="49" y="322" on="1"/>
        <pt x="37" y="459" on="1"/>
        <pt x="37" y="1057" on="0"/>
        <pt x="362" y="1520" on="1"/>
        <pt x="543" y="1741" on="0"/>
      </contour>
    </TTGlyph>
    <TTGlyph name="Cacute" xMin="37" yMin="-25" xMax="737" yMax="1989">
      <component glyphName="C" x="0" y="0" flags="0x1204"/>
      <component glyphName="acute" x="229" y="293" flags="0x1004"/>
    </TTGlyph>
    <TTGlyph name="Ccaron" xMin="37" yMin="-25" xMax="797" yMax="2112">
      <component glyphName="C" x="0" y="0" flags="0x1204"/>
      <component glyphName="caron" x="-153" y="414" flags="0x1004"/>
    </TTGlyph>
    <TTGlyph name="Ccedilla" xMin="37" yMin="-719" xMax="737" yMax="1741">
      <component glyphName="C" x="0" y="0" flags="0x1204"/>
      <component glyphName="cedilla" x="-126" y="0" flags="0x1004"/>
    </TTGlyph>
    <TTGlyph name="Ccircumflex" xMin="37" yMin="-25" xMax="867" yMax="2136">
      <component glyphName="C" x="0" y="0" flags="0x1204"/>
      <component glyphName="circumflex" x="193" y="395" flags="0x1004"/>
    </TTGlyph>
    <TTGlyph name="Cdotaccent" xMin="37" yMin="-25" xMax="737" yMax="1976">
      <component glyphName="C" x="0" y="0" flags="0x1204"/>
      <component glyphName="dotaccent" x="418" y="356" flags="0x1004"/>
    </TTGlyph>
    <TTGlyph name="D" xMin="8" yMin="-74" xMax="727" yMax="1769">
      <contour>
        <pt x="258" y="1769" on="1"/>
        <pt x="358" y="1630" on="0"/>
        <pt x="451" y="1630" on="1"/>
        <pt x="727" y="1479" on="0"/>
        <pt x="727" y="1174" on="1"/>
        <pt x="766" y="711" on="0"/>
        <pt x="158" y="63" on="1"/>
        <pt x="137" y="-74" on="0"/>
        <pt x="76" y="-74" on="1"/>
        <pt x="20" y="-74" on="0"/>
        <pt x="20" y="-6" on="1"/>
        <pt x="8" y="-6" on="1"/>
        <pt x="90" y="340" on="1"/>
        <pt x="119" y="764" on="0"/>
        <pt x="147" y="1438" on="1"/>
        <pt x="147" y="1589" on="1"/>
        <pt x="147" y="1769" on="0"/>
      </contour>
      <contour>
        <pt x="174" y="244" on="1"/>
        <pt x="186" y="244" on="1"/>
        <pt x="426" y="387" on="0"/>
        <pt x="604" y="897" on="1"/>
        <pt x="633" y="1133" on="1"/>
        <pt x="633" y="1217" on="1"/>
        <pt x="580" y="1561" on="0"/>
        <pt x="328" y="1561" on="1"/>
        <pt x="229" y="1561" on="0"/>
        <pt x="229" y="1368" on="1"/>
      </contour>
    </TTGlyph>
    <TTGlyph name="Dcaron" xMin="8" yMin="-74" xMax="727" yMax="2116">
      <component glyphName="D" x="0" y="0" flags="0x1204"/>
      <component glyphName="caron" x="-298" y="418" flags="0x1004"/>
    </TTGlyph>
    <TTGlyph name="Dcroat" xMin="-51" yMin="-74" xMax="727" yMax="1769">
      <component glyphName="D" x="0" y="0" flags="0x1204"/>
      <component glyphName="macron" x="-153" y="-278" flags="0x1004"/>
    </TTGlyph>
    <TTGlyph name="E" xMin="43" yMin="-35" xMax="659" yMax="1741">
      <contour>
        <pt x="469" y="1741" on="1"/>
        <pt x="539" y="1722" on="0"/>
        <pt x="539" y="1698" on="1"/>
        <pt x="539" y="1657" on="1"/>
        <pt x="539" y="1614" on="0"/>
        <pt x="219" y="1554" on="1"/>
        <pt x="209" y="1071" on="1"/>
        <pt x="209" y="1001" on="1"/>
        <pt x="209" y="973" on="0"/>
        <pt x="248" y="973" on="1"/>
        <pt x="512" y="1001" on="1"/>
        <pt x="524" y="987" on="1"/>
        <pt x="524" y="973" on="1"/>
        <pt x="524" y="918" on="0"/>
        <pt x="209" y="862" on="1"/>
        <pt x="154" y="254" on="1"/>
        <pt x="154" y="227" on="1"/>
        <pt x="154" y="76" on="0"/>
        <pt x="264" y="76" on="1"/>
        <pt x="635" y="227" on="1"/>
        <pt x="659" y="143" on="1"/>
        <pt x="678" y="123" on="0"/>
        <pt x="221" y="-35" on="1"/>
        <pt x="86" y="-35" on="0"/>
        <pt x="43" y="242" on="1"/>
        <pt x="111" y="836" on="1"/>
        <pt x="70" y="905" on="1"/>
        <pt x="125" y="1010" on="0"/>
        <pt x="125" y="1071" on="1"/>
        <pt x="111" y="1421" on="1"/>
        <pt x="111" y="1559" on="0"/>
        <pt x="82" y="1559" on="1"/>
        <pt x="82" y="1669" on="0"/>
      </contour>
    </TTGlyph>
    <TTGlyph name="Eacute" xMin="38" yMin="-35" xMax="654" yMax="2018">
      <component glyphName="E" x="-5" y="0" flags="0x1004"/>
      <component glyphName="acute" x="-9" y="322" flags="0x1004"/>
    </TTGlyph>
    <TTGlyph name="Ebreve" xMin="43" yMin="-35" xMax="659" yMax="2055">
      <component glyphName="E" x="0" y="0" flags="0x1204"/>
      <component glyphName="breve" x="-42" y="408" flags="0x1004"/>
    </TTGlyph>
    <TTGlyph name="Ecaron" xMin="43" yMin="-35" xMax="659" yMax="2114">
      <component glyphName="E" x="0" y="0" flags="0x1204"/>
      <component glyphName="caron" x="-396" y="416" flags="0x1004"/>
    </TTGlyph>
    <TTGlyph name="Ecircumflex" xMin="38" yMin="-35" xMax="654" yMax="2144">
      <component glyphName="E" x="-5" y="0" flags="0x1004"/>
      <component glyphName="circumflex" x="-60" y="403" flags="0x1004"/>
    </TTGlyph>
    <TTGlyph name="Edieresis" xMin="38" yMin="-35" xMax="654" yMax="1964">
      <component glyphName="E" x="-5" y="0" flags="0x1004"/>
      <component glyphName="dieresis" x="-218" y="299" flags="0x1004"/>
    </TTGlyph>
    <TTGlyph name="Edotaccent" xMin="43" yMin="-35" xMax="659" yMax="1954">
      <component glyphName="E" x="0" y="0" flags="0x1204"/>
      <component glyphName="dotaccent" x="168" y="334" flags="0x1004"/>
    </TTGlyph>
    <TTGlyph name="Egrave" xMin="38" yMin="-35" xMax="654" yMax="2050">
      <component glyphName="E" x="-5" y="0" flags="0x1004"/>
      <component glyphName="grave" x="-58" y="563" flags="0x1004"/>
    </TTGlyph>
    <TTGlyph name="Emacron" xMin="43" yMin="-35" xMax="659" yMax="1878">
      <component glyphName="E" x="0" y="0" flags="0x1204"/>
      <component glyphName="macron" x="27" y="504" flags="0x1004"/>
    </TTGlyph>
    <TTGlyph name="Eogonek" xMin="43" yMin="-323" xMax="659" yMax="1741">
      <component glyphName="E" x="0" y="0" flags="0x1204"/>
      <component glyphName="ogonek" x="197" y="37" flags="0x1004"/>
    </TTGlyph>
    <TTGlyph name="Eth" xMin="-76" yMin="-74" xMax="766" yMax="1888">
      <contour>
        <pt x="297" y="1888" on="1"/>
        <pt x="395" y="1751" on="0"/>
        <pt x="489" y="1751" on="1"/>
        <pt x="766" y="1597" on="0"/>
        <pt x="766" y="1294" on="1"/>
        <pt x="766" y="711" on="0"/>
        <pt x="158" y="63" on="1"/>
        <pt x="137" y="-74" on="0"/>
        <pt x="76" y="-74" on="1"/>
        <pt x="20" y="-74" on="0"/>
        <pt x="20" y="-6" on="1"/>
        <pt x="8" y="-6" on="1"/>
        <pt x="90" y="340" on="1"/>
        <pt x="131" y="666" on="0"/>
        <pt x="156" y="1036" on="1"/>
        <pt x="-20" y="1077" on="1"/>
        <pt x="-76" y="1118" on="1"/>
        <pt x="-76" y="1188" on="1"/>
        <pt x="162" y="1120" on="1"/>
        <pt x="176" y="1331" on="0"/>
        <pt x="186" y="1556" on="1"/>
        <pt x="186" y="1708" on="1"/>
        <pt x="186" y="1888" on="0"/>
      </contour>
      <contour>
        <pt x="426" y="1044" on="1"/>
        <pt x="438" y="1044" on="1"/>
        <pt x="481" y="1004" on="1"/>
        <pt x="481" y="963" on="1"/>
        <pt x="231" y="1020" on="1"/>
        <pt x="174" y="244" on="1"/>
        <pt x="186" y="244" on="1"/>
        <pt x="426" y="387" on="0"/>
        <pt x="643" y="1018" on="1"/>
        <pt x="672" y="1253" on="1"/>
        <pt x="672" y="1335" on="1"/>
        <pt x="676" y="1649" on="0"/>
        <pt x="367" y="1681" on="1"/>
        <pt x="268" y="1681" on="0"/>
        <pt x="268" y="1487" on="1"/>
        <pt x="240" y="1098" on="1"/>
      </contour>
    </TTGlyph>
    <TTGlyph name="Euro" xMin="57" yMin="-25" xMax="1049" yMax="1851">
      <contour>
        <pt x="967" y="1851" on="1"/>
        <pt x="1049" y="1825" on="0"/>
        <pt x="1049" y="1796" on="1"/>
        <pt x="1049" y="1769" on="1"/>
        <pt x="1049" y="1741" on="0"/>
        <pt x="924" y="1741" on="1"/>
        <pt x="588" y="1622" on="0"/>
        <pt x="502" y="1343" on="1"/>
        <pt x="336" y="915" on="0"/>
        <pt x="336" y="528" on="1"/>
        <pt x="336" y="514" on="1"/>
        <pt x="360" y="100" on="0"/>
        <pt x="528" y="100" on="1"/>
        <pt x="569" y="86" on="1"/>
        <pt x="872" y="123" on="1"/>
        <pt x="950" y="158" on="0"/>
        <pt x="1022" y="12" on="0"/>
        <pt x="625" y="-25" on="1"/>
        <pt x="391" y="-25" on="0"/>
        <pt x="252" y="322" on="1"/>
        <pt x="238" y="459" on="1"/>
        <pt x="238" y="1057" on="0"/>
        <pt x="584" y="1704" on="1"/>
        <pt x="856" y="1851" on="0"/>
      </contour>
      <contour>
        <pt x="651" y="1096" on="1"/>
        <pt x="666" y="1096" on="1"/>
        <pt x="707" y="1055" on="1"/>
        <pt x="707" y="1014" on="1"/>
        <pt x="336" y="971" on="0"/>
        <pt x="113" y="915" on="1"/>
        <pt x="57" y="958" on="1"/>
        <pt x="57" y="1026" on="1"/>
      </contour>
      <contour>
        <pt x="674" y="868" on="1"/>
        <pt x="688" y="868" on="1"/>
        <pt x="729" y="825" on="1"/>
        <pt x="729" y="784" on="1"/>
        <pt x="358" y="743" on="0"/>
        <pt x="135" y="688" on="1"/>
        <pt x="80" y="729" on="1"/>
        <pt x="80" y="799" on="1"/>
      </contour>
    </TTGlyph>
    <TTGlyph name="F" xMin="8" yMin="-84" xMax="727" yMax="1851">
      <contour>
        <pt x="686" y="1851" on="1"/>
        <pt x="727" y="1796" on="1"/>
        <pt x="727" y="1784" on="1"/>
        <pt x="727" y="1747" on="0"/>
        <pt x="465" y="1714" on="1"/>
        <pt x="270" y="1653" on="0"/>
        <pt x="270" y="1464" on="1"/>
        <pt x="256" y="1161" on="1"/>
        <pt x="270" y="1120" on="1"/>
        <pt x="547" y="1188" on="1"/>
        <pt x="575" y="1161" on="1"/>
        <pt x="575" y="1133" on="1"/>
        <pt x="575" y="1102" on="0"/>
        <pt x="367" y="1065" on="1"/>
        <pt x="367" y="1038" on="0"/>
        <pt x="285" y="1022" on="1"/>
        <pt x="248" y="1022" on="0"/>
        <pt x="174" y="209" on="1"/>
        <pt x="160" y="111" on="1"/>
        <pt x="160" y="-29" on="1"/>
        <pt x="78" y="-84" on="1"/>
        <pt x="8" y="-29" on="1"/>
        <pt x="160" y="494" on="0"/>
        <pt x="160" y="940" on="1"/>
        <pt x="63" y="971" on="0"/>
        <pt x="63" y="1010" on="1"/>
        <pt x="63" y="1042" on="0"/>
        <pt x="160" y="1094" on="1"/>
        <pt x="174" y="1149" on="1"/>
        <pt x="174" y="1409" on="1"/>
        <pt x="188" y="1630" on="1"/>
        <pt x="145" y="1702" on="1"/>
        <pt x="145" y="1741" on="0"/>
        <pt x="244" y="1796" on="1"/>
        <pt x="256" y="1784" on="1"/>
        <pt x="395" y="1784" on="1"/>
        <pt x="610" y="1851" on="0"/>
      </contour>
    </TTGlyph>
    <TTGlyph name="G" xMin="35" yMin="-66" xMax="745" yMax="1737">
      <contour>
        <pt x="676" y="1737" on="1"/>
        <pt x="745" y="1720" on="0"/>
        <pt x="745" y="1696" on="1"/>
        <pt x="745" y="1653" on="1"/>
        <pt x="324" y="1653" on="0"/>
        <pt x="242" y="1262" on="1"/>
        <pt x="131" y="909" on="0"/>
        <pt x="131" y="721" on="1"/>
        <pt x="131" y="444" on="1"/>
        <pt x="186" y="45" on="0"/>
        <pt x="367" y="45" on="1"/>
        <pt x="532" y="322" on="0"/>
        <pt x="532" y="692" on="1"/>
        <pt x="532" y="764" on="1"/>
        <pt x="532" y="924" on="0"/>
        <pt x="367" y="985" on="1"/>
        <pt x="352" y="1024" on="1"/>
        <pt x="352" y="1122" on="0"/>
        <pt x="629" y="1135" on="1"/>
        <pt x="666" y="1135" on="0"/>
        <pt x="698" y="1067" on="1"/>
        <pt x="600" y="956" on="1"/>
        <pt x="629" y="776" on="1"/>
        <pt x="561" y="-66" on="0"/>
        <pt x="352" y="-66" on="1"/>
        <pt x="35" y="80" on="0"/>
        <pt x="35" y="471" on="1"/>
        <pt x="35" y="582" on="1"/>
        <pt x="35" y="1171" on="0"/>
        <pt x="317" y="1585" on="1"/>
        <pt x="485" y="1737" on="0"/>
      </contour>
    </TTGlyph>
    <TTGlyph name="Gbreve" xMin="35" yMin="-66" xMax="745" yMax="1985">
      <component glyphName="G" x="0" y="0" flags="0x1204"/>
      <component glyphName="breve" x="55" y="338" flags="0x1004"/>
    </TTGlyph>
    <TTGlyph name="Gcircumflex" xMin="35" yMin="-66" xMax="883" yMax="2097">
      <component glyphName="G" x="0" y="0" flags="0x1204"/>
      <component glyphName="circumflex" x="209" y="356" flags="0x1004"/>
    </TTGlyph>
    <TTGlyph name="Gcommaaccent" xMin="35" yMin="-498" xMax="745" yMax="1737">
      <component glyphName="G" x="0" y="0" flags="0x1204"/>
      <component glyphName="commaaccent" x="162" y="0" flags="0x1004"/>
    </TTGlyph>
    <TTGlyph name="Gdotaccent" xMin="35" yMin="-66" xMax="745" yMax="1991">
      <component glyphName="G" x="0" y="0" flags="0x1204"/>
      <component glyphName="dotaccent" x="322" y="371" flags="0x1004"/>
    </TTGlyph>
    <TTGlyph name="H" xMin="-10" yMin="-98" xMax="752" yMax="1698">
      <contour>
        <pt x="254" y="1698" on="1"/>
        <pt x="266" y="1698" on="1"/>
        <pt x="322" y="1642" on="1"/>
        <pt x="322" y="1614" on="1"/>
        <pt x="248" y="1614" on="0"/>
        <pt x="182" y="829" on="1"/>
        <pt x="225" y="815" on="1"/>
        <pt x="557" y="840" on="0"/>
        <pt x="557" y="870" on="1"/>
        <pt x="588" y="1614" on="0"/>
        <pt x="641" y="1614" on="1"/>
        <pt x="682" y="1630" on="1"/>
        <pt x="752" y="1612" on="0"/>
        <pt x="752" y="1587" on="1"/>
        <pt x="670" y="1444" on="0"/>
        <pt x="639" y="705" on="1"/>
        <pt x="621" y="-55" on="0"/>
        <pt x="543" y="-55" on="1"/>
        <pt x="528" y="-55" on="1"/>
        <pt x="487" y="-14" on="1"/>
        <pt x="528" y="387" on="1"/>
        <pt x="514" y="387" on="1"/>
        <pt x="528" y="399" on="1"/>
        <pt x="528" y="539" on="1"/>
        <pt x="543" y="745" on="1"/>
        <pt x="528" y="760" on="1"/>
        <pt x="156" y="733" on="0"/>
        <pt x="156" y="649" on="1"/>
        <pt x="100" y="27" on="1"/>
        <pt x="100" y="-55" on="1"/>
        <pt x="45" y="-98" on="1"/>
        <pt x="4" y="-98" on="0"/>
        <pt x="4" y="-43" on="1"/>
        <pt x="-10" y="-43" on="1"/>
        <pt x="72" y="690" on="1"/>
        <pt x="45" y="774" on="1"/>
        <pt x="111" y="774" on="0"/>
        <pt x="143" y="1421" on="1"/>
        <pt x="205" y="1698" on="0"/>
      </contour>
    </TTGlyph>
    <TTGlyph name="Hcircumflex" xMin="-10" yMin="-98" xMax="752" yMax="2075">
      <component glyphName="H" x="0" y="0" flags="0x1204"/>
      <component glyphName="circumflex" x="-26" y="334" flags="0x1004"/>
    </TTGlyph>
    <TTGlyph name="I" xMin="47" yMin="-16" xMax="313" yMax="1614">
      <contour>
        <pt x="262" y="1614" on="1"/>
        <pt x="340" y="1659" on="0"/>
        <pt x="285" y="1253" on="0"/>
        <pt x="172" y="561" on="0"/>
        <pt x="172" y="150" on="1"/>
        <pt x="199" y="66" on="1"/>
        <pt x="199" y="39" on="1"/>
        <pt x="131" y="-16" on="1"/>
        <pt x="72" y="-16" on="0"/>
        <pt x="47" y="82" on="1"/>
        <pt x="76" y="115" on="0"/>
        <pt x="193" y="1599" on="0"/>
        <pt x="233" y="1599" on="1"/>
        <pt x="262" y="1599" on="1"/>
      </contour>
    </TTGlyph>
    <TTGlyph name="Iacute" xMin="47" yMin="-16" xMax="409" yMax="1880">
      <component glyphName="I" x="0" y="0" flags="0x1204"/>
      <component glyphName="acute" x="-62" y="184" flags="0x1004"/>
    </TTGlyph>
    <TTGlyph name="Ibreve" xMin="47" yMin="-16" xMax="592" yMax="1950">
      <component glyphName="I" x="0" y="0" flags="0x1204"/>
      <component glyphName="breve" x="2" y="303" flags="0x1004"/>
    </TTGlyph>
    <TTGlyph name="Icircumflex" xMin="19" yMin="-16" xMax="558" yMax="1940">
      <component glyphName="I" x="0" y="0" flags="0x1204"/>
      <component glyphName="circumflex" x="-116" y="199" flags="0x1004"/>
    </TTGlyph>
    <TTGlyph name="Idieresis" xMin="26" yMin="-16" xMax="497" yMax="1870">
      <component glyphName="I" x="0" y="0" flags="0x1204"/>
      <component glyphName="dieresis" x="-310" y="205" flags="0x1004"/>
    </TTGlyph>
    <TTGlyph name="Idotaccent" xMin="47" yMin="-16" xMax="365" yMax="1886">
      <component glyphName="I" x="0" y="0" flags="0x1204"/>
      <component glyphName="dotaccent" x="152" y="266" flags="0x1004"/>
    </TTGlyph>
    <TTGlyph name="Igrave" xMin="24" yMin="-16" xMax="548" yMax="1903">
      <component glyphName="I" x="0" y="0" flags="0x1204"/>
      <component glyphName="grave" x="-87" y="416" flags="0x1004"/>
    </TTGlyph>
    <TTGlyph name="Imacron" xMin="47" yMin="-16" xMax="519" yMax="1806">
      <component glyphName="I" x="0" y="0" flags="0x1204"/>
      <component glyphName="macron" x="-44" y="432" flags="0x1004"/>
    </TTGlyph>
    <TTGlyph name="Iogonek" xMin="-30" yMin="-367" xMax="313" yMax="1614">
      <component glyphName="I" x="0" y="0" flags="0x1204"/>
      <component glyphName="ogonek" x="-81" y="-7" flags="0x1004"/>
    </TTGlyph>
    <TTGlyph name="Itilde" xMin="47" yMin="-16" xMax="764" yMax="1888">
      <component glyphName="I" x="0" y="0" flags="0x1204"/>
      <component glyphName="tilde" x="-26" y="310" scalex="0.732971191406" scaley="0.901611328125" flags="0x1004"/>
    </TTGlyph>
    <TTGlyph name="J" xMin="29" yMin="0" xMax="545" yMax="1774">
      <contour>
        <pt x="518" y="1774" on="1"/>
        <pt x="545" y="1774" on="1"/>
        <pt x="530" y="1622" on="1"/>
        <pt x="526" y="897" on="1"/>
        <pt x="494" y="27" on="0"/>
        <pt x="291" y="27" on="1"/>
        <pt x="291" y="0" on="0"/>
        <pt x="168" y="0" on="1"/>
        <pt x="29" y="25" on="0"/>
        <pt x="29" y="193" on="1"/>
        <pt x="43" y="248" on="1"/>
        <pt x="84" y="248" on="1"/>
        <pt x="117" y="96" on="0"/>
        <pt x="168" y="96" on="1"/>
        <pt x="250" y="96" on="1"/>
        <pt x="414" y="96" on="0"/>
        <pt x="444" y="940" on="1"/>
        <pt x="444" y="952" on="1"/>
        <pt x="449" y="1622" on="1"/>
        <pt x="475" y="1774" on="0"/>
      </contour>
    </TTGlyph>
    <TTGlyph name="Jcircumflex" xMin="29" yMin="0" xMax="776" yMax="2048">
      <component glyphName="J" x="0" y="0" flags="0x1204"/>
      <component glyphName="circumflex" x="102" y="307" flags="0x1004"/>
    </TTGlyph>
    <TTGlyph name="K" xMin="31" yMin="-139" xMax="750" yMax="1686">
      <contour>
        <pt x="184" y="1686" on="1"/>
        <pt x="229" y="1671" on="0"/>
        <pt x="240" y="1630" on="1"/>
        <pt x="211" y="1423" on="1"/>
        <pt x="211" y="705" on="1"/>
        <pt x="252" y="705" on="1"/>
        <pt x="584" y="1286" on="0"/>
        <pt x="584" y="1505" on="1"/>
        <pt x="643" y="1561" on="0"/>
        <pt x="694" y="1561" on="1"/>
        <pt x="750" y="1491" on="1"/>
        <pt x="653" y="1358" on="0"/>
        <pt x="307" y="606" on="1"/>
        <pt x="307" y="565" on="1"/>
        <pt x="426" y="53" on="0"/>
        <pt x="627" y="53" on="1"/>
        <pt x="627" y="-2" on="1"/>
        <pt x="557" y="-14" on="1"/>
        <pt x="391" y="-14" on="0"/>
        <pt x="225" y="469" on="1"/>
        <pt x="211" y="469" on="1"/>
        <pt x="141" y="-125" on="1"/>
        <pt x="129" y="-139" on="1"/>
        <pt x="74" y="-139" on="1"/>
        <pt x="39" y="-139" on="0"/>
        <pt x="31" y="-84" on="1"/>
        <pt x="80" y="-84" on="0"/>
        <pt x="129" y="883" on="1"/>
        <pt x="115" y="1645" on="1"/>
      </contour>
    </TTGlyph>
    <TTGlyph name="Kcommaaccent" xMin="31" yMin="-498" xMax="750" yMax="1686">
      <component glyphName="K" x="0" y="0" flags="0x1204"/>
      <component glyphName="commaaccent" x="119" y="0" flags="0x1004"/>
    </TTGlyph>
    <TTGlyph name="L" xMin="70" yMin="-20" xMax="651" yMax="1731">
      <contour>
        <pt x="244" y="1731" on="1"/>
        <pt x="299" y="1688" on="1"/>
        <pt x="256" y="1495" on="1"/>
        <pt x="264" y="1085" on="1"/>
        <pt x="264" y="879" on="1"/>
        <pt x="264" y="553" on="0"/>
        <pt x="209" y="145" on="1"/>
        <pt x="209" y="133" on="1"/>
        <pt x="236" y="104" on="1"/>
        <pt x="485" y="104" on="1"/>
        <pt x="623" y="145" on="1"/>
        <pt x="651" y="104" on="1"/>
        <pt x="651" y="-20" on="0"/>
        <pt x="137" y="-20" on="1"/>
        <pt x="82" y="-20" on="0"/>
        <pt x="82" y="35" on="1"/>
        <pt x="70" y="35" on="1"/>
        <pt x="180" y="322" on="0"/>
        <pt x="180" y="879" on="1"/>
        <pt x="174" y="1675" on="1"/>
        <pt x="188" y="1731" on="0"/>
      </contour>
    </TTGlyph>
    <TTGlyph name="Lacute" xMin="70" yMin="-20" xMax="717" yMax="1731">
      <component glyphName="L" x="0" y="0" flags="0x1204"/>
      <component glyphName="acute" x="246" y="-7" flags="0x1004"/>
    </TTGlyph>
    <TTGlyph name="Lcaron" xMin="70" yMin="-20" xMax="651" yMax="1921">
      <component glyphName="L" x="0" y="0" flags="0x1204"/>
      <component glyphName="quoteright" x="358" y="289" flags="0x1004"/>
    </TTGlyph>
    <TTGlyph name="Lcommaaccent" xMin="70" yMin="-498" xMax="651" yMax="1731">
      <component glyphName="L" x="0" y="0" flags="0x1204"/>
      <component glyphName="commaaccent" x="125" y="0" flags="0x1004"/>
    </TTGlyph>
    <TTGlyph name="Ldot" xMin="70" yMin="-20" xMax="651" yMax="1731">
      <component glyphName="L" x="0" y="0" flags="0x1204"/>
      <component glyphName="periodcentered" x="303" y="0" flags="0x1004"/>
    </TTGlyph>
    <TTGlyph name="Lslash" xMin="-96" yMin="-20" xMax="651" yMax="1731">
      <component glyphName="L" x="0" y="0" flags="0x1204"/>
      <component glyphName="hyphen" x="-196" y="-52" flags="0x1004"/>
    </TTGlyph>
    <TTGlyph name="M" xMin="47" yMin="-66" xMax="932" yMax="1733">
      <contour>
        <pt x="752" y="1733" on="1"/>
        <pt x="836" y="1700" on="0"/>
        <pt x="836" y="1634" on="1"/>
        <pt x="932" y="197" on="1"/>
        <pt x="932" y="100" on="1"/>
        <pt x="932" y="29" on="0"/>
        <pt x="891" y="18" on="1"/>
        <pt x="862" y="18" on="1"/>
        <pt x="821" y="45" on="1"/>
        <pt x="836" y="252" on="1"/>
        <pt x="836" y="295" on="1"/>
        <pt x="836" y="893" on="0"/>
        <pt x="752" y="1358" on="1"/>
        <pt x="739" y="1358" on="1"/>
        <pt x="655" y="1098" on="0"/>
        <pt x="559" y="446" on="1"/>
        <pt x="475" y="406" on="1"/>
        <pt x="399" y="406" on="0"/>
        <pt x="379" y="764" on="1"/>
        <pt x="227" y="1225" on="0"/>
        <pt x="186" y="1262" on="1"/>
        <pt x="172" y="1262" on="1"/>
        <pt x="186" y="1055" on="1"/>
        <pt x="186" y="805" on="1"/>
        <pt x="186" y="-66" on="0"/>
        <pt x="102" y="-66" on="1"/>
        <pt x="61" y="-66" on="1"/>
        <pt x="47" y="4" on="1"/>
        <pt x="102" y="571" on="1"/>
        <pt x="88" y="571" on="1"/>
        <pt x="102" y="584" on="1"/>
        <pt x="102" y="764" on="1"/>
        <pt x="102" y="1423" on="0"/>
        <pt x="61" y="1511" on="1"/>
        <pt x="88" y="1575" on="0"/>
        <pt x="117" y="1579" on="1"/>
        <pt x="158" y="1579" on="1"/>
        <pt x="227" y="1575" on="0"/>
        <pt x="324" y="1165" on="1"/>
        <pt x="393" y="1034" on="0"/>
        <pt x="475" y="694" on="1"/>
        <pt x="518" y="694" on="1"/>
        <pt x="696" y="1538" on="1"/>
        <pt x="696" y="1579" on="1"/>
        <pt x="684" y="1663" on="1"/>
        <pt x="684" y="1718" on="0"/>
        <pt x="752" y="1718" on="1"/>
      </contour>
    </TTGlyph>
    <TTGlyph name="N" xMin="53" yMin="-43" xMax="883" yMax="1759">
      <contour>
        <pt x="752" y="1759" on="1"/>
        <pt x="819" y="1759" on="0"/>
        <pt x="819" y="1622" on="1"/>
        <pt x="793" y="1538" on="1"/>
        <pt x="801" y="1313" on="1"/>
        <pt x="870" y="248" on="1"/>
        <pt x="856" y="193" on="1"/>
        <pt x="883" y="27" on="1"/>
        <pt x="856" y="-37" on="0"/>
        <pt x="827" y="-43" on="1"/>
        <pt x="786" y="-43" on="1"/>
        <pt x="735" y="-43" on="0"/>
        <pt x="621" y="373" on="1"/>
        <pt x="283" y="1311" on="0"/>
        <pt x="219" y="1339" on="1"/>
        <pt x="182" y="1339" on="0"/>
        <pt x="164" y="870" on="1"/>
        <pt x="178" y="676" on="1"/>
        <pt x="164" y="551" on="1"/>
        <pt x="193" y="123" on="1"/>
        <pt x="152" y="68" on="1"/>
        <pt x="137" y="68" on="1"/>
        <pt x="63" y="68" on="0"/>
        <pt x="53" y="109" on="1"/>
        <pt x="82" y="510" on="1"/>
        <pt x="68" y="524" on="1"/>
        <pt x="82" y="594" on="1"/>
        <pt x="82" y="1174" on="1"/>
        <pt x="82" y="1339" on="0"/>
        <pt x="137" y="1423" on="1"/>
        <pt x="137" y="1450" on="1"/>
        <pt x="82" y="1520" on="1"/>
        <pt x="82" y="1561" on="1"/>
        <pt x="109" y="1616" on="0"/>
        <pt x="164" y="1616" on="1"/>
        <pt x="225" y="1616" on="0"/>
        <pt x="399" y="1174" on="1"/>
        <pt x="483" y="1012" on="0"/>
        <pt x="649" y="469" on="1"/>
        <pt x="760" y="248" on="1"/>
        <pt x="772" y="248" on="1"/>
        <pt x="772" y="399" on="1"/>
        <pt x="696" y="1442" on="1"/>
        <pt x="709" y="1634" on="1"/>
        <pt x="696" y="1704" on="1"/>
        <pt x="707" y="1745" on="0"/>
      </contour>
    </TTGlyph>
    <TTGlyph name="Nacute" xMin="53" yMin="-43" xMax="883" yMax="1940">
      <component glyphName="N" x="0" y="0" flags="0x1204"/>
      <component glyphName="acute" x="162" y="244" flags="0x1004"/>
    </TTGlyph>
    <TTGlyph name="Ncaron" xMin="53" yMin="-43" xMax="883" yMax="1925">
      <component glyphName="N" x="0" y="0" flags="0x1204"/>
      <component glyphName="caron" x="-286" y="227" flags="0x1004"/>
    </TTGlyph>
    <TTGlyph name="Ncommaaccent" xMin="53" yMin="-498" xMax="883" yMax="1759">
      <component glyphName="N" x="0" y="0" flags="0x1204"/>
      <component glyphName="commaaccent" x="246" y="0" flags="0x1004"/>
    </TTGlyph>
    <TTGlyph name="Ntilde" xMin="-155" yMin="-43" xMax="883" yMax="2075">
      <component glyphName="N" x="0" y="0" flags="0x1204"/>
      <component glyphName="tilde" x="-286" y="326" flags="0x1004"/>
    </TTGlyph>
    <TTGlyph name="O" xMin="43" yMin="0" xMax="762" yMax="1548">
      <contour>
        <pt x="375" y="1548" on="1"/>
        <pt x="389" y="1548" on="1"/>
        <pt x="465" y="1548" on="0"/>
        <pt x="500" y="1423" on="1"/>
        <pt x="762" y="1219" on="0"/>
        <pt x="762" y="705" on="1"/>
        <pt x="762" y="186" on="0"/>
        <pt x="485" y="12" on="1"/>
        <pt x="346" y="0" on="1"/>
        <pt x="119" y="0" on="0"/>
        <pt x="43" y="455" on="1"/>
        <pt x="43" y="621" on="1"/>
        <pt x="139" y="1395" on="0"/>
        <pt x="250" y="1395" on="1"/>
        <pt x="250" y="1438" on="0"/>
      </contour>
      <contour>
        <pt x="113" y="594" on="1"/>
        <pt x="125" y="580" on="1"/>
        <pt x="125" y="565" on="1"/>
        <pt x="113" y="524" on="1"/>
        <pt x="154" y="82" on="0"/>
        <pt x="360" y="82" on="1"/>
        <pt x="678" y="82" on="0"/>
        <pt x="678" y="731" on="1"/>
        <pt x="678" y="786" on="1"/>
        <pt x="606" y="1382" on="0"/>
        <pt x="389" y="1382" on="1"/>
        <pt x="207" y="1382" on="0"/>
      </contour>
    </TTGlyph>
    <TTGlyph name="OE" xMin="43" yMin="-112" xMax="1271" yMax="1664">
      <component glyphName="O" x="0" y="0" flags="0x1004"/>
      <component glyphName="E" x="612" y="-77" flags="0x1004"/>
    </TTGlyph>
    <TTGlyph name="Oacute" xMin="43" yMin="0" xMax="762" yMax="1843">
      <component glyphName="O" x="0" y="0" flags="0x1204"/>
      <component glyphName="acute" x="29" y="147" flags="0x1004"/>
    </TTGlyph>
    <TTGlyph name="Obreve" xMin="43" yMin="0" xMax="762" yMax="1936">
      <component glyphName="O" x="0" y="0" flags="0x1204"/>
      <component glyphName="breve" x="53" y="289" flags="0x1004"/>
    </TTGlyph>
    <TTGlyph name="Ocircumflex" xMin="43" yMin="0" xMax="762" yMax="1839">
      <component glyphName="O" x="0" y="0" flags="0x1204"/>
      <component glyphName="circumflex" x="16" y="98" flags="0x1004"/>
    </TTGlyph>
    <TTGlyph name="Odieresis" xMin="43" yMin="0" xMax="762" yMax="1866">
      <component glyphName="O" x="0" y="0" flags="0x1204"/>
      <component glyphName="dieresis" x="-175" y="201" flags="0x1004"/>
    </TTGlyph>
    <TTGlyph name="Ograve" xMin="43" yMin="0" xMax="762" yMax="1809">
      <component glyphName="O" x="0" y="0" flags="0x1204"/>
      <component glyphName="grave" x="33" y="322" flags="0x1004"/>
    </TTGlyph>
    <TTGlyph name="Ohungarumlaut" xMin="43" yMin="0" xMax="762" yMax="2060">
      <component glyphName="O" x="0" y="0" flags="0x1204"/>
      <component glyphName="hungarumlaut" x="55" y="393" flags="0x1004"/>
    </TTGlyph>
    <TTGlyph name="Omacron" xMin="43" yMin="0" xMax="762" yMax="1818">
      <component glyphName="O" x="0" y="0" flags="0x1204"/>
      <component glyphName="macron" x="33" y="444" flags="0x1004"/>
    </TTGlyph>
    <TTGlyph name="Oslash" xMin="43" yMin="0" xMax="762" yMax="1548">
      <component glyphName="O" x="0" y="0" flags="0x1204"/>
      <component glyphName="slash" x="45" y="0" flags="0x1004"/>
    </TTGlyph>
    <TTGlyph name="Oslashacute" xMin="43" yMin="0" xMax="762" yMax="2089">
      <component glyphName="O" x="0" y="0" flags="0x1204"/>
      <component glyphName="slash" x="47" y="0" flags="0x1004"/>
      <component glyphName="acute" x="31" y="393" flags="0x1004"/>
    </TTGlyph>
    <TTGlyph name="Otilde" xMin="1" yMin="0" xMax="947" yMax="1931">
      <component glyphName="O" x="0" y="0" flags="0x1204"/>
      <component glyphName="tilde" x="-130" y="182" flags="0x1004"/>
    </TTGlyph>
    <TTGlyph name="P" xMin="59" yMin="-12" xMax="709" yMax="1702">
      <contour>
        <pt x="182" y="1702" on="1"/>
        <pt x="238" y="1661" on="1"/>
        <pt x="418" y="1673" on="1"/>
        <pt x="709" y="1645" on="0"/>
        <pt x="709" y="1425" on="1"/>
        <pt x="709" y="1167" on="0"/>
        <pt x="211" y="762" on="1"/>
        <pt x="182" y="690" on="0"/>
        <pt x="182" y="512" on="1"/>
        <pt x="182" y="195" on="1"/>
        <pt x="197" y="113" on="1"/>
        <pt x="178" y="27" on="0"/>
        <pt x="127" y="-12" on="1"/>
        <pt x="86" y="29" on="1"/>
        <pt x="72" y="29" on="1"/>
        <pt x="115" y="1204" on="1"/>
        <pt x="115" y="1384" on="1"/>
        <pt x="115" y="1446" on="0"/>
        <pt x="59" y="1495" on="1"/>
        <pt x="100" y="1567" on="0"/>
        <pt x="100" y="1647" on="1"/>
      </contour>
      <contour>
        <pt x="197" y="1384" on="1"/>
        <pt x="197" y="887" on="1"/>
        <pt x="238" y="887" on="1"/>
        <pt x="569" y="1151" on="0"/>
        <pt x="612" y="1384" on="1"/>
        <pt x="612" y="1591" on="0"/>
        <pt x="403" y="1591" on="1"/>
        <pt x="197" y="1591" on="0"/>
      </contour>
    </TTGlyph>
    <TTGlyph name="Q" xMin="39" yMin="0" xMax="883" yMax="1714">
      <contour>
        <pt x="496" y="1714" on="1"/>
        <pt x="524" y="1714" on="1"/>
        <pt x="563" y="1671" on="1"/>
        <pt x="563" y="1649" on="0"/>
        <pt x="481" y="1616" on="1"/>
        <pt x="481" y="1604" on="1"/>
        <pt x="784" y="1339" on="0"/>
        <pt x="784" y="926" on="1"/>
        <pt x="784" y="897" on="1"/>
        <pt x="784" y="659" on="0"/>
        <pt x="717" y="387" on="1"/>
        <pt x="770" y="250" on="0"/>
        <pt x="883" y="166" on="1"/>
        <pt x="827" y="96" on="1"/>
        <pt x="791" y="96" on="0"/>
        <pt x="674" y="248" on="1"/>
        <pt x="514" y="31" on="0"/>
        <pt x="453" y="27" on="1"/>
        <pt x="330" y="0" on="1"/>
        <pt x="121" y="0" on="0"/>
        <pt x="53" y="373" on="1"/>
        <pt x="39" y="565" on="1"/>
        <pt x="39" y="594" on="1"/>
        <pt x="39" y="1245" on="0"/>
        <pt x="358" y="1671" on="1"/>
      </contour>
      <contour>
        <pt x="109" y="442" on="1"/>
        <pt x="156" y="82" on="0"/>
        <pt x="371" y="82" on="1"/>
        <pt x="606" y="207" on="0"/>
        <pt x="606" y="373" on="1"/>
        <pt x="606" y="440" on="0"/>
        <pt x="342" y="842" on="1"/>
        <pt x="342" y="885" on="1"/>
        <pt x="371" y="911" on="1"/>
        <pt x="397" y="911" on="1"/>
        <pt x="428" y="911" on="0"/>
        <pt x="647" y="524" on="1"/>
        <pt x="662" y="524" on="1"/>
        <pt x="702" y="598" on="0"/>
        <pt x="717" y="952" on="1"/>
        <pt x="618" y="1493" on="0"/>
        <pt x="496" y="1493" on="1"/>
        <pt x="481" y="1493" on="1"/>
        <pt x="449" y="1493" on="0"/>
        <pt x="440" y="1438" on="1"/>
        <pt x="414" y="1438" on="1"/>
        <pt x="397" y="1505" on="1"/>
        <pt x="414" y="1575" on="1"/>
        <pt x="397" y="1575" on="1"/>
        <pt x="256" y="1575" on="0"/>
        <pt x="121" y="745" on="1"/>
      </contour>
    </TTGlyph>
    <TTGlyph name="R" xMin="20" yMin="-203" xMax="698" yMax="1567">
      <contour>
        <pt x="477" y="1567" on="1"/>
        <pt x="532" y="1567" on="1"/>
        <pt x="655" y="1567" on="0"/>
        <pt x="655" y="1372" on="1"/>
        <pt x="539" y="975" on="0"/>
        <pt x="268" y="793" on="1"/>
        <pt x="268" y="750" on="1"/>
        <pt x="522" y="-4" on="0"/>
        <pt x="643" y="-80" on="1"/>
        <pt x="698" y="-92" on="1"/>
        <pt x="698" y="-147" on="1"/>
        <pt x="629" y="-203" on="1"/>
        <pt x="543" y="-203" on="0"/>
        <pt x="352" y="307" on="1"/>
        <pt x="201" y="653" on="1"/>
        <pt x="158" y="653" on="1"/>
        <pt x="158" y="639" on="1"/>
        <pt x="174" y="406" on="1"/>
        <pt x="174" y="4" on="0"/>
        <pt x="102" y="4" on="1"/>
        <pt x="63" y="4" on="1"/>
        <pt x="31" y="4" on="0"/>
        <pt x="20" y="74" on="1"/>
        <pt x="63" y="211" on="1"/>
        <pt x="90" y="1206" on="1"/>
        <pt x="20" y="1206" on="0"/>
        <pt x="20" y="1262" on="1"/>
        <pt x="76" y="1346" on="0"/>
        <pt x="76" y="1386" on="1"/>
        <pt x="76" y="1497" on="1"/>
        <pt x="119" y="1538" on="1"/>
        <pt x="131" y="1538" on="1"/>
        <pt x="229" y="1511" on="1"/>
      </contour>
      <contour>
        <pt x="186" y="1358" on="1"/>
        <pt x="174" y="985" on="1"/>
        <pt x="174" y="889" on="1"/>
        <pt x="201" y="860" on="1"/>
        <pt x="229" y="860" on="1"/>
        <pt x="545" y="1139" on="0"/>
        <pt x="545" y="1358" on="1"/>
        <pt x="545" y="1427" on="1"/>
        <pt x="489" y="1483" on="1"/>
        <pt x="477" y="1483" on="1"/>
        <pt x="322" y="1483" on="0"/>
      </contour>
    </TTGlyph>
    <TTGlyph name="Racute" xMin="20" yMin="-203" xMax="698" yMax="1938">
      <component glyphName="R" x="0" y="0" flags="0x1204"/>
      <component glyphName="acute" x="53" y="242" flags="0x1004"/>
    </TTGlyph>
    <TTGlyph name="Rcaron" xMin="20" yMin="-203" xMax="698" yMax="1970">
      <component glyphName="R" x="0" y="0" flags="0x1204"/>
      <component glyphName="caron" x="-331" y="272" flags="0x1004"/>
    </TTGlyph>
    <TTGlyph name="Rcommaaccent" xMin="20" yMin="-498" xMax="698" yMax="1567">
      <component glyphName="R" x="0" y="0" flags="0x1204"/>
      <component glyphName="commaaccent" x="117" y="0" flags="0x1004"/>
    </TTGlyph>
    <TTGlyph name="S" xMin="66" yMin="-258" xMax="752" yMax="1763">
      <contour>
        <pt x="586" y="1763" on="1"/>
        <pt x="635" y="1763" on="0"/>
        <pt x="752" y="1667" on="1"/>
        <pt x="752" y="1612" on="1"/>
        <pt x="725" y="1612" on="1"/>
        <pt x="725" y="1597" on="1"/>
        <pt x="614" y="1667" on="0"/>
        <pt x="545" y="1667" on="1"/>
        <pt x="475" y="1667" on="1"/>
        <pt x="193" y="1509" on="0"/>
        <pt x="674" y="295" on="1"/>
        <pt x="688" y="227" on="1"/>
        <pt x="688" y="-49" on="0"/>
        <pt x="371" y="-231" on="1"/>
        <pt x="272" y="-258" on="1"/>
        <pt x="66" y="-199" on="0"/>
        <pt x="66" y="-49" on="1"/>
        <pt x="82" y="18" on="0"/>
        <pt x="106" y="18" on="1"/>
        <pt x="135" y="18" on="1"/>
        <pt x="180" y="-160" on="0"/>
        <pt x="231" y="-160" on="1"/>
        <pt x="549" y="-160" on="0"/>
        <pt x="592" y="227" on="1"/>
        <pt x="592" y="295" on="1"/>
        <pt x="-4" y="1665" on="0"/>
        <pt x="489" y="1751" on="1"/>
      </contour>
    </TTGlyph>
    <TTGlyph name="Sacute" xMin="66" yMin="-258" xMax="752" yMax="2073">
      <component glyphName="S" x="0" y="0" flags="0x1204"/>
      <component glyphName="acute" x="121" y="377" flags="0x1004"/>
    </TTGlyph>
    <TTGlyph name="Scaron" xMin="66" yMin="-258" xMax="752" yMax="2128">
      <component glyphName="S" x="0" y="0" flags="0x1204"/>
      <component glyphName="caron" x="-222" y="430" flags="0x1004"/>
    </TTGlyph>
    <TTGlyph name="Scedilla" xMin="64" yMin="-939" xMax="752" yMax="1763">
      <component glyphName="S" x="0" y="0" flags="0x1204"/>
      <component glyphName="cedilla" x="-161" y="-220" flags="0x1004"/>
    </TTGlyph>
    <TTGlyph name="Scircumflex" xMin="66" yMin="-258" xMax="826" yMax="2157">
      <component glyphName="S" x="0" y="0" flags="0x1204"/>
      <component glyphName="circumflex" x="152" y="416" flags="0x1004"/>
    </TTGlyph>
    <TTGlyph name="Scommaaccent" xMin="66" yMin="-778" xMax="752" yMax="1763">
      <component glyphName="S" x="0" y="0" flags="0x1204"/>
      <component glyphName="commaaccent" x="264" y="-280" flags="0x1004"/>
    </TTGlyph>
    <TTGlyph name="T" xMin="-6" yMin="0" xMax="920" yMax="1612">
      <contour>
        <pt x="879" y="1612" on="1"/>
        <pt x="920" y="1597" on="1"/>
        <pt x="920" y="1556" on="1"/>
        <pt x="920" y="1516" on="0"/>
        <pt x="864" y="1516" on="1"/>
        <pt x="864" y="1501" on="1"/>
        <pt x="809" y="1516" on="1"/>
        <pt x="496" y="1475" on="0"/>
        <pt x="477" y="1446" on="1"/>
        <pt x="492" y="1032" on="1"/>
        <pt x="496" y="414" on="1"/>
        <pt x="508" y="332" on="1"/>
        <pt x="496" y="262" on="1"/>
        <pt x="496" y="111" on="1"/>
        <pt x="496" y="45" on="0"/>
        <pt x="426" y="0" on="1"/>
        <pt x="362" y="27" on="0"/>
        <pt x="358" y="55" on="1"/>
        <pt x="358" y="96" on="1"/>
        <pt x="414" y="170" on="0"/>
        <pt x="414" y="221" on="1"/>
        <pt x="414" y="276" on="1"/>
        <pt x="426" y="524" on="1"/>
        <pt x="414" y="594" on="1"/>
        <pt x="422" y="934" on="1"/>
        <pt x="391" y="1446" on="0"/>
        <pt x="354" y="1446" on="1"/>
        <pt x="285" y="1446" on="1"/>
        <pt x="63" y="1432" on="1"/>
        <pt x="-6" y="1450" on="0"/>
        <pt x="-6" y="1475" on="1"/>
        <pt x="-6" y="1516" on="1"/>
        <pt x="35" y="1556" on="1"/>
        <pt x="201" y="1530" on="1"/>
        <pt x="367" y="1542" on="0"/>
        <pt x="422" y="1585" on="1"/>
        <pt x="506" y="1556" on="1"/>
      </contour>
    </TTGlyph>
    <TTGlyph name="Tcaron" xMin="-6" yMin="0" xMax="920" yMax="1972">
      <component glyphName="T" x="0" y="0" flags="0x1204"/>
      <component glyphName="caron" x="-255" y="274" flags="0x1004"/>
    </TTGlyph>
    <TTGlyph name="Tcommaaccent" xMin="-6" yMin="-498" xMax="920" yMax="1612">
      <component glyphName="T" x="0" y="0" flags="0x1204"/>
      <component glyphName="commaaccent" x="127" y="0" flags="0x1004"/>
    </TTGlyph>
    <TTGlyph name="Thorn" xMin="37" yMin="-55" xMax="519" yMax="1628">
      <contour>
        <pt x="106" y="1628" on="1"/>
        <pt x="176" y="1585" on="1"/>
        <pt x="162" y="1462" on="1"/>
        <pt x="162" y="1135" on="1"/>
        <pt x="176" y="1135" on="1"/>
        <pt x="297" y="1300" on="0"/>
        <pt x="383" y="1300" on="1"/>
        <pt x="426" y="1300" on="1"/>
        <pt x="618" y="1145" on="0"/>
        <pt x="420" y="399" on="0"/>
        <pt x="190" y="319" on="0"/>
        <pt x="147" y="377" on="1"/>
        <pt x="139" y="-55" on="1"/>
        <pt x="37" y="-55" on="1"/>
        <pt x="80" y="541" on="1"/>
        <pt x="80" y="1483" on="0"/>
        <pt x="39" y="1556" on="1"/>
        <pt x="39" y="1593" on="0"/>
      </contour>
      <contour>
        <pt x="172" y="553" on="1"/>
        <pt x="246" y="289" on="0"/>
        <pt x="416" y="659" on="1"/>
        <pt x="481" y="963" on="1"/>
        <pt x="481" y="1198" on="0"/>
        <pt x="356" y="1198" on="1"/>
        <pt x="147" y="1026" on="0"/>
      </contour>
    </TTGlyph>
    <TTGlyph name="U" xMin="49" yMin="-20" xMax="698" yMax="1628">
      <contour>
        <pt x="145" y="1628" on="1"/>
        <pt x="186" y="1628" on="1"/>
        <pt x="213" y="1599" on="1"/>
        <pt x="213" y="1587" on="1"/>
        <pt x="133" y="1049" on="0"/>
        <pt x="133" y="864" on="1"/>
        <pt x="133" y="782" on="1"/>
        <pt x="145" y="768" on="1"/>
        <pt x="133" y="754" on="1"/>
        <pt x="133" y="686" on="1"/>
        <pt x="178" y="104" on="0"/>
        <pt x="256" y="104" on="1"/>
        <pt x="270" y="104" on="1"/>
        <pt x="469" y="104" on="0"/>
        <pt x="575" y="879" on="1"/>
        <pt x="588" y="1044" on="1"/>
        <pt x="545" y="1544" on="1"/>
        <pt x="588" y="1599" on="1"/>
        <pt x="698" y="1599" on="0"/>
        <pt x="698" y="1434" on="1"/>
        <pt x="686" y="1059" on="1"/>
        <pt x="545" y="-20" on="0"/>
        <pt x="256" y="-20" on="1"/>
        <pt x="49" y="-20" on="0"/>
        <pt x="49" y="963" on="1"/>
        <pt x="82" y="1628" on="0"/>
      </contour>
    </TTGlyph>
    <TTGlyph name="Uacute" xMin="49" yMin="-20" xMax="698" yMax="1936">
      <component glyphName="U" x="0" y="0" flags="0x1204"/>
      <component glyphName="acute" x="166" y="240" flags="0x1004"/>
    </TTGlyph>
    <TTGlyph name="Ubreve" xMin="49" yMin="-20" xMax="698" yMax="1917">
      <component glyphName="U" x="0" y="0" flags="0x1204"/>
      <component glyphName="breve" x="78" y="270" flags="0x1004"/>
    </TTGlyph>
    <TTGlyph name="Ucircumflex" xMin="49" yMin="-20" xMax="698" yMax="2126">
      <component glyphName="U" x="0" y="0" flags="0x1204"/>
      <component glyphName="circumflex" x="-7" y="385" flags="0x1004"/>
    </TTGlyph>
    <TTGlyph name="Udieresis" xMin="49" yMin="-20" xMax="698" yMax="1876">
      <component glyphName="U" x="0" y="0" flags="0x1204"/>
      <component glyphName="dieresis" x="-163" y="211" flags="0x1004"/>
    </TTGlyph>
    <TTGlyph name="Ugrave" xMin="49" yMin="-20" xMax="698" yMax="1909">
      <component glyphName="U" x="0" y="0" flags="0x1204"/>
      <component glyphName="grave" x="-24" y="422" flags="0x1004"/>
    </TTGlyph>
    <TTGlyph name="Uhungarumlaut" xMin="49" yMin="-20" xMax="734" yMax="2034">
      <component glyphName="U" x="0" y="0" flags="0x1204"/>
      <component glyphName="hungarumlaut" x="154" y="367" flags="0x1004"/>
    </TTGlyph>
    <TTGlyph name="Umacron" xMin="49" yMin="-20" xMax="698" yMax="1802">
      <component glyphName="U" x="0" y="0" flags="0x1204"/>
      <component glyphName="macron" x="27" y="428" flags="0x1004"/>
    </TTGlyph>
    <TTGlyph name="Uogonek" xMin="49" yMin="-360" xMax="698" yMax="1628">
      <component glyphName="U" x="0" y="0" flags="0x1204"/>
      <component glyphName="ogonek" x="86" y="0" flags="0x1004"/>
    </TTGlyph>
    <TTGlyph name="Uring" xMin="49" yMin="-20" xMax="698" yMax="2026">
      <component glyphName="U" x="0" y="0" flags="0x1204"/>
      <component glyphName="ring" x="-296" y="285" flags="0x1004"/>
    </TTGlyph>
    <TTGlyph name="Utilde" xMin="-73" yMin="-20" xMax="873" yMax="2042">
      <component glyphName="U" x="0" y="0" flags="0x1204"/>
      <component glyphName="tilde" x="-204" y="293" flags="0x1004"/>
    </TTGlyph>
    <TTGlyph name="V" xMin="45" yMin="-4" xMax="764" yMax="1722">
      <contour>
        <pt x="680" y="1722" on="1"/>
        <pt x="764" y="1694" on="0"/>
        <pt x="764" y="1667" on="1"/>
        <pt x="764" y="1620" on="0"/>
        <pt x="721" y="1571" on="1"/>
        <pt x="696" y="782" on="0"/>
        <pt x="475" y="37" on="1"/>
        <pt x="408" y="-4" on="1"/>
        <pt x="342" y="-4" on="0"/>
        <pt x="324" y="203" on="1"/>
        <pt x="227" y="455" on="0"/>
        <pt x="45" y="1556" on="1"/>
        <pt x="100" y="1612" on="1"/>
        <pt x="182" y="1612" on="0"/>
        <pt x="338" y="369" on="1"/>
        <pt x="412" y="190" on="0"/>
        <pt x="434" y="190" on="1"/>
        <pt x="600" y="774" on="0"/>
        <pt x="600" y="1102" on="1"/>
        <pt x="600" y="1225" on="1"/>
        <pt x="610" y="1681" on="1"/>
      </contour>
    </TTGlyph>
    <TTGlyph name="W" xMin="72" yMin="-70" xMax="1026" yMax="1743">
      <contour>
        <pt x="156" y="1698" on="1"/>
        <pt x="203" y="1683" on="0"/>
        <pt x="211" y="1642" on="1"/>
        <pt x="156" y="1180" on="0"/>
        <pt x="156" y="952" on="1"/>
        <pt x="156" y="524" on="1"/>
        <pt x="170" y="332" on="1"/>
        <pt x="156" y="289" on="1"/>
        <pt x="166" y="137" on="0"/>
        <pt x="197" y="137" on="1"/>
        <pt x="336" y="340" on="0"/>
        <pt x="514" y="1063" on="1"/>
        <pt x="514" y="1161" on="1"/>
        <pt x="487" y="1202" on="1"/>
        <pt x="522" y="1298" on="0"/>
        <pt x="569" y="1298" on="1"/>
        <pt x="649" y="1298" on="0"/>
        <pt x="668" y="1202" on="1"/>
        <pt x="653" y="1106" on="1"/>
        <pt x="713" y="248" on="0"/>
        <pt x="834" y="248" on="1"/>
        <pt x="907" y="248" on="0"/>
        <pt x="930" y="745" on="1"/>
        <pt x="930" y="981" on="1"/>
        <pt x="930" y="1180" on="0"/>
        <pt x="889" y="1647" on="1"/>
        <pt x="944" y="1743" on="1"/>
        <pt x="999" y="1729" on="0"/>
        <pt x="999" y="1661" on="1"/>
        <pt x="1026" y="801" on="1"/>
        <pt x="975" y="96" on="0"/>
        <pt x="834" y="96" on="1"/>
        <pt x="670" y="96" on="0"/>
        <pt x="584" y="897" on="1"/>
        <pt x="547" y="874" on="0"/>
        <pt x="403" y="399" on="1"/>
        <pt x="246" y="-63" on="0"/>
        <pt x="170" y="-70" on="1"/>
        <pt x="141" y="-70" on="1"/>
        <pt x="106" y="-70" on="0"/>
        <pt x="100" y="-14" on="1"/>
        <pt x="86" y="-14" on="1"/>
        <pt x="72" y="635" on="1"/>
        <pt x="72" y="801" on="1"/>
        <pt x="74" y="1698" on="0"/>
        <pt x="143" y="1698" on="1"/>
      </contour>
    </TTGlyph>
    <TTGlyph name="Wacute" xMin="72" yMin="-70" xMax="1026" yMax="2007">
      <component glyphName="W" x="0" y="0" flags="0x1204"/>
      <component glyphName="acute" x="229" y="311" flags="0x1004"/>
    </TTGlyph>
    <TTGlyph name="Wcircumflex" xMin="72" yMin="-70" xMax="1026" yMax="2048">
      <component glyphName="W" x="0" y="0" flags="0x1204"/>
      <component glyphName="circumflex" x="137" y="307" flags="0x1004"/>
    </TTGlyph>
    <TTGlyph name="Wdieresis" xMin="72" yMin="-70" xMax="1026" yMax="1821">
      <component glyphName="W" x="0" y="0" flags="0x1204"/>
      <component glyphName="dieresis" x="-65" y="156" flags="0x1004"/>
    </TTGlyph>
    <TTGlyph name="Wgrave" xMin="72" yMin="-70" xMax="1026" yMax="1933">
      <component glyphName="W" x="0" y="0" flags="0x1204"/>
      <component glyphName="grave" x="135" y="446" flags="0x1004"/>
    </TTGlyph>
    <TTGlyph name="X" xMin="-23" yMin="-236" xMax="780" yMax="1700">
      <contour>
        <pt x="725" y="1700" on="1"/>
        <pt x="770" y="1686" on="0"/>
        <pt x="780" y="1645" on="1"/>
        <pt x="670" y="1495" on="0"/>
        <pt x="475" y="731" on="1"/>
        <pt x="475" y="717" on="1"/>
        <pt x="621" y="408" on="0"/>
        <pt x="739" y="219" on="1"/>
        <pt x="719" y="164" on="0"/>
        <pt x="696" y="164" on="1"/>
        <pt x="684" y="164" on="1"/>
        <pt x="653" y="168" on="0"/>
        <pt x="434" y="580" on="1"/>
        <pt x="395" y="547" on="0"/>
        <pt x="213" y="27" on="1"/>
        <pt x="76" y="-223" on="1"/>
        <pt x="6" y="-236" on="1"/>
        <pt x="-23" y="-195" on="1"/>
        <pt x="279" y="258" on="0"/>
        <pt x="365" y="690" on="1"/>
        <pt x="365" y="760" on="1"/>
        <pt x="158" y="1395" on="1"/>
        <pt x="199" y="1436" on="1"/>
        <pt x="213" y="1436" on="1"/>
        <pt x="258" y="1436" on="0"/>
        <pt x="379" y="981" on="1"/>
        <pt x="393" y="967" on="1"/>
        <pt x="393" y="926" on="0"/>
        <pt x="420" y="926" on="1"/>
        <pt x="449" y="926" on="1"/>
        <pt x="616" y="1608" on="0"/>
      </contour>
    </TTGlyph>
    <TTGlyph name="Y" xMin="53" yMin="-86" xMax="752" yMax="1739">
      <contour>
        <pt x="641" y="1698" on="1"/>
        <pt x="696" y="1698" on="1"/>
        <pt x="752" y="1642" on="1"/>
        <pt x="684" y="1513" on="0"/>
        <pt x="621" y="758" on="1"/>
        <pt x="514" y="-72" on="0"/>
        <pt x="274" y="-72" on="1"/>
        <pt x="274" y="-86" on="1"/>
        <pt x="82" y="-86" on="0"/>
        <pt x="53" y="66" on="1"/>
        <pt x="53" y="80" on="1"/>
        <pt x="82" y="80" on="1"/>
        <pt x="82" y="94" on="1"/>
        <pt x="207" y="10" on="1"/>
        <pt x="518" y="10" on="0"/>
        <pt x="606" y="1282" on="1"/>
        <pt x="594" y="1282" on="1"/>
        <pt x="399" y="950" on="1"/>
        <pt x="248" y="758" on="0"/>
        <pt x="207" y="758" on="1"/>
        <pt x="164" y="758" on="1"/>
        <pt x="104" y="758" on="0"/>
        <pt x="96" y="950" on="1"/>
        <pt x="96" y="1075" on="1"/>
        <pt x="104" y="1647" on="0"/>
        <pt x="233" y="1739" on="1"/>
        <pt x="274" y="1724" on="1"/>
        <pt x="274" y="1683" on="1"/>
        <pt x="193" y="1456" on="0"/>
        <pt x="193" y="991" on="1"/>
        <pt x="207" y="895" on="0"/>
        <pt x="233" y="895" on="1"/>
        <pt x="481" y="1126" on="0"/>
      </contour>
    </TTGlyph>
    <TTGlyph name="Yacute" xMin="53" yMin="-86" xMax="752" yMax="2026">
      <component glyphName="Y" x="0" y="0" flags="0x1204"/>
      <component glyphName="acute" x="223" y="330" flags="0x1004"/>
    </TTGlyph>
    <TTGlyph name="Ycircumflex" xMin="53" yMin="-86" xMax="893" yMax="2056">
      <component glyphName="Y" x="0" y="0" flags="0x1204"/>
      <component glyphName="circumflex" x="219" y="315" flags="0x1004"/>
    </TTGlyph>
    <TTGlyph name="Ydieresis" xMin="53" yMin="-86" xMax="752" yMax="2005">
      <component glyphName="Y" x="0" y="0" flags="0x1204"/>
      <component glyphName="dieresis" x="-73" y="340" flags="0x1004"/>
    </TTGlyph>
    <TTGlyph name="Ygrave" xMin="53" yMin="-86" xMax="752" yMax="1925">
      <component glyphName="Y" x="0" y="0" flags="0x1204"/>
      <component glyphName="grave" x="-9" y="438" flags="0x1004"/>
    </TTGlyph>
    <TTGlyph name="Z" xMin="39" yMin="0" xMax="883" yMax="1774">
      <contour>
        <pt x="664" y="1774" on="1"/>
        <pt x="705" y="1774" on="1"/>
        <pt x="745" y="1733" on="1"/>
        <pt x="745" y="1718" on="1"/>
        <pt x="782" y="1227" on="0"/>
        <pt x="205" y="166" on="1"/>
        <pt x="205" y="123" on="1"/>
        <pt x="260" y="123" on="1"/>
        <pt x="801" y="276" on="1"/>
        <pt x="883" y="276" on="0"/>
        <pt x="883" y="178" on="1"/>
        <pt x="883" y="166" on="1"/>
        <pt x="856" y="111" on="0"/>
        <pt x="801" y="111" on="1"/>
        <pt x="702" y="137" on="1"/>
        <pt x="121" y="0" on="1"/>
        <pt x="82" y="0" on="0"/>
        <pt x="39" y="55" on="1"/>
        <pt x="563" y="938" on="0"/>
        <pt x="621" y="1649" on="1"/>
        <pt x="580" y="1663" on="1"/>
        <pt x="178" y="1524" on="1"/>
        <pt x="117" y="1552" on="0"/>
        <pt x="111" y="1579" on="1"/>
        <pt x="111" y="1593" on="1"/>
        <pt x="111" y="1634" on="0"/>
        <pt x="332" y="1649" on="1"/>
        <pt x="332" y="1677" on="0"/>
      </contour>
    </TTGlyph>
    <TTGlyph name="Zacute" xMin="39" yMin="0" xMax="883" yMax="1989">
      <component glyphName="Z" x="0" y="0" flags="0x1204"/>
      <component glyphName="acute" x="63" y="293" flags="0x1004"/>
    </TTGlyph>
    <TTGlyph name="Zcaron" xMin="39" yMin="0" xMax="883" yMax="2104">
      <component glyphName="Z" x="0" y="0" flags="0x1204"/>
      <component glyphName="caron" x="-296" y="406" flags="0x1004"/>
    </TTGlyph>
    <TTGlyph name="Zdotaccent" xMin="39" yMin="0" xMax="883" yMax="1923">
      <component glyphName="Z" x="0" y="0" flags="0x1204"/>
      <component glyphName="dotaccent" x="156" y="303" flags="0x1004"/>
    </TTGlyph>
    <TTGlyph name="a" xMin="76" yMin="-156" xMax="641" yMax="1090">
      <contour>
        <pt x="420" y="1090" on="1"/>
        <pt x="463" y="1090" on="1"/>
        <pt x="504" y="1061" on="1"/>
        <pt x="489" y="856" on="1"/>
        <pt x="528" y="121" on="0"/>
        <pt x="614" y="121" on="1"/>
        <pt x="641" y="121" on="1"/>
        <pt x="641" y="109" on="1"/>
        <pt x="641" y="33" on="0"/>
        <pt x="586" y="10" on="1"/>
        <pt x="530" y="10" on="1"/>
        <pt x="475" y="10" on="0"/>
        <pt x="434" y="315" on="1"/>
        <pt x="420" y="315" on="1"/>
        <pt x="340" y="-156" on="0"/>
        <pt x="172" y="-156" on="1"/>
        <pt x="76" y="-156" on="0"/>
        <pt x="76" y="137" on="1"/>
        <pt x="76" y="287" on="1"/>
        <pt x="76" y="924" on="0"/>
        <pt x="309" y="1006" on="1"/>
        <pt x="348" y="1006" on="0"/>
      </contour>
      <contour>
        <pt x="172" y="330" on="1"/>
        <pt x="172" y="137" on="1"/>
        <pt x="172" y="-16" on="0"/>
        <pt x="213" y="-16" on="1"/>
        <pt x="303" y="-16" on="0"/>
        <pt x="393" y="702" on="1"/>
        <pt x="393" y="717" on="1"/>
        <pt x="383" y="911" on="0"/>
        <pt x="352" y="911" on="1"/>
        <pt x="309" y="911" on="1"/>
        <pt x="172" y="911" on="0"/>
      </contour>
    </TTGlyph>
    <TTGlyph name="aacute" xMin="76" yMin="-156" xMax="641" yMax="1696">
      <component glyphName="a" x="0" y="0" flags="0x1204"/>
      <component glyphName="acute" x="119" y="0" flags="0x1004"/>
    </TTGlyph>
    <TTGlyph name="abreve" xMin="97" yMin="-74" xMax="672" yMax="1472">
      <component glyphName="a" x="31" y="82" flags="0x1204"/>
      <component glyphName="breve" x="-1" y="-175" flags="0x1004"/>
    </TTGlyph>
    <TTGlyph name="acircumflex" xMin="76" yMin="-156" xMax="671" yMax="1504">
      <component glyphName="a" x="0" y="0" flags="0x1204"/>
      <component glyphName="circumflex" x="-3" y="-237" flags="0x1004"/>
    </TTGlyph>
    <TTGlyph name="acute" xMin="111" yMin="1378" xMax="471" yMax="1696">
      <contour>
        <pt x="176" y="1378" on="1"/>
        <pt x="111" y="1438" on="1"/>
        <pt x="397" y="1686" on="0"/>
        <pt x="420" y="1696" on="1"/>
        <pt x="471" y="1645" on="1"/>
      </contour>
    </TTGlyph>
    <TTGlyph name="adieresis" xMin="76" yMin="-156" xMax="641" yMax="1387">
      <component glyphName="a" x="0" y="0" flags="0x1204"/>
      <component glyphName="dieresis" x="-230" y="-278" flags="0x1004"/>
    </TTGlyph>
    <TTGlyph name="ae" xMin="76" yMin="-156" xMax="1016" yMax="1163">
      <component glyphName="a" x="0" y="0" flags="0x1004"/>
      <component glyphName="e" x="430" y="8" flags="0x1004"/>
    </TTGlyph>
    <TTGlyph name="aeacute" xMin="76" yMin="-156" xMax="1016" yMax="1696">
      <component glyphName="a" x="0" y="0" flags="0x1004"/>
      <component glyphName="e" x="430" y="8" flags="0x1004"/>
      <component glyphName="acute" x="252" y="0" flags="0x1004"/>
    </TTGlyph>
    <TTGlyph name="agrave" xMin="8" yMin="-156" xMax="641" yMax="1487">
      <component glyphName="a" x="0" y="0" flags="0x1204"/>
      <component glyphName="grave" x="-103" y="0" flags="0x1004"/>
    </TTGlyph>
    <TTGlyph name="amacron" xMin="76" yMin="-156" xMax="641" yMax="1374">
      <component glyphName="a" x="0" y="0" flags="0x1204"/>
      <component glyphName="macron" x="16" y="0" flags="0x1004"/>
    </TTGlyph>
    <TTGlyph name="ampersand" xMin="129" yMin="246" xMax="999" yMax="1667">
      <contour>
        <pt x="418" y="1667" on="1"/>
        <pt x="584" y="1606" on="0"/>
        <pt x="584" y="1419" on="1"/>
        <pt x="584" y="1124" on="0"/>
        <pt x="473" y="727" on="1"/>
        <pt x="473" y="651" on="0"/>
        <pt x="557" y="395" on="1"/>
        <pt x="598" y="395" on="1"/>
        <pt x="686" y="395" on="0"/>
        <pt x="694" y="756" on="1"/>
        <pt x="694" y="805" on="0"/>
        <pt x="571" y="838" on="1"/>
        <pt x="571" y="893" on="1"/>
        <pt x="682" y="922" on="1"/>
        <pt x="805" y="909" on="1"/>
        <pt x="889" y="909" on="1"/>
        <pt x="985" y="922" on="1"/>
        <pt x="999" y="909" on="1"/>
        <pt x="999" y="854" on="1"/>
        <pt x="778" y="799" on="1"/>
        <pt x="778" y="645" on="1"/>
        <pt x="778" y="246" on="0"/>
        <pt x="391" y="246" on="1"/>
        <pt x="252" y="246" on="1"/>
        <pt x="129" y="246" on="0"/>
        <pt x="129" y="328" on="1"/>
        <pt x="377" y="578" on="0"/>
        <pt x="377" y="743" on="1"/>
        <pt x="266" y="1434" on="1"/>
        <pt x="266" y="1501" on="1"/>
        <pt x="303" y="1667" on="0"/>
      </contour>
      <contour>
        <pt x="362" y="1419" on="1"/>
        <pt x="395" y="965" on="0"/>
        <pt x="446" y="965" on="1"/>
        <pt x="477" y="1004" on="0"/>
        <pt x="502" y="1296" on="1"/>
        <pt x="502" y="1491" on="0"/>
        <pt x="432" y="1544" on="1"/>
        <pt x="381" y="1544" on="0"/>
      </contour>
      <contour>
        <pt x="322" y="369" on="1"/>
        <pt x="322" y="356" on="1"/>
        <pt x="446" y="356" on="1"/>
        <pt x="446" y="467" on="1"/>
        <pt x="432" y="535" on="1"/>
        <pt x="406" y="535" on="1"/>
        <pt x="369" y="535" on="0"/>
      </contour>
    </TTGlyph>
    <TTGlyph name="aogonek" xMin="76" yMin="-346" xMax="735" yMax="1090">
      <component glyphName="a" x="0" y="0" flags="0x1204"/>
      <component glyphName="ogonek" x="358" y="14" flags="0x1004"/>
    </TTGlyph>
    <TTGlyph name="aring" xMin="76" yMin="-156" xMax="641" yMax="1402">
      <component glyphName="a" x="0" y="0" flags="0x1204"/>
      <component glyphName="ring" x="-386" y="-339" flags="0x1004"/>
    </TTGlyph>
    <TTGlyph name="asciicircum" xMin="123" yMin="670" xMax="815" yMax="1470">
      <contour>
        <pt x="469" y="1470" on="1"/>
        <pt x="496" y="1470" on="1"/>
        <pt x="553" y="1470" on="0"/>
        <pt x="760" y="958" on="1"/>
        <pt x="815" y="891" on="1"/>
        <pt x="815" y="836" on="1"/>
        <pt x="760" y="819" on="1"/>
        <pt x="621" y="819" on="0"/>
        <pt x="621" y="1057" on="1"/>
        <pt x="514" y="1298" on="0"/>
        <pt x="483" y="1305" on="1"/>
        <pt x="469" y="1305" on="1"/>
        <pt x="385" y="1219" on="0"/>
        <pt x="193" y="709" on="1"/>
        <pt x="137" y="670" on="1"/>
        <pt x="123" y="670" on="1"/>
        <pt x="123" y="737" on="1"/>
        <pt x="416" y="1470" on="0"/>
      </contour>
    </TTGlyph>
    <TTGlyph name="asciitilde" xMin="131" yMin="1354" xMax="1077" yMax="1749">
      <contour>
        <pt x="1071" y="1532" on="1"/>
        <pt x="889" y="1298" on="0"/>
        <pt x="696" y="1354" on="1"/>
        <pt x="586" y="1419" on="1"/>
        <pt x="399" y="1636" on="0"/>
        <pt x="375" y="1645" on="1"/>
        <pt x="362" y="1649" on="1"/>
        <pt x="274" y="1671" on="0"/>
        <pt x="213" y="1524" on="1"/>
        <pt x="207" y="1479" on="1"/>
        <pt x="131" y="1487" on="1"/>
        <pt x="170" y="1722" on="0"/>
        <pt x="379" y="1749" on="1"/>
        <pt x="420" y="1726" on="1"/>
        <pt x="588" y="1479" on="0"/>
        <pt x="700" y="1446" on="1"/>
        <pt x="721" y="1442" on="1"/>
        <pt x="872" y="1399" on="0"/>
        <pt x="1047" y="1575" on="1"/>
        <pt x="1067" y="1569" on="1"/>
        <pt x="1077" y="1556" on="1"/>
      </contour>
    </TTGlyph>
    <TTGlyph name="asterisk" xMin="68" yMin="365" xMax="829" yMax="1458">
      <contour>
        <pt x="553" y="1458" on="1"/>
        <pt x="621" y="1458" on="1"/>
        <pt x="651" y="1450" on="0"/>
        <pt x="676" y="1389" on="1"/>
        <pt x="621" y="1227" on="0"/>
        <pt x="621" y="1139" on="1"/>
        <pt x="621" y="1112" on="1"/>
        <pt x="621" y="1083" on="0"/>
        <pt x="786" y="1071" on="1"/>
        <pt x="829" y="1016" on="1"/>
        <pt x="829" y="987" on="1"/>
        <pt x="829" y="956" on="0"/>
        <pt x="608" y="905" on="1"/>
        <pt x="594" y="836" on="1"/>
        <pt x="594" y="614" on="1"/>
        <pt x="635" y="434" on="1"/>
        <pt x="627" y="365" on="0"/>
        <pt x="553" y="365" on="1"/>
        <pt x="539" y="365" on="1"/>
        <pt x="510" y="373" on="0"/>
        <pt x="483" y="434" on="1"/>
        <pt x="498" y="530" on="1"/>
        <pt x="455" y="600" on="0"/>
        <pt x="442" y="739" on="1"/>
        <pt x="428" y="752" on="1"/>
        <pt x="414" y="752" on="1"/>
        <pt x="391" y="752" on="0"/>
        <pt x="137" y="463" on="1"/>
        <pt x="68" y="475" on="0"/>
        <pt x="68" y="530" on="1"/>
        <pt x="289" y="1057" on="1"/>
        <pt x="289" y="1098" on="1"/>
        <pt x="221" y="1223" on="1"/>
        <pt x="223" y="1294" on="0"/>
        <pt x="276" y="1333" on="1"/>
        <pt x="289" y="1319" on="1"/>
        <pt x="322" y="1319" on="0"/>
        <pt x="358" y="1223" on="1"/>
        <pt x="373" y="1223" on="1"/>
        <pt x="424" y="1223" on="0"/>
      </contour>
      <contour>
        <pt x="483" y="1182" on="1"/>
        <pt x="510" y="1153" on="1"/>
        <pt x="524" y="1153" on="1"/>
        <pt x="524" y="1208" on="1"/>
        <pt x="510" y="1208" on="1"/>
      </contour>
      <contour>
        <pt x="428" y="1042" on="1"/>
        <pt x="428" y="1028" on="1"/>
        <pt x="436" y="946" on="0"/>
        <pt x="469" y="946" on="1"/>
        <pt x="498" y="946" on="1"/>
        <pt x="510" y="1016" on="1"/>
        <pt x="469" y="1042" on="1"/>
      </contour>
      <contour>
        <pt x="289" y="807" on="1"/>
        <pt x="373" y="807" on="0"/>
        <pt x="373" y="891" on="1"/>
        <pt x="373" y="918" on="1"/>
        <pt x="344" y="918" on="1"/>
        <pt x="309" y="918" on="0"/>
      </contour>
    </TTGlyph>
    <TTGlyph name="at" xMin="45" yMin="-125" xMax="1042" yMax="1430">
      <contour>
        <pt x="664" y="1430" on="1"/>
        <pt x="893" y="1430" on="0"/>
        <pt x="1042" y="817" on="1"/>
        <pt x="1042" y="4" on="0"/>
        <pt x="567" y="-125" on="1"/>
        <pt x="545" y="-125" on="1"/>
        <pt x="25" y="-154" on="0"/>
        <pt x="45" y="504" on="1"/>
        <pt x="45" y="571" on="1"/>
        <pt x="45" y="1290" on="0"/>
        <pt x="522" y="1403" on="1"/>
        <pt x="664" y="1403" on="0"/>
      </contour>
      <contour>
        <pt x="188" y="754" on="1"/>
        <pt x="82" y="10" on="0"/>
        <pt x="451" y="-10" on="1"/>
        <pt x="498" y="-10" on="1"/>
        <pt x="674" y="-10" on="0"/>
        <pt x="778" y="190" on="1"/>
        <pt x="754" y="176" on="0"/>
        <pt x="723" y="166" on="1"/>
        <pt x="668" y="166" on="1"/>
        <pt x="612" y="166" on="0"/>
        <pt x="612" y="268" on="1"/>
        <pt x="211" y="0" on="0"/>
        <pt x="266" y="1047" on="0"/>
        <pt x="485" y="1133" on="1"/>
        <pt x="485" y="1161" on="0"/>
        <pt x="551" y="1159" on="1"/>
        <pt x="592" y="1159" on="1"/>
        <pt x="635" y="1133" on="1"/>
        <pt x="627" y="1008" on="1"/>
        <pt x="664" y="276" on="0"/>
        <pt x="750" y="276" on="1"/>
        <pt x="821" y="297" on="1"/>
        <pt x="879" y="465" on="0"/>
        <pt x="901" y="727" on="1"/>
        <pt x="901" y="1186" on="0"/>
        <pt x="545" y="1284" on="1"/>
        <pt x="248" y="1247" on="0"/>
      </contour>
      <contour>
        <pt x="545" y="387" on="1"/>
        <pt x="555" y="809" on="1"/>
        <pt x="520" y="1174" on="0"/>
        <pt x="397" y="836" on="1"/>
        <pt x="244" y="184" on="0"/>
      </contour>
    </TTGlyph>
    <TTGlyph name="atilde" xMin="-120" yMin="-156" xMax="826" yMax="1749">
      <component glyphName="a" x="0" y="0" flags="0x1204"/>
      <component glyphName="tilde" x="-251" y="0" flags="0x1004"/>
    </TTGlyph>
    <TTGlyph name="b" xMin="45" yMin="-31" xMax="653" yMax="1655">
      <contour>
        <pt x="113" y="1655" on="1"/>
        <pt x="182" y="1612" on="1"/>
        <pt x="168" y="1489" on="1"/>
        <pt x="223" y="799" on="1"/>
        <pt x="238" y="799" on="1"/>
        <pt x="358" y="965" on="0"/>
        <pt x="444" y="965" on="1"/>
        <pt x="487" y="965" on="1"/>
        <pt x="653" y="823" on="0"/>
        <pt x="653" y="672" on="1"/>
        <pt x="559" y="213" on="0"/>
        <pt x="322" y="-18" on="1"/>
        <pt x="305" y="-31" on="1"/>
        <pt x="250" y="-18" on="0"/>
        <pt x="250" y="37" on="1"/>
        <pt x="223" y="37" on="1"/>
        <pt x="121" y="37" on="0"/>
        <pt x="113" y="80" on="1"/>
        <pt x="113" y="92" on="1"/>
        <pt x="139" y="203" on="1"/>
        <pt x="139" y="1147" on="0"/>
        <pt x="45" y="1585" on="1"/>
        <pt x="45" y="1622" on="0"/>
      </contour>
      <contour>
        <pt x="266" y="92" on="1"/>
        <pt x="279" y="80" on="1"/>
        <pt x="408" y="156" on="0"/>
        <pt x="514" y="506" on="1"/>
        <pt x="543" y="616" on="1"/>
        <pt x="543" y="854" on="0"/>
        <pt x="416" y="854" on="1"/>
        <pt x="285" y="854" on="0"/>
      </contour>
    </TTGlyph>
    <TTGlyph name="backslash" xMin="-2" yMin="39" xMax="621" yMax="1421">
      <contour>
        <pt x="53" y="1421" on="1"/>
        <pt x="96" y="1421" on="1"/>
        <pt x="133" y="1421" on="0"/>
        <pt x="207" y="1090" on="1"/>
        <pt x="391" y="559" on="0"/>
        <pt x="621" y="94" on="1"/>
        <pt x="600" y="39" on="0"/>
        <pt x="580" y="39" on="1"/>
        <pt x="551" y="39" on="1"/>
        <pt x="502" y="39" on="0"/>
        <pt x="193" y="868" on="1"/>
        <pt x="115" y="1135" on="0"/>
        <pt x="-2" y="1378" on="1"/>
      </contour>
    </TTGlyph>
    <TTGlyph name="bar" xMin="70" yMin="-25" xMax="209" yMax="1855">
      <contour>
        <pt x="133" y="1845" on="1"/>
        <pt x="180" y="1855" on="1"/>
        <pt x="184" y="1516" on="1"/>
        <pt x="180" y="1288" on="1"/>
        <pt x="193" y="502" on="1"/>
        <pt x="180" y="225" on="1"/>
        <pt x="209" y="59" on="1"/>
        <pt x="209" y="33" on="0"/>
        <pt x="137" y="-25" on="1"/>
        <pt x="70" y="31" on="1"/>
        <pt x="98" y="102" on="0"/>
        <pt x="98" y="322" on="1"/>
        <pt x="98" y="348" on="1"/>
        <pt x="100" y="1798" on="1"/>
        <pt x="127" y="1845" on="0"/>
      </contour>
    </TTGlyph>
    <TTGlyph name="braceleft" xMin="31" yMin="-225" xMax="627" yMax="1751">
      <contour>
        <pt x="598" y="1751" on="1"/>
        <pt x="598" y="1722" on="1"/>
        <pt x="242" y="1460" on="0"/>
        <pt x="197" y="1280" on="1"/>
        <pt x="141" y="1194" on="0"/>
        <pt x="141" y="1114" on="1"/>
        <pt x="141" y="1020" on="1"/>
        <pt x="141" y="881" on="0"/>
        <pt x="322" y="854" on="1"/>
        <pt x="502" y="893" on="1"/>
        <pt x="543" y="881" on="0"/>
        <pt x="543" y="811" on="1"/>
        <pt x="543" y="799" on="1"/>
        <pt x="336" y="659" on="1"/>
        <pt x="225" y="535" on="0"/>
        <pt x="225" y="479" on="1"/>
        <pt x="225" y="467" on="1"/>
        <pt x="240" y="467" on="1"/>
        <pt x="446" y="522" on="1"/>
        <pt x="461" y="522" on="1"/>
        <pt x="502" y="479" on="1"/>
        <pt x="502" y="438" on="1"/>
        <pt x="322" y="236" on="0"/>
        <pt x="322" y="-86" on="1"/>
        <pt x="373" y="-129" on="0"/>
        <pt x="418" y="-129" on="1"/>
        <pt x="451" y="-129" on="0"/>
        <pt x="571" y="-18" on="1"/>
        <pt x="584" y="-18" on="1"/>
        <pt x="627" y="-47" on="1"/>
        <pt x="532" y="-184" on="0"/>
        <pt x="377" y="-225" on="1"/>
        <pt x="252" y="-225" on="0"/>
        <pt x="225" y="-31" on="1"/>
        <pt x="307" y="328" on="1"/>
        <pt x="295" y="340" on="1"/>
        <pt x="281" y="340" on="1"/>
        <pt x="100" y="328" on="1"/>
        <pt x="45" y="369" on="1"/>
        <pt x="45" y="438" on="1"/>
        <pt x="281" y="719" on="0"/>
        <pt x="281" y="756" on="1"/>
        <pt x="137" y="756" on="0"/>
        <pt x="45" y="948" on="1"/>
        <pt x="31" y="1004" on="1"/>
        <pt x="31" y="1354" on="0"/>
        <pt x="418" y="1683" on="1"/>
        <pt x="526" y="1751" on="0"/>
      </contour>
    </TTGlyph>
    <TTGlyph name="braceright" xMin="27" yMin="-113" xMax="563" yMax="1724">
      <contour>
        <pt x="248" y="1724" on="1"/>
        <pt x="330" y="1724" on="1"/>
        <pt x="551" y="1628" on="0"/>
        <pt x="551" y="1491" on="1"/>
        <pt x="551" y="1421" on="1"/>
        <pt x="498" y="1126" on="0"/>
        <pt x="274" y="840" on="1"/>
        <pt x="274" y="813" on="1"/>
        <pt x="283" y="772" on="0"/>
        <pt x="385" y="772" on="1"/>
        <pt x="440" y="758" on="1"/>
        <pt x="481" y="690" on="1"/>
        <pt x="469" y="637" on="0"/>
        <pt x="385" y="551" on="1"/>
        <pt x="385" y="496" on="1"/>
        <pt x="508" y="496" on="1"/>
        <pt x="551" y="496" on="0"/>
        <pt x="551" y="440" on="1"/>
        <pt x="563" y="440" on="1"/>
        <pt x="395" y="109" on="0"/>
        <pt x="164" y="-113" on="1"/>
        <pt x="121" y="-113" on="1"/>
        <pt x="82" y="-72" on="1"/>
        <pt x="82" y="-45" on="1"/>
        <pt x="383" y="209" on="0"/>
        <pt x="397" y="342" on="1"/>
        <pt x="397" y="385" on="1"/>
        <pt x="385" y="385" on="1"/>
        <pt x="176" y="358" on="1"/>
        <pt x="121" y="440" on="1"/>
        <pt x="274" y="580" on="1"/>
        <pt x="315" y="635" on="1"/>
        <pt x="315" y="662" on="0"/>
        <pt x="274" y="662" on="1"/>
        <pt x="66" y="647" on="1"/>
        <pt x="27" y="702" on="1"/>
        <pt x="27" y="745" on="1"/>
        <pt x="260" y="915" on="0"/>
        <pt x="260" y="979" on="1"/>
        <pt x="418" y="1157" on="0"/>
        <pt x="453" y="1393" on="1"/>
        <pt x="453" y="1464" on="1"/>
        <pt x="453" y="1587" on="0"/>
        <pt x="231" y="1587" on="1"/>
        <pt x="193" y="1642" on="1"/>
        <pt x="223" y="1724" on="0"/>
      </contour>
    </TTGlyph>
    <TTGlyph name="bracketleft" xMin="33" yMin="-225" xMax="623" yMax="1575">
      <contour>
        <pt x="193" y="1575" on="1"/>
        <pt x="623" y="1479" on="1"/>
        <pt x="623" y="1450" on="1"/>
        <pt x="608" y="1409" on="0"/>
        <pt x="541" y="1409" on="1"/>
        <pt x="236" y="1436" on="1"/>
        <pt x="180" y="1436" on="0"/>
        <pt x="143" y="37" on="1"/>
        <pt x="176" y="-129" on="0"/>
        <pt x="352" y="-129" on="1"/>
        <pt x="420" y="-129" on="1"/>
        <pt x="485" y="-129" on="0"/>
        <pt x="559" y="-47" on="1"/>
        <pt x="600" y="-47" on="1"/>
        <pt x="600" y="-59" on="1"/>
        <pt x="600" y="-195" on="0"/>
        <pt x="379" y="-225" on="1"/>
        <pt x="33" y="-158" on="0"/>
        <pt x="33" y="8" on="1"/>
        <pt x="88" y="178" on="0"/>
        <pt x="111" y="1505" on="1"/>
        <pt x="111" y="1561" on="0"/>
        <pt x="193" y="1561" on="1"/>
      </contour>
    </TTGlyph>
    <TTGlyph name="bracketright" xMin="20" yMin="-254" xMax="600" yMax="1622">
      <contour>
        <pt x="76" y="1622" on="1"/>
        <pt x="297" y="1579" on="1"/>
        <pt x="379" y="1579" on="1"/>
        <pt x="530" y="1593" on="1"/>
        <pt x="600" y="1538" on="1"/>
        <pt x="463" y="1415" on="0"/>
        <pt x="463" y="750" on="1"/>
        <pt x="430" y="78" on="1"/>
        <pt x="430" y="-57" on="0"/>
        <pt x="541" y="-184" on="1"/>
        <pt x="518" y="-254" on="0"/>
        <pt x="442" y="-254" on="1"/>
        <pt x="70" y="-193" on="0"/>
        <pt x="70" y="-158" on="1"/>
        <pt x="70" y="-117" on="1"/>
        <pt x="82" y="-102" on="1"/>
        <pt x="125" y="-88" on="1"/>
        <pt x="125" y="-74" on="1"/>
        <pt x="238" y="-117" on="0"/>
        <pt x="332" y="-117" on="1"/>
        <pt x="332" y="23" on="1"/>
        <pt x="379" y="1145" on="0"/>
        <pt x="420" y="1456" on="1"/>
        <pt x="20" y="1497" on="0"/>
        <pt x="20" y="1552" on="1"/>
        <pt x="20" y="1579" on="1"/>
      </contour>
    </TTGlyph>
    <TTGlyph name="breve" xMin="98" yMin="1439" xMax="590" yMax="1647">
      <contour>
        <pt x="98" y="1577" on="1"/>
        <pt x="137" y="1620" on="1"/>
        <pt x="262" y="1442" on="0"/>
        <pt x="379" y="1436" on="0"/>
        <pt x="528" y="1647" on="1"/>
        <pt x="590" y="1636" on="1"/>
        <pt x="350" y="1096" on="0"/>
      </contour>
    </TTGlyph>
    <TTGlyph name="brokenbar" xMin="90" yMin="-25" xMax="229" yMax="1855">
      <contour>
        <pt x="207" y="930" on="1"/>
        <pt x="213" y="502" on="1"/>
        <pt x="229" y="59" on="1"/>
        <pt x="229" y="33" on="0"/>
        <pt x="158" y="-25" on="1"/>
        <pt x="90" y="31" on="1"/>
        <pt x="119" y="102" on="0"/>
        <pt x="119" y="928" on="1"/>
      </contour>
      <contour>
        <pt x="111" y="1024" on="1"/>
        <pt x="121" y="1798" on="1"/>
        <pt x="147" y="1845" on="0"/>
        <pt x="154" y="1845" on="1"/>
        <pt x="201" y="1855" on="1"/>
        <pt x="205" y="1516" on="1"/>
        <pt x="201" y="1288" on="1"/>
        <pt x="190" y="1024" on="1"/>
      </contour>
    </TTGlyph>
    <TTGlyph name="bullet" xMin="115" yMin="438" xMax="360" yMax="696">
      <contour>
        <pt x="197" y="696" on="1"/>
        <pt x="326" y="719" on="0"/>
        <pt x="360" y="575" on="1"/>
        <pt x="317" y="418" on="0"/>
        <pt x="225" y="438" on="1"/>
        <pt x="141" y="475" on="0"/>
        <pt x="115" y="586" on="1"/>
        <pt x="115" y="641" on="0"/>
      </contour>
    </TTGlyph>
    <TTGlyph name="c" xMin="18" yMin="-25" xMax="586" yMax="1206">
      <contour>
        <pt x="365" y="1206" on="1"/>
        <pt x="406" y="1192" on="1"/>
        <pt x="406" y="1165" on="1"/>
        <pt x="129" y="979" on="0"/>
        <pt x="129" y="653" on="1"/>
        <pt x="117" y="528" on="1"/>
        <pt x="117" y="350" on="1"/>
        <pt x="117" y="137" on="0"/>
        <pt x="322" y="74" on="1"/>
        <pt x="487" y="74" on="0"/>
        <pt x="530" y="211" on="1"/>
        <pt x="571" y="211" on="1"/>
        <pt x="586" y="170" on="1"/>
        <pt x="586" y="20" on="0"/>
        <pt x="365" y="-25" on="1"/>
        <pt x="141" y="-25" on="0"/>
        <pt x="61" y="197" on="1"/>
        <pt x="18" y="309" on="0"/>
        <pt x="18" y="406" on="1"/>
        <pt x="18" y="502" on="1"/>
        <pt x="18" y="905" on="0"/>
        <pt x="227" y="1137" on="1"/>
      </contour>
    </TTGlyph>
    <TTGlyph name="cacute" xMin="18" yMin="-25" xMax="586" yMax="1696">
      <component glyphName="c" x="0" y="0" flags="0x1204"/>
      <component glyphName="acute" x="31" y="0" flags="0x1004"/>
    </TTGlyph>
    <TTGlyph name="caron" xMin="489" yMin="1364" xMax="950" yMax="1698">
      <contour>
        <pt x="692" y="1364" on="1"/>
        <pt x="641" y="1364" on="0"/>
        <pt x="489" y="1591" on="1"/>
        <pt x="489" y="1651" on="1"/>
        <pt x="504" y="1651" on="1"/>
        <pt x="559" y="1614" on="1"/>
        <pt x="688" y="1524" on="0"/>
        <pt x="692" y="1509" on="1"/>
        <pt x="709" y="1509" on="1"/>
        <pt x="739" y="1516" on="0"/>
        <pt x="795" y="1569" on="1"/>
        <pt x="813" y="1698" on="0"/>
        <pt x="950" y="1698" on="1"/>
        <pt x="932" y="1653" on="1"/>
        <pt x="778" y="1364" on="0"/>
        <pt x="721" y="1364" on="1"/>
      </contour>
    </TTGlyph>
    <TTGlyph name="ccaron" xMin="18" yMin="-25" xMax="586" yMax="1698">
      <component glyphName="c" x="0" y="0" flags="0x1204"/>
      <component glyphName="caron" x="-409" y="0" flags="0x1004"/>
    </TTGlyph>
    <TTGlyph name="ccedilla" xMin="18" yMin="-719" xMax="595" yMax="1206">
      <component glyphName="c" x="0" y="0" flags="0x1204"/>
      <component glyphName="cedilla" x="-169" y="0" flags="0x1004"/>
    </TTGlyph>
    <TTGlyph name="ccircumflex" xMin="18" yMin="-25" xMax="586" yMax="1741">
      <component glyphName="c" x="0" y="0" flags="0x1204"/>
      <component glyphName="circumflex" x="-110" y="0" flags="0x1004"/>
    </TTGlyph>
    <TTGlyph name="cdotaccent" xMin="18" yMin="-25" xMax="586" yMax="1620">
      <component glyphName="c" x="0" y="0" flags="0x1204"/>
      <component glyphName="dotaccent" x="199" y="0" flags="0x1004"/>
    </TTGlyph>
    <TTGlyph name="cedilla" xMin="225" yMin="-719" xMax="764" yMax="43">
      <contour>
        <pt x="514" y="43" on="1"/>
        <pt x="514" y="14" on="1"/>
        <pt x="514" y="-135" on="0"/>
        <pt x="750" y="-399" on="1"/>
        <pt x="764" y="-455" on="1"/>
        <pt x="664" y="-719" on="0"/>
        <pt x="377" y="-719" on="1"/>
        <pt x="225" y="-719" on="0"/>
        <pt x="225" y="-608" on="1"/>
        <pt x="391" y="-621" on="1"/>
        <pt x="446" y="-621" on="1"/>
        <pt x="639" y="-575" on="0"/>
        <pt x="639" y="-455" on="1"/>
        <pt x="639" y="-442" on="1"/>
        <pt x="639" y="-406" on="0"/>
        <pt x="446" y="-123" on="1"/>
        <pt x="403" y="27" on="1"/>
      </contour>
    </TTGlyph>
    <TTGlyph name="cent" xMin="18" yMin="-174" xMax="586" yMax="1577">
      <contour>
        <pt x="311" y="1565" on="1"/>
        <pt x="358" y="1577" on="1"/>
        <pt x="369" y="1516" on="1"/>
        <pt x="365" y="1288" on="1"/>
        <pt x="365" y="1206" on="1"/>
        <pt x="567" y="1223" on="1"/>
        <pt x="537" y="1143" on="1"/>
        <pt x="440" y="1128" on="0"/>
        <pt x="367" y="1085" on="1"/>
        <pt x="377" y="502" on="1"/>
        <pt x="365" y="225" on="1"/>
        <pt x="383" y="80" on="1"/>
        <pt x="496" y="100" on="0"/>
        <pt x="530" y="211" on="1"/>
        <pt x="571" y="211" on="1"/>
        <pt x="586" y="170" on="1"/>
        <pt x="586" y="29" on="0"/>
        <pt x="393" y="2" on="1"/>
        <pt x="406" y="-90" on="1"/>
        <pt x="406" y="-117" on="0"/>
        <pt x="338" y="-174" on="1"/>
        <pt x="266" y="-119" on="1"/>
        <pt x="270" y="-59" on="0"/>
        <pt x="272" y="0" on="1"/>
        <pt x="123" y="25" on="0"/>
        <pt x="61" y="197" on="1"/>
        <pt x="18" y="309" on="0"/>
        <pt x="18" y="406" on="1"/>
        <pt x="18" y="502" on="1"/>
        <pt x="18" y="905" on="0"/>
        <pt x="227" y="1137" on="1"/>
        <pt x="279" y="1163" on="1"/>
        <pt x="279" y="1520" on="1"/>
        <pt x="303" y="1565" on="0"/>
      </contour>
      <contour>
        <pt x="129" y="653" on="1"/>
        <pt x="117" y="528" on="1"/>
        <pt x="117" y="350" on="1"/>
        <pt x="117" y="160" on="0"/>
        <pt x="276" y="88" on="1"/>
        <pt x="283" y="205" on="0"/>
        <pt x="283" y="322" on="1"/>
        <pt x="283" y="348" on="1"/>
        <pt x="281" y="1020" on="1"/>
        <pt x="156" y="893" on="0"/>
      </contour>
    </TTGlyph>
    <TTGlyph name="circumflex" xMin="135" yMin="1354" xMax="674" yMax="1741">
      <contour>
        <pt x="393" y="1741" on="1"/>
        <pt x="420" y="1741" on="1"/>
        <pt x="477" y="1741" on="0"/>
        <pt x="674" y="1354" on="1"/>
        <pt x="555" y="1303" on="0"/>
        <pt x="537" y="1448" on="1"/>
        <pt x="438" y="1571" on="0"/>
        <pt x="408" y="1575" on="1"/>
        <pt x="393" y="1575" on="1"/>
        <pt x="309" y="1489" on="0"/>
        <pt x="203" y="1393" on="1"/>
        <pt x="147" y="1354" on="1"/>
        <pt x="135" y="1354" on="1"/>
        <pt x="135" y="1421" on="1"/>
        <pt x="340" y="1741" on="0"/>
      </contour>
    </TTGlyph>
    <TTGlyph name="colon" xMin="137" yMin="489" xMax="332" yMax="1042">
      <contour>
        <pt x="236" y="1042" on="1"/>
        <pt x="303" y="1024" on="0"/>
        <pt x="303" y="948" on="1"/>
        <pt x="303" y="932" on="1"/>
        <pt x="264" y="893" on="1"/>
        <pt x="248" y="893" on="1"/>
        <pt x="182" y="893" on="0"/>
        <pt x="137" y="961" on="1"/>
        <pt x="141" y="1004" on="0"/>
      </contour>
      <contour>
        <pt x="264" y="629" on="1"/>
        <pt x="332" y="612" on="0"/>
        <pt x="332" y="588" on="1"/>
        <pt x="332" y="545" on="1"/>
        <pt x="264" y="489" on="1"/>
        <pt x="193" y="508" on="0"/>
        <pt x="193" y="532" on="1"/>
        <pt x="193" y="610" on="0"/>
      </contour>
    </TTGlyph>
    <TTGlyph name="comma" xMin="139" yMin="-416" xMax="346" yMax="397">
      <contour>
        <pt x="264" y="397" on="1"/>
        <pt x="289" y="397" on="0"/>
        <pt x="346" y="330" on="1"/>
        <pt x="270" y="-416" on="0"/>
        <pt x="180" y="-416" on="1"/>
        <pt x="168" y="-416" on="1"/>
        <pt x="139" y="-416" on="0"/>
        <pt x="139" y="-377" on="1"/>
        <pt x="236" y="20" on="0"/>
        <pt x="236" y="193" on="1"/>
        <pt x="223" y="342" on="1"/>
        <pt x="264" y="385" on="1"/>
      </contour>
    </TTGlyph>
    <TTGlyph name="commaaccent" xMin="102" yMin="-498" xMax="229" yMax="-109">
      <contour>
        <pt x="229" y="-109" on="1"/>
        <pt x="358" y="-301" on="0"/>
        <pt x="143" y="-498" on="1"/>
        <pt x="131" y="-498" on="1"/>
        <pt x="102" y="-498" on="0"/>
        <pt x="102" y="-457" on="1"/>
        <pt x="272" y="-229" on="0"/>
        <pt x="180" y="-139" on="1"/>
      </contour>
    </TTGlyph>
    <TTGlyph name="copyright" xMin="68" yMin="29" xMax="917" yMax="1251">
      <contour>
        <pt x="674" y="729" on="1"/>
        <pt x="651" y="639" on="1"/>
        <pt x="424" y="934" on="0"/>
        <pt x="377" y="895" on="1"/>
        <pt x="362" y="770" on="1"/>
        <pt x="362" y="592" on="1"/>
        <pt x="362" y="377" on="0"/>
        <pt x="569" y="315" on="1"/>
        <pt x="678" y="362" on="0"/>
        <pt x="723" y="502" on="1"/>
        <pt x="764" y="502" on="1"/>
        <pt x="778" y="459" on="1"/>
        <pt x="760" y="305" on="0"/>
        <pt x="612" y="217" on="1"/>
        <pt x="389" y="217" on="0"/>
        <pt x="307" y="438" on="1"/>
        <pt x="266" y="551" on="0"/>
        <pt x="266" y="647" on="1"/>
        <pt x="266" y="743" on="1"/>
        <pt x="338" y="1266" on="0"/>
      </contour>
      <contour>
        <pt x="471" y="1251" on="1"/>
        <pt x="1022" y="1130" on="0"/>
        <pt x="811" y="-61" on="0"/>
        <pt x="369" y="29" on="1"/>
        <pt x="31" y="86" on="0"/>
        <pt x="68" y="672" on="1"/>
        <pt x="193" y="1120" on="0"/>
        <pt x="358" y="1272" on="0"/>
      </contour>
      <contour>
        <pt x="115" y="635" on="1"/>
        <pt x="166" y="117" on="0"/>
        <pt x="375" y="117" on="1"/>
        <pt x="831" y="76" on="0"/>
        <pt x="874" y="1141" on="0"/>
        <pt x="436" y="1188" on="1"/>
        <pt x="254" y="1188" on="0"/>
      </contour>
    </TTGlyph>
    <TTGlyph name="currency" xMin="119" yMin="35" xMax="776" yMax="1303">
      <contour>
        <pt x="709" y="1303" on="1"/>
        <pt x="776" y="1247" on="1"/>
        <pt x="696" y="1094" on="0"/>
        <pt x="639" y="956" on="1"/>
        <pt x="709" y="805" on="0"/>
        <pt x="709" y="506" on="0"/>
        <pt x="653" y="375" on="1"/>
        <pt x="766" y="129" on="1"/>
        <pt x="748" y="61" on="0"/>
        <pt x="725" y="61" on="1"/>
        <pt x="655" y="61" on="1"/>
        <pt x="655" y="168" on="0"/>
        <pt x="604" y="299" on="1"/>
        <pt x="539" y="227" on="0"/>
        <pt x="428" y="236" on="1"/>
        <pt x="414" y="236" on="1"/>
        <pt x="354" y="248" on="0"/>
        <pt x="311" y="297" on="1"/>
        <pt x="221" y="78" on="0"/>
        <pt x="188" y="47" on="1"/>
        <pt x="174" y="35" on="1"/>
        <pt x="119" y="47" on="0"/>
        <pt x="119" y="90" on="1"/>
        <pt x="152" y="53" on="0"/>
        <pt x="260" y="381" on="1"/>
        <pt x="207" y="514" on="0"/>
        <pt x="215" y="702" on="0"/>
        <pt x="248" y="840" on="1"/>
        <pt x="150" y="1094" on="0"/>
        <pt x="123" y="1120" on="1"/>
        <pt x="123" y="1163" on="1"/>
        <pt x="164" y="1204" on="1"/>
        <pt x="207" y="1204" on="1"/>
        <pt x="231" y="1204" on="0"/>
        <pt x="305" y="987" on="1"/>
        <pt x="377" y="1094" on="0"/>
        <pt x="516" y="1079" on="1"/>
        <pt x="549" y="1071" on="0"/>
        <pt x="578" y="1044" on="1"/>
        <pt x="664" y="1303" on="0"/>
      </contour>
      <contour>
        <pt x="342" y="768" on="1"/>
        <pt x="281" y="580" on="0"/>
        <pt x="406" y="416" on="1"/>
        <pt x="582" y="260" on="0"/>
        <pt x="612" y="637" on="1"/>
        <pt x="612" y="702" on="1"/>
        <pt x="584" y="905" on="0"/>
        <pt x="461" y="924" on="1"/>
        <pt x="358" y="866" on="0"/>
      </contour>
    </TTGlyph>
    <TTGlyph name="d" xMin="57" yMin="-43" xMax="645" yMax="1526">
      <contour>
        <pt x="514" y="1526" on="1"/>
        <pt x="592" y="1526" on="0"/>
        <pt x="610" y="1458" on="1"/>
        <pt x="582" y="1360" on="1"/>
        <pt x="616" y="-43" on="0"/>
        <pt x="645" y="-10" on="1"/>
        <pt x="600" y="-43" on="1"/>
        <pt x="543" y="-18" on="0"/>
        <pt x="539" y="-18" on="1"/>
        <pt x="526" y="559" on="1"/>
        <pt x="514" y="573" on="1"/>
        <pt x="500" y="573" on="1"/>
        <pt x="416" y="-8" on="0"/>
        <pt x="250" y="-8" on="1"/>
        <pt x="223" y="-8" on="1"/>
        <pt x="57" y="-8" on="0"/>
        <pt x="57" y="324" on="1"/>
        <pt x="57" y="565" on="0"/>
        <pt x="293" y="795" on="1"/>
        <pt x="487" y="840" on="0"/>
        <pt x="487" y="946" on="1"/>
        <pt x="487" y="1139" on="1"/>
        <pt x="459" y="1458" on="1"/>
        <pt x="485" y="1520" on="0"/>
      </contour>
      <contour>
        <pt x="168" y="379" on="1"/>
        <pt x="168" y="242" on="1"/>
        <pt x="168" y="135" on="0"/>
        <pt x="238" y="102" on="1"/>
        <pt x="250" y="102" on="1"/>
        <pt x="332" y="102" on="0"/>
        <pt x="444" y="711" on="1"/>
        <pt x="432" y="725" on="1"/>
        <pt x="377" y="725" on="1"/>
        <pt x="168" y="598" on="0"/>
      </contour>
    </TTGlyph>
    <TTGlyph name="dagger" xMin="227" yMin="-25" xMax="877" yMax="1855">
      <contour>
        <pt x="821" y="1305" on="1"/>
        <pt x="836" y="1305" on="1"/>
        <pt x="877" y="1264" on="1"/>
        <pt x="877" y="1223" on="1"/>
        <pt x="707" y="1204" on="0"/>
        <pt x="567" y="1182" on="1"/>
        <pt x="580" y="502" on="1"/>
        <pt x="565" y="225" on="1"/>
        <pt x="594" y="59" on="1"/>
        <pt x="594" y="33" on="0"/>
        <pt x="524" y="-25" on="1"/>
        <pt x="455" y="31" on="1"/>
        <pt x="483" y="102" on="0"/>
        <pt x="483" y="322" on="1"/>
        <pt x="483" y="348" on="1"/>
        <pt x="485" y="1169" on="1"/>
        <pt x="371" y="1149" on="0"/>
        <pt x="283" y="1126" on="1"/>
        <pt x="227" y="1167" on="1"/>
        <pt x="227" y="1237" on="1"/>
        <pt x="485" y="1266" on="1"/>
        <pt x="487" y="1798" on="1"/>
        <pt x="512" y="1845" on="0"/>
        <pt x="518" y="1845" on="1"/>
        <pt x="565" y="1855" on="1"/>
        <pt x="569" y="1516" on="1"/>
        <pt x="565" y="1288" on="1"/>
        <pt x="565" y="1276" on="1"/>
      </contour>
    </TTGlyph>
    <TTGlyph name="daggerdbl" xMin="197" yMin="-25" xMax="870" yMax="1855">
      <contour>
        <pt x="791" y="1323" on="1"/>
        <pt x="805" y="1323" on="1"/>
        <pt x="846" y="1280" on="1"/>
        <pt x="846" y="1241" on="1"/>
        <pt x="702" y="1225" on="0"/>
        <pt x="580" y="1206" on="1"/>
        <pt x="582" y="1067" on="1"/>
        <pt x="815" y="1096" on="1"/>
        <pt x="827" y="1096" on="1"/>
        <pt x="870" y="1053" on="1"/>
        <pt x="870" y="1012" on="1"/>
        <pt x="711" y="993" on="0"/>
        <pt x="580" y="973" on="1"/>
        <pt x="575" y="893" on="1"/>
        <pt x="594" y="59" on="1"/>
        <pt x="594" y="33" on="0"/>
        <pt x="524" y="-25" on="1"/>
        <pt x="455" y="31" on="1"/>
        <pt x="483" y="100" on="0"/>
        <pt x="492" y="958" on="1"/>
        <pt x="371" y="938" on="0"/>
        <pt x="274" y="913" on="1"/>
        <pt x="219" y="956" on="1"/>
        <pt x="219" y="1024" on="1"/>
        <pt x="492" y="1057" on="1"/>
        <pt x="489" y="1190" on="1"/>
        <pt x="356" y="1169" on="0"/>
        <pt x="252" y="1143" on="1"/>
        <pt x="197" y="1186" on="1"/>
        <pt x="197" y="1253" on="1"/>
        <pt x="489" y="1288" on="1"/>
        <pt x="487" y="1798" on="1"/>
        <pt x="512" y="1845" on="0"/>
        <pt x="518" y="1845" on="1"/>
        <pt x="565" y="1855" on="1"/>
        <pt x="569" y="1516" on="1"/>
        <pt x="565" y="1298" on="1"/>
      </contour>
    </TTGlyph>
    <TTGlyph name="dcaron" xMin="57" yMin="-43" xMax="897" yMax="1632">
      <component glyphName="d" x="0" y="0" flags="0x1004"/>
      <component glyphName="quoteright" x="651" y="0" flags="0x1004"/>
    </TTGlyph>
    <TTGlyph name="dcroat" xMin="57" yMin="-43" xMax="916" yMax="1526">
      <component glyphName="d" x="0" y="0" flags="0x1204"/>
      <component glyphName="hyphen" x="164" y="383" flags="0x1004"/>
    </TTGlyph>
    <TTGlyph name="degree" xMin="12" yMin="270" xMax="335" yMax="577">
      <component glyphName="o" x="-19" y="281" scalex="0.682373046875" scaley="0.273498535156" flags="0x1004"/>
    </TTGlyph>
    <TTGlyph name="dieresis" xMin="336" yMin="1481" xMax="807" yMax="1665">
      <contour>
        <pt x="395" y="1655" on="1"/>
        <pt x="436" y="1655" on="1"/>
        <pt x="496" y="1577" on="1"/>
        <pt x="496" y="1526" on="0"/>
        <pt x="422" y="1481" on="1"/>
        <pt x="362" y="1507" on="0"/>
        <pt x="336" y="1577" on="1"/>
      </contour>
      <contour>
        <pt x="707" y="1665" on="1"/>
        <pt x="748" y="1665" on="1"/>
        <pt x="807" y="1587" on="1"/>
        <pt x="807" y="1536" on="0"/>
        <pt x="733" y="1491" on="1"/>
        <pt x="674" y="1518" on="0"/>
        <pt x="647" y="1587" on="1"/>
      </contour>
    </TTGlyph>
    <TTGlyph name="divide" xMin="50" yMin="246" xMax="511" yMax="805">
      <component glyphName="colon" x="60" y="-247" scalex="0.952392578125" scaley="1.01000976562" flags="0x1004"/>
      <component glyphName="minus" x="-46" y="-228" flags="0x1004"/>
    </TTGlyph>
    <TTGlyph name="dollar" xMin="121" yMin="0" xMax="801" yMax="1815">
      <contour>
        <pt x="231" y="1815" on="1"/>
        <pt x="301" y="1796" on="0"/>
        <pt x="301" y="1774" on="1"/>
        <pt x="301" y="1718" on="1"/>
        <pt x="287" y="1520" on="0"/>
        <pt x="385" y="1520" on="1"/>
        <pt x="772" y="1427" on="0"/>
        <pt x="772" y="1161" on="1"/>
        <pt x="758" y="1118" on="1"/>
        <pt x="717" y="1118" on="1"/>
        <pt x="717" y="1309" on="0"/>
        <pt x="426" y="1438" on="1"/>
        <pt x="371" y="1438" on="1"/>
        <pt x="358" y="1423" on="1"/>
        <pt x="358" y="1409" on="1"/>
        <pt x="358" y="1059" on="0"/>
        <pt x="563" y="926" on="1"/>
        <pt x="801" y="682" on="0"/>
        <pt x="801" y="469" on="1"/>
        <pt x="801" y="358" on="0"/>
        <pt x="592" y="262" on="1"/>
        <pt x="524" y="248" on="1"/>
        <pt x="524" y="166" on="1"/>
        <pt x="537" y="72" on="0"/>
        <pt x="563" y="68" on="1"/>
        <pt x="539" y="6" on="0"/>
        <pt x="508" y="0" on="1"/>
        <pt x="496" y="0" on="1"/>
        <pt x="432" y="0" on="0"/>
        <pt x="414" y="248" on="1"/>
        <pt x="121" y="395" on="0"/>
        <pt x="121" y="635" on="1"/>
        <pt x="156" y="885" on="0"/>
        <pt x="205" y="885" on="1"/>
        <pt x="219" y="885" on="1"/>
        <pt x="231" y="842" on="1"/>
        <pt x="205" y="788" on="0"/>
        <pt x="205" y="690" on="1"/>
        <pt x="205" y="580" on="1"/>
        <pt x="262" y="387" on="0"/>
        <pt x="385" y="387" on="1"/>
        <pt x="385" y="399" on="1"/>
        <pt x="340" y="1161" on="0"/>
        <pt x="219" y="1161" on="1"/>
        <pt x="121" y="1313" on="1"/>
        <pt x="121" y="1354" on="1"/>
        <pt x="121" y="1423" on="0"/>
        <pt x="248" y="1505" on="1"/>
        <pt x="190" y="1786" on="1"/>
      </contour>
      <contour>
        <pt x="219" y="1354" on="1"/>
        <pt x="219" y="1327" on="1"/>
        <pt x="287" y="1243" on="1"/>
        <pt x="303" y="1243" on="1"/>
        <pt x="274" y="1382" on="1"/>
        <pt x="248" y="1382" on="1"/>
      </contour>
      <contour>
        <pt x="426" y="911" on="1"/>
        <pt x="426" y="885" on="1"/>
        <pt x="471" y="358" on="0"/>
        <pt x="508" y="358" on="1"/>
        <pt x="537" y="358" on="1"/>
        <pt x="690" y="391" on="0"/>
        <pt x="690" y="498" on="1"/>
        <pt x="690" y="539" on="1"/>
        <pt x="690" y="707" on="0"/>
        <pt x="453" y="911" on="1"/>
      </contour>
    </TTGlyph>
    <TTGlyph name="dotaccent" xMin="35" yMin="1399" xMax="213" yMax="1620">
      <contour>
        <pt x="119" y="1620" on="1"/>
        <pt x="205" y="1583" on="0"/>
        <pt x="213" y="1528" on="1"/>
        <pt x="213" y="1473" on="1"/>
        <pt x="186" y="1399" on="0"/>
        <pt x="145" y="1399" on="1"/>
        <pt x="63" y="1399" on="0"/>
        <pt x="35" y="1509" on="1"/>
        <pt x="35" y="1565" on="0"/>
      </contour>
    </TTGlyph>
    <TTGlyph name="dotlessi" xMin="53" yMin="-10" xMax="233" yMax="930">
      <contour>
        <pt x="164" y="930" on="1"/>
        <pt x="207" y="874" on="1"/>
        <pt x="152" y="819" on="0"/>
        <pt x="152" y="571" on="1"/>
        <pt x="158" y="309" on="0"/>
        <pt x="233" y="61" on="1"/>
        <pt x="233" y="33" on="1"/>
        <pt x="193" y="-10" on="1"/>
        <pt x="152" y="-10" on="1"/>
        <pt x="86" y="-10" on="0"/>
        <pt x="53" y="641" on="1"/>
        <pt x="53" y="930" on="0"/>
        <pt x="137" y="930" on="1"/>
      </contour>
    </TTGlyph>
    <TTGlyph name="e" xMin="18" yMin="-20" xMax="586" yMax="1155">
      <contour>
        <pt x="322" y="1155" on="1"/>
        <pt x="543" y="1090" on="0"/>
        <pt x="543" y="934" on="1"/>
        <pt x="543" y="893" on="1"/>
        <pt x="543" y="584" on="0"/>
        <pt x="266" y="465" on="1"/>
        <pt x="172" y="465" on="1"/>
        <pt x="172" y="436" on="1"/>
        <pt x="172" y="188" on="0"/>
        <pt x="295" y="90" on="1"/>
        <pt x="338" y="90" on="1"/>
        <pt x="416" y="90" on="0"/>
        <pt x="559" y="311" on="1"/>
        <pt x="571" y="299" on="1"/>
        <pt x="586" y="299" on="1"/>
        <pt x="487" y="-20" on="0"/>
        <pt x="309" y="-20" on="1"/>
        <pt x="147" y="-20" on="0"/>
        <pt x="45" y="547" on="1"/>
        <pt x="23" y="547" on="0"/>
        <pt x="18" y="616" on="1"/>
        <pt x="74" y="659" on="0"/>
        <pt x="117" y="975" on="1"/>
        <pt x="223" y="1155" on="0"/>
      </contour>
      <contour>
        <pt x="156" y="643" on="1"/>
        <pt x="168" y="575" on="0"/>
        <pt x="199" y="575" on="1"/>
        <pt x="283" y="575" on="1"/>
        <pt x="449" y="653" on="0"/>
        <pt x="449" y="893" on="1"/>
        <pt x="449" y="907" on="1"/>
        <pt x="428" y="1044" on="0"/>
        <pt x="322" y="1044" on="1"/>
        <pt x="156" y="1044" on="0"/>
      </contour>
    </TTGlyph>
    <TTGlyph name="eacute" xMin="18" yMin="-20" xMax="586" yMax="1696">
      <component glyphName="e" x="0" y="0" flags="0x1204"/>
      <component glyphName="acute" x="92" y="0" flags="0x1004"/>
    </TTGlyph>
    <TTGlyph name="ebreve" xMin="18" yMin="-20" xMax="606" yMax="1507">
      <component glyphName="e" x="0" y="0" flags="0x1204"/>
      <component glyphName="breve" x="16" y="-140" flags="0x1004"/>
    </TTGlyph>
    <TTGlyph name="ecaron" xMin="18" yMin="-20" xMax="586" yMax="1531">
      <component glyphName="e" x="0" y="0" flags="0x1204"/>
      <component glyphName="caron" x="-394" y="-167" flags="0x1004"/>
    </TTGlyph>
    <TTGlyph name="ecircumflex" xMin="18" yMin="-20" xMax="630" yMax="1472">
      <component glyphName="e" x="0" y="0" flags="0x1204"/>
      <component glyphName="circumflex" x="-44" y="-269" flags="0x1004"/>
    </TTGlyph>
    <TTGlyph name="edieresis" xMin="18" yMin="-20" xMax="586" yMax="1426">
      <component glyphName="e" x="0" y="0" flags="0x1204"/>
      <component glyphName="dieresis" x="-275" y="-239" flags="0x1004"/>
    </TTGlyph>
    <TTGlyph name="edotaccent" xMin="18" yMin="-20" xMax="586" yMax="1620">
      <component glyphName="e" x="0" y="0" flags="0x1204"/>
      <component glyphName="dotaccent" x="199" y="0" flags="0x1004"/>
    </TTGlyph>
    <TTGlyph name="egrave" xMin="-19" yMin="-20" xMax="586" yMax="1487">
      <component glyphName="e" x="0" y="0" flags="0x1204"/>
      <component glyphName="grave" x="-130" y="0" flags="0x1004"/>
    </TTGlyph>
    <TTGlyph name="eight" xMin="68" yMin="6" xMax="580" yMax="1581">
      <contour>
        <pt x="524" y="1581" on="1"/>
        <pt x="580" y="1567" on="0"/>
        <pt x="580" y="1499" on="1"/>
        <pt x="580" y="1427" on="1"/>
        <pt x="358" y="782" on="0"/>
        <pt x="358" y="696" on="1"/>
        <pt x="469" y="498" on="0"/>
        <pt x="510" y="322" on="1"/>
        <pt x="446" y="6" on="0"/>
        <pt x="248" y="6" on="1"/>
        <pt x="137" y="6" on="0"/>
        <pt x="137" y="172" on="1"/>
        <pt x="248" y="682" on="1"/>
        <pt x="119" y="913" on="0"/>
        <pt x="68" y="1194" on="1"/>
        <pt x="68" y="1413" on="0"/>
        <pt x="469" y="1538" on="1"/>
        <pt x="483" y="1554" on="1"/>
      </contour>
      <contour>
        <pt x="178" y="1180" on="1"/>
        <pt x="178" y="1167" on="1"/>
        <pt x="178" y="950" on="0"/>
        <pt x="276" y="848" on="1"/>
        <pt x="303" y="848" on="1"/>
        <pt x="442" y="1317" on="1"/>
        <pt x="442" y="1415" on="1"/>
        <pt x="428" y="1415" on="1"/>
        <pt x="178" y="1354" on="0"/>
      </contour>
      <contour>
        <pt x="233" y="143" on="1"/>
        <pt x="262" y="117" on="1"/>
        <pt x="383" y="117" on="0"/>
        <pt x="399" y="295" on="1"/>
        <pt x="399" y="350" on="1"/>
        <pt x="399" y="449" on="0"/>
        <pt x="317" y="559" on="1"/>
        <pt x="252" y="510" on="0"/>
      </contour>
    </TTGlyph>
    <TTGlyph name="ellipsis" xMin="182" yMin="0" xMax="1391" yMax="174">
      <contour>
        <pt x="242" y="174" on="1"/>
        <pt x="285" y="174" on="1"/>
        <pt x="342" y="96" on="1"/>
        <pt x="342" y="45" on="0"/>
        <pt x="268" y="0" on="1"/>
        <pt x="211" y="27" on="0"/>
        <pt x="182" y="96" on="1"/>
      </contour>
      <contour>
        <pt x="764" y="174" on="1"/>
        <pt x="809" y="174" on="1"/>
        <pt x="868" y="96" on="1"/>
        <pt x="868" y="45" on="0"/>
        <pt x="795" y="0" on="1"/>
        <pt x="733" y="27" on="0"/>
        <pt x="707" y="96" on="1"/>
      </contour>
      <contour>
        <pt x="1290" y="174" on="1"/>
        <pt x="1333" y="174" on="1"/>
        <pt x="1391" y="96" on="1"/>
        <pt x="1391" y="45" on="0"/>
        <pt x="1317" y="0" on="1"/>
        <pt x="1260" y="27" on="0"/>
        <pt x="1231" y="96" on="1"/>
      </contour>
    </TTGlyph>
    <TTGlyph name="emacron" xMin="18" yMin="-20" xMax="586" yMax="1374">
      <component glyphName="e" x="0" y="0" flags="0x1204"/>
      <component glyphName="macron" x="-9" y="0" flags="0x1004"/>
    </TTGlyph>
    <TTGlyph name="emdash" xMin="90" yMin="678" xMax="874" yMax="788">
      <contour>
        <pt x="819" y="786" on="1"/>
        <pt x="831" y="786" on="1"/>
        <pt x="874" y="745" on="1"/>
        <pt x="874" y="705" on="1"/>
        <pt x="350" y="713" on="0"/>
        <pt x="145" y="678" on="1"/>
        <pt x="90" y="719" on="1"/>
        <pt x="90" y="788" on="1"/>
      </contour>
    </TTGlyph>
    <TTGlyph name="endash" xMin="96" yMin="713" xMax="557" yMax="829">
      <contour>
        <pt x="512" y="813" on="1"/>
        <pt x="553" y="819" on="1"/>
        <pt x="557" y="713" on="1"/>
        <pt x="369" y="748" on="0"/>
        <pt x="96" y="733" on="1"/>
        <pt x="100" y="829" on="1"/>
      </contour>
    </TTGlyph>
    <TTGlyph name="eogonek" xMin="18" yMin="-360" xMax="586" yMax="1155">
      <component glyphName="e" x="0" y="0" flags="0x1204"/>
      <component glyphName="ogonek" x="209" y="0" flags="0x1004"/>
    </TTGlyph>
    <TTGlyph name="equal" xMin="188" yMin="248" xMax="860" yMax="655">
      <contour>
        <pt x="782" y="655" on="1"/>
        <pt x="797" y="655" on="1"/>
        <pt x="838" y="614" on="1"/>
        <pt x="838" y="573" on="1"/>
        <pt x="467" y="530" on="0"/>
        <pt x="244" y="475" on="1"/>
        <pt x="188" y="518" on="1"/>
        <pt x="188" y="586" on="1"/>
      </contour>
      <contour>
        <pt x="805" y="428" on="1"/>
        <pt x="819" y="428" on="1"/>
        <pt x="860" y="385" on="1"/>
        <pt x="860" y="344" on="1"/>
        <pt x="489" y="303" on="0"/>
        <pt x="266" y="248" on="1"/>
        <pt x="211" y="289" on="1"/>
        <pt x="211" y="358" on="1"/>
      </contour>
    </TTGlyph>
    <TTGlyph name="eth" xMin="92" yMin="-18" xMax="575" yMax="1354">
      <contour>
        <pt x="369" y="1139" on="1"/>
        <pt x="412" y="1208" on="0"/>
        <pt x="489" y="1354" on="1"/>
        <pt x="575" y="1313" on="1"/>
        <pt x="479" y="1102" on="1"/>
        <pt x="918" y="627" on="0"/>
        <pt x="457" y="-18" on="1"/>
        <pt x="135" y="-176" on="0"/>
        <pt x="92" y="434" on="1"/>
        <pt x="92" y="616" on="1"/>
        <pt x="92" y="686" on="0"/>
        <pt x="168" y="719" on="1"/>
        <pt x="442" y="719" on="0"/>
        <pt x="487" y="303" on="1"/>
        <pt x="711" y="694" on="0"/>
        <pt x="434" y="965" on="1"/>
        <pt x="373" y="784" on="1"/>
        <pt x="293" y="819" on="1"/>
        <pt x="346" y="1042" on="1"/>
        <pt x="319" y="1032" on="0"/>
        <pt x="125" y="1110" on="1"/>
        <pt x="150" y="1225" on="0"/>
        <pt x="188" y="1208" on="1"/>
      </contour>
      <contour>
        <pt x="395" y="266" on="1"/>
        <pt x="348" y="602" on="0"/>
        <pt x="246" y="602" on="1"/>
        <pt x="229" y="602" on="1"/>
        <pt x="184" y="594" on="0"/>
        <pt x="184" y="524" on="1"/>
        <pt x="184" y="422" on="1"/>
        <pt x="229" y="63" on="0"/>
        <pt x="305" y="45" on="1"/>
        <pt x="350" y="45" on="1"/>
        <pt x="385" y="45" on="0"/>
      </contour>
    </TTGlyph>
    <TTGlyph name="exclam" xMin="150" yMin="0" xMax="328" yMax="1907">
      <contour>
        <pt x="190" y="1907" on="1"/>
        <pt x="287" y="1851" on="1"/>
        <pt x="287" y="586" on="1"/>
        <pt x="272" y="567" on="1"/>
        <pt x="246" y="567" on="1"/>
        <pt x="190" y="606" on="0"/>
        <pt x="190" y="1118" on="1"/>
      </contour>
      <contour>
        <pt x="231" y="219" on="1"/>
        <pt x="319" y="182" on="0"/>
        <pt x="328" y="127" on="1"/>
        <pt x="328" y="74" on="1"/>
        <pt x="301" y="0" on="0"/>
        <pt x="260" y="0" on="1"/>
        <pt x="176" y="0" on="0"/>
        <pt x="150" y="109" on="1"/>
        <pt x="150" y="164" on="0"/>
      </contour>
    </TTGlyph>
    <TTGlyph name="exclamdown" xMin="200" yMin="-137" xMax="372" yMax="1549">
      <component glyphName="exclam" x="57" y="1549" scalex="0.958984375" scaley="-0.883483886719" flags="0x1004"/>
    </TTGlyph>
    <TTGlyph name="f" xMin="-59" yMin="-25" xMax="770" yMax="1538">
      <contour>
        <pt x="549" y="1538" on="1"/>
        <pt x="770" y="1530" on="0"/>
        <pt x="770" y="1483" on="1"/>
        <pt x="770" y="1456" on="1"/>
        <pt x="756" y="1442" on="1"/>
        <pt x="715" y="1427" on="1"/>
        <pt x="715" y="1413" on="1"/>
        <pt x="700" y="1427" on="1"/>
        <pt x="535" y="1427" on="1"/>
        <pt x="313" y="1427" on="0"/>
        <pt x="272" y="1026" on="1"/>
        <pt x="272" y="764" on="1"/>
        <pt x="285" y="764" on="1"/>
        <pt x="434" y="788" on="0"/>
        <pt x="590" y="860" on="1"/>
        <pt x="604" y="848" on="1"/>
        <pt x="604" y="819" on="1"/>
        <pt x="590" y="756" on="0"/>
        <pt x="272" y="668" on="1"/>
        <pt x="285" y="225" on="1"/>
        <pt x="285" y="100" on="1"/>
        <pt x="285" y="-4" on="0"/>
        <pt x="229" y="-25" on="1"/>
        <pt x="217" y="-25" on="1"/>
        <pt x="174" y="31" on="1"/>
        <pt x="203" y="170" on="1"/>
        <pt x="190" y="612" on="1"/>
        <pt x="174" y="653" on="1"/>
        <pt x="147" y="653" on="1"/>
        <pt x="-23" y="653" on="0"/>
        <pt x="-59" y="709" on="1"/>
        <pt x="-31" y="793" on="0"/>
        <pt x="-4" y="793" on="1"/>
        <pt x="25" y="793" on="1"/>
        <pt x="135" y="764" on="1"/>
        <pt x="147" y="764" on="1"/>
        <pt x="178" y="764" on="0"/>
        <pt x="174" y="971" on="1"/>
        <pt x="227" y="1538" on="0"/>
      </contour>
    </TTGlyph>
    <TTGlyph name="fi" xMin="-59" yMin="-25" xMax="786" yMax="1538">
      <component glyphName="f" x="0" y="0" flags="0x1004"/>
      <component glyphName="i" x="524" y="0" flags="0x1004"/>
    </TTGlyph>
    <TTGlyph name="five" xMin="62" yMin="49" xMax="690" yMax="1628">
      <contour>
        <pt x="662" y="1628" on="1"/>
        <pt x="690" y="1599" on="1"/>
        <pt x="690" y="1585" on="1"/>
        <pt x="616" y="1466" on="0"/>
        <pt x="205" y="1335" on="1"/>
        <pt x="137" y="1202" on="0"/>
        <pt x="137" y="881" on="1"/>
        <pt x="150" y="756" on="1"/>
        <pt x="164" y="756" on="1"/>
        <pt x="315" y="782" on="1"/>
        <pt x="330" y="782" on="1"/>
        <pt x="551" y="782" on="0"/>
        <pt x="592" y="451" on="1"/>
        <pt x="592" y="438" on="1"/>
        <pt x="428" y="102" on="0"/>
        <pt x="137" y="-4" on="0"/>
        <pt x="66" y="147" on="1"/>
        <pt x="66" y="174" on="1"/>
        <pt x="82" y="190" on="1"/>
        <pt x="82" y="203" on="1"/>
        <pt x="109" y="203" on="0"/>
        <pt x="193" y="100" on="1"/>
        <pt x="387" y="143" on="0"/>
        <pt x="496" y="451" on="1"/>
        <pt x="496" y="479" on="1"/>
        <pt x="471" y="688" on="0"/>
        <pt x="330" y="688" on="1"/>
        <pt x="281" y="688" on="0"/>
        <pt x="109" y="604" on="1"/>
        <pt x="63" y="604" on="0"/>
        <pt x="61" y="1364" on="0"/>
        <pt x="121" y="1364" on="1"/>
        <pt x="121" y="1462" on="0"/>
        <pt x="231" y="1462" on="1"/>
        <pt x="340" y="1462" on="0"/>
      </contour>
    </TTGlyph>
    <TTGlyph name="fl" xMin="-59" yMin="-25" xMax="770" yMax="1626">
      <component glyphName="f" x="0" y="0" flags="0x1004"/>
      <component glyphName="l" x="524" y="0" flags="0x1004"/>
    </TTGlyph>
    <TTGlyph name="florin" xMin="-96" yMin="-406" xMax="770" yMax="1538">
      <contour>
        <pt x="549" y="1538" on="1"/>
        <pt x="770" y="1530" on="0"/>
        <pt x="770" y="1483" on="1"/>
        <pt x="770" y="1456" on="1"/>
        <pt x="756" y="1442" on="1"/>
        <pt x="715" y="1427" on="1"/>
        <pt x="715" y="1413" on="1"/>
        <pt x="700" y="1427" on="1"/>
        <pt x="535" y="1427" on="1"/>
        <pt x="313" y="1427" on="0"/>
        <pt x="272" y="1026" on="1"/>
        <pt x="272" y="764" on="1"/>
        <pt x="285" y="764" on="1"/>
        <pt x="434" y="788" on="0"/>
        <pt x="590" y="860" on="1"/>
        <pt x="604" y="848" on="1"/>
        <pt x="604" y="819" on="1"/>
        <pt x="590" y="756" on="0"/>
        <pt x="272" y="668" on="1"/>
        <pt x="250" y="-387" on="1"/>
        <pt x="-96" y="-406" on="1"/>
        <pt x="-152" y="-295" on="0"/>
        <pt x="166" y="-287" on="1"/>
        <pt x="190" y="612" on="1"/>
        <pt x="174" y="653" on="1"/>
        <pt x="147" y="653" on="1"/>
        <pt x="-23" y="653" on="0"/>
        <pt x="-59" y="709" on="1"/>
        <pt x="-31" y="793" on="0"/>
        <pt x="-4" y="793" on="1"/>
        <pt x="25" y="793" on="1"/>
        <pt x="135" y="764" on="1"/>
        <pt x="147" y="764" on="1"/>
        <pt x="178" y="764" on="0"/>
        <pt x="174" y="971" on="1"/>
        <pt x="227" y="1538" on="0"/>
      </contour>
    </TTGlyph>
    <TTGlyph name="four" xMin="55" yMin="-6" xMax="455" yMax="1653">
      <contour>
        <pt x="414" y="1653" on="1"/>
        <pt x="446" y="1653" on="0"/>
        <pt x="455" y="1583" on="1"/>
        <pt x="428" y="1307" on="1"/>
        <pt x="428" y="686" on="1"/>
        <pt x="442" y="686" on="1"/>
        <pt x="553" y="657" on="0"/>
        <pt x="414" y="520" on="1"/>
        <pt x="414" y="367" on="1"/>
        <pt x="399" y="145" on="1"/>
        <pt x="442" y="78" on="1"/>
        <pt x="414" y="-6" on="0"/>
        <pt x="387" y="-6" on="1"/>
        <pt x="358" y="-6" on="1"/>
        <pt x="303" y="23" on="0"/>
        <pt x="303" y="78" on="1"/>
        <pt x="322" y="498" on="1"/>
        <pt x="123" y="477" on="1"/>
        <pt x="68" y="520" on="1"/>
        <pt x="82" y="1358" on="0"/>
        <pt x="55" y="1432" on="1"/>
        <pt x="78" y="1501" on="0"/>
        <pt x="123" y="1501" on="1"/>
        <pt x="160" y="1501" on="0"/>
        <pt x="193" y="1432" on="1"/>
        <pt x="166" y="1350" on="1"/>
        <pt x="178" y="631" on="1"/>
        <pt x="221" y="588" on="1"/>
        <pt x="289" y="588" on="1"/>
        <pt x="332" y="631" on="1"/>
        <pt x="332" y="1653" on="0"/>
      </contour>
    </TTGlyph>
    <TTGlyph name="fraction" xMin="121" yMin="6" xMax="592" yMax="1485">
      <contour>
        <pt x="563" y="1485" on="1"/>
        <pt x="592" y="1485" on="1"/>
        <pt x="592" y="1458" on="1"/>
        <pt x="453" y="692" on="0"/>
        <pt x="260" y="158" on="1"/>
        <pt x="231" y="158" on="0"/>
        <pt x="231" y="33" on="1"/>
        <pt x="193" y="6" on="1"/>
        <pt x="121" y="20" on="1"/>
        <pt x="121" y="76" on="1"/>
        <pt x="322" y="477" on="0"/>
        <pt x="496" y="1348" on="1"/>
        <pt x="496" y="1444" on="0"/>
      </contour>
    </TTGlyph>
    <TTGlyph name="g" xMin="25" yMin="-918" xMax="659" yMax="1114">
      <contour>
        <pt x="590" y="1114" on="1"/>
        <pt x="616" y="1114" on="1"/>
        <pt x="659" y="1073" on="1"/>
        <pt x="659" y="1004" on="1"/>
        <pt x="561" y="819" on="0"/>
        <pt x="561" y="547" on="1"/>
        <pt x="578" y="-268" on="1"/>
        <pt x="578" y="-891" on="0"/>
        <pt x="383" y="-891" on="1"/>
        <pt x="383" y="-918" on="0"/>
        <pt x="313" y="-918" on="1"/>
        <pt x="147" y="-883" on="0"/>
        <pt x="147" y="-766" on="1"/>
        <pt x="147" y="-752" on="1"/>
        <pt x="174" y="-752" on="1"/>
        <pt x="266" y="-821" on="0"/>
        <pt x="328" y="-821" on="1"/>
        <pt x="479" y="-821" on="0"/>
        <pt x="479" y="-365" on="1"/>
        <pt x="479" y="311" on="1"/>
        <pt x="467" y="410" on="1"/>
        <pt x="438" y="410" on="1"/>
        <pt x="334" y="23" on="0"/>
        <pt x="135" y="23" on="1"/>
        <pt x="119" y="23" on="1"/>
        <pt x="72" y="29" on="0"/>
        <pt x="25" y="229" on="1"/>
        <pt x="25" y="645" on="0"/>
        <pt x="285" y="963" on="1"/>
        <pt x="494" y="1044" on="1"/>
        <pt x="494" y="1114" on="0"/>
      </contour>
      <contour>
        <pt x="135" y="395" on="1"/>
        <pt x="135" y="174" on="1"/>
        <pt x="135" y="133" on="0"/>
        <pt x="190" y="133" on="1"/>
        <pt x="303" y="133" on="0"/>
        <pt x="467" y="797" on="1"/>
        <pt x="467" y="920" on="1"/>
        <pt x="231" y="920" on="0"/>
        <pt x="147" y="506" on="1"/>
      </contour>
    </TTGlyph>
    <TTGlyph name="gbreve" xMin="25" yMin="-918" xMax="659" yMax="1396">
      <component glyphName="g" x="0" y="0" flags="0x1204"/>
      <component glyphName="breve" x="41" y="-251" flags="0x1004"/>
    </TTGlyph>
    <TTGlyph name="gcircumflex" xMin="25" yMin="-918" xMax="828" yMax="1500">
      <component glyphName="g" x="0" y="0" flags="0x1204"/>
      <component glyphName="circumflex" x="154" y="-241" flags="0x1004"/>
    </TTGlyph>
    <TTGlyph name="gcommaaccent" xMin="25" yMin="-918" xMax="659" yMax="1708">
      <component glyphName="g" x="0" y="0" flags="0x1204"/>
      <component glyphName="quoteleft" x="350" y="76" flags="0x1004"/>
    </TTGlyph>
    <TTGlyph name="gdotaccent" xMin="25" yMin="-918" xMax="659" yMax="1620">
      <component glyphName="g" x="0" y="0" flags="0x1204"/>
      <component glyphName="dotaccent" x="223" y="0" flags="0x1004"/>
    </TTGlyph>
    <TTGlyph name="germandbls" xMin="-33" yMin="-440" xMax="733" yMax="1763">
      <contour>
        <pt x="190" y="199" on="1"/>
        <pt x="494" y="-8" on="0"/>
        <pt x="596" y="616" on="1"/>
        <pt x="623" y="948" on="0"/>
        <pt x="512" y="948" on="1"/>
        <pt x="371" y="897" on="0"/>
        <pt x="289" y="844" on="1"/>
        <pt x="262" y="991" on="1"/>
        <pt x="553" y="1303" on="0"/>
        <pt x="553" y="1585" on="1"/>
        <pt x="526" y="1649" on="0"/>
        <pt x="498" y="1653" on="1"/>
        <pt x="358" y="1653" on="0"/>
        <pt x="193" y="1446" on="1"/>
        <pt x="180" y="1018" on="1"/>
        <pt x="166" y="608" on="0"/>
        <pt x="98" y="-354" on="1"/>
        <pt x="55" y="-502" on="0"/>
        <pt x="-33" y="-440" on="1"/>
        <pt x="35" y="-250" on="0"/>
        <pt x="117" y="1548" on="1"/>
        <pt x="276" y="1667" on="1"/>
        <pt x="403" y="1747" on="0"/>
        <pt x="512" y="1763" on="1"/>
        <pt x="631" y="1763" on="0"/>
        <pt x="664" y="1585" on="1"/>
        <pt x="664" y="1473" on="0"/>
        <pt x="457" y="1059" on="1"/>
        <pt x="457" y="1044" on="1"/>
        <pt x="580" y="1059" on="1"/>
        <pt x="684" y="1059" on="0"/>
        <pt x="733" y="838" on="1"/>
        <pt x="713" y="293" on="0"/>
        <pt x="485" y="82" on="1"/>
        <pt x="352" y="-27" on="0"/>
        <pt x="188" y="47" on="1"/>
      </contour>
    </TTGlyph>
    <TTGlyph name="grave" xMin="111" yMin="1231" xMax="635" yMax="1487">
      <contour>
        <pt x="135" y="1487" on="1"/>
        <pt x="205" y="1536" on="0"/>
        <pt x="635" y="1319" on="1"/>
        <pt x="524" y="1231" on="1"/>
        <pt x="111" y="1409" on="1"/>
      </contour>
    </TTGlyph>
    <TTGlyph name="greater" xMin="78" yMin="387" xMax="686" yMax="1243">
      <contour>
        <pt x="133" y="1243" on="1"/>
        <pt x="174" y="1243" on="0"/>
        <pt x="367" y="1038" on="1"/>
        <pt x="686" y="899" on="0"/>
        <pt x="686" y="774" on="1"/>
        <pt x="686" y="707" on="0"/>
        <pt x="367" y="457" on="1"/>
        <pt x="367" y="426" on="0"/>
        <pt x="270" y="387" on="1"/>
        <pt x="174" y="414" on="1"/>
        <pt x="174" y="469" on="1"/>
        <pt x="174" y="516" on="0"/>
        <pt x="354" y="567" on="1"/>
        <pt x="561" y="717" on="0"/>
        <pt x="561" y="801" on="1"/>
        <pt x="78" y="1133" on="1"/>
        <pt x="78" y="1188" on="1"/>
        <pt x="78" y="1225" on="0"/>
        <pt x="133" y="1231" on="1"/>
      </contour>
    </TTGlyph>
    <TTGlyph name="guillemotleft" xMin="119" yMin="285" xMax="1040" yMax="1094">
      <contour>
        <pt x="643" y="1044" on="1"/>
        <pt x="698" y="1032" on="0"/>
        <pt x="698" y="989" on="1"/>
        <pt x="698" y="965" on="0"/>
        <pt x="340" y="686" on="1"/>
        <pt x="326" y="616" on="1"/>
        <pt x="698" y="369" on="1"/>
        <pt x="698" y="326" on="1"/>
        <pt x="657" y="285" on="1"/>
        <pt x="618" y="285" on="0"/>
        <pt x="326" y="492" on="1"/>
        <pt x="287" y="520" on="0"/>
        <pt x="145" y="535" on="1"/>
        <pt x="119" y="590" on="1"/>
        <pt x="119" y="657" on="0"/>
        <pt x="256" y="700" on="1"/>
        <pt x="336" y="819" on="0"/>
      </contour>
      <contour>
        <pt x="985" y="1094" on="1"/>
        <pt x="1040" y="1079" on="0"/>
        <pt x="1040" y="1038" on="1"/>
        <pt x="1040" y="1012" on="0"/>
        <pt x="682" y="733" on="1"/>
        <pt x="670" y="666" on="1"/>
        <pt x="1040" y="416" on="1"/>
        <pt x="1040" y="375" on="1"/>
        <pt x="1001" y="334" on="1"/>
        <pt x="963" y="334" on="0"/>
        <pt x="670" y="541" on="1"/>
        <pt x="631" y="567" on="0"/>
        <pt x="487" y="582" on="1"/>
        <pt x="461" y="637" on="1"/>
        <pt x="461" y="707" on="0"/>
        <pt x="598" y="748" on="1"/>
        <pt x="678" y="866" on="0"/>
      </contour>
    </TTGlyph>
    <TTGlyph name="guillemotright" xMin="78" yMin="317" xMax="1079" yMax="1253">
      <contour>
        <pt x="158" y="1227" on="1"/>
        <pt x="686" y="899" on="0"/>
        <pt x="686" y="774" on="1"/>
        <pt x="686" y="707" on="0"/>
        <pt x="201" y="317" on="1"/>
        <pt x="119" y="387" on="1"/>
        <pt x="137" y="438" on="0"/>
        <pt x="561" y="717" on="0"/>
        <pt x="561" y="801" on="1"/>
        <pt x="78" y="1133" on="1"/>
        <pt x="78" y="1188" on="1"/>
        <pt x="78" y="1225" on="0"/>
        <pt x="133" y="1231" on="1"/>
      </contour>
      <contour>
        <pt x="526" y="1253" on="1"/>
        <pt x="567" y="1253" on="0"/>
        <pt x="1079" y="907" on="0"/>
        <pt x="1079" y="782" on="1"/>
        <pt x="1079" y="713" on="0"/>
        <pt x="690" y="365" on="0"/>
        <pt x="596" y="326" on="1"/>
        <pt x="522" y="373" on="1"/>
        <pt x="561" y="414" on="0"/>
        <pt x="954" y="725" on="0"/>
        <pt x="954" y="811" on="1"/>
        <pt x="471" y="1143" on="1"/>
        <pt x="471" y="1198" on="1"/>
        <pt x="471" y="1233" on="0"/>
      </contour>
    </TTGlyph>
    <TTGlyph name="guilsinglleft" xMin="119" yMin="285" xMax="698" yMax="1044">
      <contour>
        <pt x="643" y="1044" on="1"/>
        <pt x="698" y="1032" on="0"/>
        <pt x="698" y="989" on="1"/>
        <pt x="698" y="965" on="0"/>
        <pt x="340" y="686" on="1"/>
        <pt x="326" y="616" on="1"/>
        <pt x="698" y="369" on="1"/>
        <pt x="698" y="326" on="1"/>
        <pt x="657" y="285" on="1"/>
        <pt x="618" y="285" on="0"/>
        <pt x="326" y="492" on="1"/>
        <pt x="287" y="520" on="0"/>
        <pt x="145" y="535" on="1"/>
        <pt x="119" y="590" on="1"/>
        <pt x="119" y="657" on="0"/>
        <pt x="256" y="700" on="1"/>
        <pt x="336" y="819" on="0"/>
      </contour>
    </TTGlyph>
    <TTGlyph name="guilsinglright" xMin="78" yMin="387" xMax="686" yMax="1243">
      <contour>
        <pt x="133" y="1243" on="1"/>
        <pt x="174" y="1243" on="0"/>
        <pt x="367" y="1038" on="1"/>
        <pt x="686" y="899" on="0"/>
        <pt x="686" y="774" on="1"/>
        <pt x="686" y="707" on="0"/>
        <pt x="367" y="457" on="1"/>
        <pt x="367" y="426" on="0"/>
        <pt x="270" y="387" on="1"/>
        <pt x="174" y="414" on="1"/>
        <pt x="174" y="469" on="1"/>
        <pt x="174" y="516" on="0"/>
        <pt x="354" y="567" on="1"/>
        <pt x="561" y="717" on="0"/>
        <pt x="561" y="801" on="1"/>
        <pt x="78" y="1133" on="1"/>
        <pt x="78" y="1188" on="1"/>
        <pt x="78" y="1225" on="0"/>
        <pt x="133" y="1231" on="1"/>
      </contour>
    </TTGlyph>
    <TTGlyph name="h" xMin="8" yMin="-53" xMax="672" yMax="1647">
      <contour>
        <pt x="92" y="1647" on="1"/>
        <pt x="133" y="1647" on="1"/>
        <pt x="174" y="1606" on="1"/>
        <pt x="174" y="1591" on="1"/>
        <pt x="147" y="1481" on="1"/>
        <pt x="147" y="1384" on="1"/>
        <pt x="174" y="692" on="1"/>
        <pt x="188" y="651" on="1"/>
        <pt x="215" y="651" on="1"/>
        <pt x="307" y="997" on="0"/>
        <pt x="492" y="997" on="1"/>
        <pt x="625" y="997" on="0"/>
        <pt x="645" y="236" on="1"/>
        <pt x="672" y="84" on="1"/>
        <pt x="631" y="14" on="1"/>
        <pt x="559" y="14" on="0"/>
        <pt x="547" y="154" on="1"/>
        <pt x="547" y="250" on="1"/>
        <pt x="547" y="872" on="0"/>
        <pt x="436" y="872" on="1"/>
        <pt x="266" y="807" on="0"/>
        <pt x="229" y="209" on="1"/>
        <pt x="238" y="14" on="0"/>
        <pt x="258" y="14" on="1"/>
        <pt x="229" y="-47" on="0"/>
        <pt x="203" y="-53" on="1"/>
        <pt x="160" y="-53" on="1"/>
        <pt x="92" y="-14" on="0"/>
        <pt x="92" y="57" on="1"/>
        <pt x="119" y="125" on="1"/>
        <pt x="61" y="1550" on="0"/>
        <pt x="8" y="1550" on="1"/>
        <pt x="31" y="1612" on="0"/>
      </contour>
    </TTGlyph>
    <TTGlyph name="hbar" xMin="-77" yMin="-53" xMax="672" yMax="1647">
      <component glyphName="h" x="0" y="0" flags="0x1204"/>
      <component glyphName="macron" x="-179" y="-198" flags="0x1004"/>
    </TTGlyph>
    <TTGlyph name="hcircumflex" xMin="8" yMin="-53" xMax="830" yMax="1647">
      <component glyphName="h" x="0" y="0" flags="0x1204"/>
      <component glyphName="circumflex" x="156" y="-271" flags="0x1004"/>
    </TTGlyph>
    <TTGlyph name="hungarumlaut" xMin="96" yMin="1243" xMax="580" yMax="1667">
      <contour>
        <pt x="154" y="1282" on="1"/>
        <pt x="96" y="1376" on="1"/>
        <pt x="299" y="1636" on="0"/>
        <pt x="303" y="1667" on="1"/>
        <pt x="373" y="1593" on="1"/>
      </contour>
      <contour>
        <pt x="362" y="1243" on="1"/>
        <pt x="303" y="1335" on="1"/>
        <pt x="506" y="1595" on="0"/>
        <pt x="512" y="1630" on="1"/>
        <pt x="580" y="1556" on="1"/>
      </contour>
    </TTGlyph>
    <TTGlyph name="hyphen" xMin="100" yMin="719" xMax="752" yMax="897">
      <contour>
        <pt x="696" y="897" on="1"/>
        <pt x="709" y="897" on="1"/>
        <pt x="752" y="856" on="1"/>
        <pt x="752" y="815" on="1"/>
        <pt x="381" y="774" on="0"/>
        <pt x="156" y="719" on="1"/>
        <pt x="100" y="760" on="1"/>
        <pt x="100" y="829" on="1"/>
      </contour>
    </TTGlyph>
    <TTGlyph name="i" xMin="53" yMin="-10" xMax="262" yMax="1290">
      <contour>
        <pt x="164" y="1290" on="1"/>
        <pt x="217" y="1290" on="0"/>
        <pt x="262" y="1235" on="1"/>
        <pt x="262" y="1194" on="0"/>
        <pt x="164" y="1139" on="1"/>
        <pt x="127" y="1139" on="0"/>
        <pt x="96" y="1206" on="1"/>
        <pt x="123" y="1282" on="0"/>
      </contour>
      <contour>
        <pt x="164" y="930" on="1"/>
        <pt x="207" y="874" on="1"/>
        <pt x="152" y="819" on="0"/>
        <pt x="152" y="571" on="1"/>
        <pt x="158" y="309" on="0"/>
        <pt x="233" y="61" on="1"/>
        <pt x="233" y="33" on="1"/>
        <pt x="193" y="-10" on="1"/>
        <pt x="152" y="-10" on="1"/>
        <pt x="86" y="-10" on="0"/>
        <pt x="53" y="641" on="1"/>
        <pt x="53" y="930" on="0"/>
        <pt x="137" y="930" on="1"/>
      </contour>
    </TTGlyph>
    <TTGlyph name="iacute" xMin="-195" yMin="-10" xMax="481" yMax="1520">
      <contour>
        <pt x="164" y="930" on="1"/>
        <pt x="207" y="874" on="1"/>
        <pt x="152" y="819" on="0"/>
        <pt x="152" y="571" on="1"/>
        <pt x="158" y="309" on="0"/>
        <pt x="233" y="61" on="1"/>
        <pt x="233" y="33" on="1"/>
        <pt x="193" y="-10" on="1"/>
        <pt x="152" y="-10" on="1"/>
        <pt x="86" y="-10" on="0"/>
        <pt x="53" y="641" on="1"/>
        <pt x="53" y="930" on="0"/>
        <pt x="137" y="930" on="1"/>
      </contour>
      <contour>
        <pt x="373" y="1391" on="1"/>
        <pt x="340" y="1403" on="0"/>
        <pt x="-86" y="1161" on="0"/>
        <pt x="-195" y="1214" on="1"/>
        <pt x="-162" y="1255" on="1"/>
        <pt x="-74" y="1278" on="1"/>
        <pt x="408" y="1546" on="0"/>
        <pt x="457" y="1520" on="1"/>
        <pt x="481" y="1503" on="1"/>
      </contour>
    </TTGlyph>
    <TTGlyph name="ibreve" xMin="-66" yMin="-10" xMax="426" yMax="1352">
      <contour>
        <pt x="164" y="930" on="1"/>
        <pt x="207" y="874" on="1"/>
        <pt x="152" y="819" on="0"/>
        <pt x="152" y="571" on="1"/>
        <pt x="158" y="309" on="0"/>
        <pt x="233" y="61" on="1"/>
        <pt x="233" y="33" on="1"/>
        <pt x="193" y="-10" on="1"/>
        <pt x="152" y="-10" on="1"/>
        <pt x="86" y="-10" on="0"/>
        <pt x="53" y="641" on="1"/>
        <pt x="53" y="930" on="0"/>
        <pt x="137" y="930" on="1"/>
      </contour>
      <contour>
        <pt x="-66" y="1282" on="1"/>
        <pt x="-27" y="1325" on="1"/>
        <pt x="98" y="1147" on="0"/>
        <pt x="215" y="1141" on="0"/>
        <pt x="365" y="1352" on="1"/>
        <pt x="426" y="1341" on="1"/>
        <pt x="186" y="801" on="0"/>
      </contour>
    </TTGlyph>
    <TTGlyph name="icircumflex" xMin="-80" yMin="-10" xMax="479" yMax="1610">
      <contour>
        <pt x="164" y="930" on="1"/>
        <pt x="207" y="874" on="1"/>
        <pt x="152" y="819" on="0"/>
        <pt x="152" y="571" on="1"/>
        <pt x="158" y="309" on="0"/>
        <pt x="233" y="61" on="1"/>
        <pt x="233" y="33" on="1"/>
        <pt x="193" y="-10" on="1"/>
        <pt x="152" y="-10" on="1"/>
        <pt x="86" y="-10" on="0"/>
        <pt x="53" y="641" on="1"/>
        <pt x="53" y="930" on="0"/>
        <pt x="137" y="930" on="1"/>
      </contour>
      <contour>
        <pt x="170" y="1610" on="1"/>
        <pt x="197" y="1610" on="1"/>
        <pt x="254" y="1610" on="0"/>
        <pt x="461" y="1096" on="1"/>
        <pt x="479" y="1047" on="1"/>
        <pt x="340" y="1047" on="0"/>
        <pt x="322" y="1194" on="1"/>
        <pt x="215" y="1438" on="0"/>
        <pt x="184" y="1444" on="1"/>
        <pt x="170" y="1444" on="1"/>
        <pt x="86" y="1356" on="0"/>
        <pt x="-10" y="1139" on="1"/>
        <pt x="-66" y="1096" on="1"/>
        <pt x="-80" y="1096" on="1"/>
        <pt x="-80" y="1167" on="1"/>
        <pt x="119" y="1610" on="0"/>
      </contour>
    </TTGlyph>
    <TTGlyph name="idieresis" xMin="-94" yMin="-10" xMax="379" yMax="1280">
      <contour>
        <pt x="164" y="930" on="1"/>
        <pt x="207" y="874" on="1"/>
        <pt x="152" y="819" on="0"/>
        <pt x="152" y="571" on="1"/>
        <pt x="158" y="309" on="0"/>
        <pt x="233" y="61" on="1"/>
        <pt x="233" y="33" on="1"/>
        <pt x="193" y="-10" on="1"/>
        <pt x="152" y="-10" on="1"/>
        <pt x="86" y="-10" on="0"/>
        <pt x="53" y="641" on="1"/>
        <pt x="53" y="930" on="0"/>
        <pt x="137" y="930" on="1"/>
      </contour>
      <contour>
        <pt x="-35" y="1270" on="1"/>
        <pt x="8" y="1270" on="1"/>
        <pt x="68" y="1192" on="1"/>
        <pt x="68" y="1141" on="0"/>
        <pt x="-6" y="1096" on="1"/>
        <pt x="-66" y="1122" on="0"/>
        <pt x="-94" y="1192" on="1"/>
      </contour>
      <contour>
        <pt x="276" y="1280" on="1"/>
        <pt x="322" y="1280" on="1"/>
        <pt x="379" y="1202" on="1"/>
        <pt x="379" y="1151" on="0"/>
        <pt x="305" y="1106" on="1"/>
        <pt x="246" y="1133" on="0"/>
        <pt x="217" y="1202" on="1"/>
      </contour>
    </TTGlyph>
    <TTGlyph name="igrave" xMin="-178" yMin="-10" xMax="465" yMax="1503">
      <contour>
        <pt x="164" y="930" on="1"/>
        <pt x="207" y="874" on="1"/>
        <pt x="152" y="819" on="0"/>
        <pt x="152" y="571" on="1"/>
        <pt x="158" y="309" on="0"/>
        <pt x="233" y="61" on="1"/>
        <pt x="233" y="33" on="1"/>
        <pt x="193" y="-10" on="1"/>
        <pt x="152" y="-10" on="1"/>
        <pt x="86" y="-10" on="0"/>
        <pt x="53" y="641" on="1"/>
        <pt x="53" y="930" on="0"/>
        <pt x="137" y="930" on="1"/>
      </contour>
      <contour>
        <pt x="-178" y="1487" on="1"/>
        <pt x="-156" y="1503" on="1"/>
        <pt x="-109" y="1536" on="0"/>
        <pt x="348" y="1227" on="1"/>
        <pt x="432" y="1202" on="1"/>
        <pt x="465" y="1155" on="1"/>
        <pt x="360" y="1096" on="0"/>
        <pt x="-45" y="1372" on="0"/>
        <pt x="-74" y="1358" on="1"/>
      </contour>
      <contour>
        <pt x="164" y="930" on="1"/>
        <pt x="207" y="874" on="1"/>
        <pt x="152" y="819" on="0"/>
        <pt x="152" y="571" on="1"/>
        <pt x="158" y="309" on="0"/>
        <pt x="233" y="61" on="1"/>
        <pt x="233" y="33" on="1"/>
        <pt x="193" y="-10" on="1"/>
        <pt x="152" y="-10" on="1"/>
        <pt x="86" y="-10" on="0"/>
        <pt x="53" y="641" on="1"/>
        <pt x="53" y="930" on="0"/>
        <pt x="137" y="930" on="1"/>
      </contour>
    </TTGlyph>
    <TTGlyph name="imacron" xMin="-88" yMin="-10" xMax="373" yMax="1374">
      <contour>
        <pt x="164" y="930" on="1"/>
        <pt x="207" y="874" on="1"/>
        <pt x="152" y="819" on="0"/>
        <pt x="152" y="571" on="1"/>
        <pt x="158" y="309" on="0"/>
        <pt x="233" y="61" on="1"/>
        <pt x="233" y="33" on="1"/>
        <pt x="193" y="-10" on="1"/>
        <pt x="152" y="-10" on="1"/>
        <pt x="86" y="-10" on="0"/>
        <pt x="53" y="641" on="1"/>
        <pt x="53" y="930" on="0"/>
        <pt x="137" y="930" on="1"/>
      </contour>
      <contour>
        <pt x="330" y="1358" on="1"/>
        <pt x="371" y="1364" on="1"/>
        <pt x="373" y="1260" on="1"/>
        <pt x="186" y="1294" on="0"/>
        <pt x="-88" y="1280" on="1"/>
        <pt x="-82" y="1374" on="1"/>
      </contour>
    </TTGlyph>
    <TTGlyph name="iogonek" xMin="32" yMin="-331" xMax="358" yMax="1290">
      <component glyphName="i" x="0" y="0" flags="0x1204"/>
      <component glyphName="ogonek" x="-19" y="29" flags="0x1004"/>
    </TTGlyph>
    <TTGlyph name="itilde" xMin="-330" yMin="-10" xMax="616" yMax="1749">
      <contour>
        <pt x="164" y="930" on="1"/>
        <pt x="207" y="874" on="1"/>
        <pt x="152" y="819" on="0"/>
        <pt x="152" y="571" on="1"/>
        <pt x="158" y="309" on="0"/>
        <pt x="233" y="61" on="1"/>
        <pt x="233" y="33" on="1"/>
        <pt x="193" y="-10" on="1"/>
        <pt x="152" y="-10" on="1"/>
        <pt x="86" y="-10" on="0"/>
        <pt x="53" y="641" on="1"/>
        <pt x="53" y="930" on="0"/>
        <pt x="137" y="930" on="1"/>
      </contour>
      <contour>
        <pt x="610" y="1532" on="1"/>
        <pt x="428" y="1298" on="0"/>
        <pt x="236" y="1354" on="1"/>
        <pt x="125" y="1419" on="1"/>
        <pt x="-61" y="1636" on="0"/>
        <pt x="-86" y="1645" on="1"/>
        <pt x="-98" y="1649" on="1"/>
        <pt x="-186" y="1671" on="0"/>
        <pt x="-248" y="1524" on="1"/>
        <pt x="-254" y="1479" on="1"/>
        <pt x="-330" y="1487" on="1"/>
        <pt x="-291" y="1722" on="0"/>
        <pt x="-82" y="1749" on="1"/>
        <pt x="-41" y="1726" on="1"/>
        <pt x="127" y="1479" on="0"/>
        <pt x="240" y="1446" on="1"/>
        <pt x="260" y="1442" on="1"/>
        <pt x="412" y="1399" on="0"/>
        <pt x="586" y="1575" on="1"/>
        <pt x="606" y="1569" on="1"/>
        <pt x="616" y="1556" on="1"/>
      </contour>
    </TTGlyph>
    <TTGlyph name="j" xMin="-162" yMin="-1024" xMax="307" yMax="1188">
      <contour>
        <pt x="100" y="1188" on="1"/>
        <pt x="190" y="1153" on="0"/>
        <pt x="197" y="1120" on="1"/>
        <pt x="197" y="1077" on="1"/>
        <pt x="156" y="1038" on="1"/>
        <pt x="86" y="1038" on="1"/>
        <pt x="45" y="1051" on="0"/>
        <pt x="45" y="1120" on="1"/>
      </contour>
      <contour>
        <pt x="184" y="967" on="1"/>
        <pt x="225" y="928" on="1"/>
        <pt x="211" y="745" on="1"/>
        <pt x="307" y="2" on="0"/>
        <pt x="307" y="-233" on="1"/>
        <pt x="307" y="-305" on="1"/>
        <pt x="307" y="-1024" on="0"/>
        <pt x="-10" y="-1024" on="1"/>
        <pt x="-162" y="-944" on="0"/>
        <pt x="-162" y="-803" on="1"/>
        <pt x="-162" y="-719" on="1"/>
        <pt x="-135" y="-719" on="1"/>
        <pt x="-37" y="-913" on="1"/>
        <pt x="-25" y="-926" on="1"/>
        <pt x="4" y="-926" on="1"/>
        <pt x="225" y="-926" on="0"/>
        <pt x="225" y="-207" on="1"/>
        <pt x="184" y="473" on="0"/>
        <pt x="86" y="899" on="1"/>
        <pt x="106" y="967" on="0"/>
      </contour>
    </TTGlyph>
    <TTGlyph name="jcircumflex" xMin="-162" yMin="-1024" xMax="426" yMax="1374">
      <contour>
        <pt x="184" y="967" on="1"/>
        <pt x="225" y="928" on="1"/>
        <pt x="211" y="745" on="1"/>
        <pt x="307" y="2" on="0"/>
        <pt x="307" y="-233" on="1"/>
        <pt x="307" y="-305" on="1"/>
        <pt x="307" y="-1024" on="0"/>
        <pt x="-10" y="-1024" on="1"/>
        <pt x="-162" y="-944" on="0"/>
        <pt x="-162" y="-803" on="1"/>
        <pt x="-162" y="-719" on="1"/>
        <pt x="-135" y="-719" on="1"/>
        <pt x="-37" y="-913" on="1"/>
        <pt x="-25" y="-926" on="1"/>
        <pt x="4" y="-926" on="1"/>
        <pt x="225" y="-926" on="0"/>
        <pt x="225" y="-207" on="1"/>
        <pt x="184" y="473" on="0"/>
        <pt x="86" y="899" on="1"/>
        <pt x="106" y="967" on="0"/>
      </contour>
      <contour>
        <pt x="145" y="1374" on="1"/>
        <pt x="172" y="1374" on="1"/>
        <pt x="229" y="1374" on="0"/>
        <pt x="426" y="987" on="1"/>
        <pt x="307" y="936" on="0"/>
        <pt x="289" y="1081" on="1"/>
        <pt x="190" y="1204" on="0"/>
        <pt x="160" y="1208" on="1"/>
        <pt x="145" y="1208" on="1"/>
        <pt x="61" y="1122" on="0"/>
        <pt x="-45" y="1026" on="1"/>
        <pt x="-100" y="987" on="1"/>
        <pt x="-113" y="987" on="1"/>
        <pt x="-113" y="1055" on="1"/>
        <pt x="92" y="1374" on="0"/>
      </contour>
    </TTGlyph>
    <TTGlyph name="k" xMin="10" yMin="-31" xMax="702" yMax="1489">
      <contour>
        <pt x="80" y="1489" on="1"/>
        <pt x="141" y="1464" on="0"/>
        <pt x="150" y="1434" on="1"/>
        <pt x="121" y="1282" on="1"/>
        <pt x="150" y="702" on="1"/>
        <pt x="162" y="702" on="1"/>
        <pt x="260" y="776" on="0"/>
        <pt x="412" y="1075" on="1"/>
        <pt x="426" y="1090" on="1"/>
        <pt x="453" y="1090" on="1"/>
        <pt x="508" y="1034" on="1"/>
        <pt x="508" y="1006" on="1"/>
        <pt x="190" y="580" on="0"/>
        <pt x="190" y="522" on="1"/>
        <pt x="190" y="508" on="1"/>
        <pt x="190" y="340" on="0"/>
        <pt x="604" y="66" on="1"/>
        <pt x="618" y="66" on="1"/>
        <pt x="702" y="94" on="1"/>
        <pt x="702" y="39" on="1"/>
        <pt x="676" y="-10" on="0"/>
        <pt x="618" y="-31" on="1"/>
        <pt x="494" y="-4" on="0"/>
        <pt x="190" y="301" on="1"/>
        <pt x="176" y="287" on="1"/>
        <pt x="176" y="205" on="1"/>
        <pt x="182" y="102" on="0"/>
        <pt x="217" y="66" on="1"/>
        <pt x="190" y="-16" on="0"/>
        <pt x="162" y="-16" on="1"/>
        <pt x="135" y="-16" on="1"/>
        <pt x="66" y="51" on="1"/>
        <pt x="80" y="150" on="1"/>
        <pt x="80" y="260" on="1"/>
        <pt x="80" y="494" on="0"/>
        <pt x="51" y="494" on="1"/>
        <pt x="66" y="549" on="1"/>
        <pt x="25" y="1407" on="1"/>
        <pt x="10" y="1407" on="1"/>
        <pt x="10" y="1432" on="0"/>
      </contour>
    </TTGlyph>
    <TTGlyph name="kcommaaccent" xMin="10" yMin="-498" xMax="702" yMax="1489">
      <component glyphName="k" x="0" y="0" flags="0x1204"/>
      <component glyphName="commaaccent" x="135" y="0" flags="0x1004"/>
    </TTGlyph>
    <TTGlyph name="l" xMin="70" yMin="-25" xMax="209" yMax="1626">
      <contour>
        <pt x="150" y="1614" on="1"/>
        <pt x="197" y="1626" on="1"/>
        <pt x="186" y="1374" on="1"/>
        <pt x="182" y="1149" on="1"/>
        <pt x="193" y="502" on="1"/>
        <pt x="180" y="225" on="1"/>
        <pt x="209" y="59" on="1"/>
        <pt x="209" y="33" on="0"/>
        <pt x="137" y="-25" on="1"/>
        <pt x="70" y="31" on="1"/>
        <pt x="98" y="102" on="0"/>
        <pt x="98" y="322" on="1"/>
        <pt x="98" y="348" on="1"/>
        <pt x="119" y="1569" on="1"/>
        <pt x="143" y="1614" on="0"/>
      </contour>
    </TTGlyph>
    <TTGlyph name="lacute" xMin="-48" yMin="-25" xMax="312" yMax="1893">
      <component glyphName="l" x="0" y="0" flags="0x1204"/>
      <component glyphName="acute" x="-159" y="197" flags="0x1004"/>
    </TTGlyph>
    <TTGlyph name="lcaron" xMin="70" yMin="-25" xMax="410" yMax="1978">
      <component glyphName="l" x="0" y="0" flags="0x1004"/>
      <component glyphName="quoteright" x="164" y="346" flags="0x1004"/>
    </TTGlyph>
    <TTGlyph name="lcommaaccent" xMin="19" yMin="-498" xMax="209" yMax="1626">
      <component glyphName="l" x="0" y="0" flags="0x1204"/>
      <component glyphName="commaaccent" x="-83" y="0" flags="0x1004"/>
    </TTGlyph>
    <TTGlyph name="ldot" xMin="70" yMin="-25" xMax="520" yMax="1626">
      <component glyphName="l" x="0" y="0" flags="0x1004"/>
      <component glyphName="periodcentered" x="289" y="0" flags="0x1004"/>
    </TTGlyph>
    <TTGlyph name="less" xMin="119" yMin="285" xMax="698" yMax="1044">
      <contour>
        <pt x="643" y="1044" on="1"/>
        <pt x="698" y="1032" on="0"/>
        <pt x="698" y="989" on="1"/>
        <pt x="698" y="965" on="0"/>
        <pt x="340" y="686" on="1"/>
        <pt x="326" y="616" on="1"/>
        <pt x="698" y="369" on="1"/>
        <pt x="698" y="326" on="1"/>
        <pt x="657" y="285" on="1"/>
        <pt x="618" y="285" on="0"/>
        <pt x="326" y="492" on="1"/>
        <pt x="287" y="520" on="0"/>
        <pt x="145" y="535" on="1"/>
        <pt x="119" y="590" on="1"/>
        <pt x="119" y="657" on="0"/>
        <pt x="256" y="700" on="1"/>
        <pt x="336" y="819" on="0"/>
      </contour>
    </TTGlyph>
    <TTGlyph name="logicalnot" xMin="88" yMin="281" xMax="977" yMax="719">
      <contour>
        <pt x="88" y="618" on="1"/>
        <pt x="98" y="692" on="0"/>
        <pt x="137" y="709" on="1"/>
        <pt x="422" y="696" on="1"/>
        <pt x="774" y="672" on="0"/>
        <pt x="977" y="719" on="1"/>
        <pt x="999" y="764" on="0"/>
        <pt x="954" y="281" on="1"/>
        <pt x="866" y="287" on="1"/>
        <pt x="885" y="608" on="1"/>
        <pt x="874" y="608" on="1"/>
        <pt x="614" y="563" on="0"/>
      </contour>
    </TTGlyph>
    <TTGlyph name="lslash" xMin="-182" yMin="-25" xMax="470" yMax="1626">
      <component glyphName="l" x="0" y="0" flags="0x1204"/>
      <component glyphName="hyphen" x="-282" y="0" flags="0x1004"/>
    </TTGlyph>
    <TTGlyph name="m" xMin="66" yMin="0" xMax="856" yMax="1174">
      <contour>
        <pt x="674" y="1174" on="1"/>
        <pt x="803" y="1174" on="0"/>
        <pt x="856" y="332" on="1"/>
        <pt x="856" y="55" on="1"/>
        <pt x="813" y="12" on="1"/>
        <pt x="754" y="12" on="0"/>
        <pt x="729" y="68" on="1"/>
        <pt x="758" y="358" on="1"/>
        <pt x="727" y="977" on="0"/>
        <pt x="662" y="995" on="1"/>
        <pt x="635" y="995" on="1"/>
        <pt x="508" y="651" on="0"/>
        <pt x="508" y="111" on="1"/>
        <pt x="469" y="82" on="1"/>
        <pt x="414" y="82" on="1"/>
        <pt x="389" y="82" on="0"/>
        <pt x="371" y="152" on="1"/>
        <pt x="426" y="248" on="0"/>
        <pt x="426" y="635" on="1"/>
        <pt x="408" y="897" on="0"/>
        <pt x="358" y="897" on="1"/>
        <pt x="342" y="897" on="1"/>
        <pt x="231" y="897" on="0"/>
        <pt x="231" y="276" on="1"/>
        <pt x="231" y="166" on="1"/>
        <pt x="248" y="82" on="1"/>
        <pt x="217" y="0" on="0"/>
        <pt x="137" y="0" on="1"/>
        <pt x="82" y="68" on="1"/>
        <pt x="109" y="248" on="1"/>
        <pt x="109" y="317" on="1"/>
        <pt x="66" y="940" on="1"/>
        <pt x="66" y="1018" on="0"/>
        <pt x="137" y="1036" on="1"/>
        <pt x="193" y="1022" on="0"/>
        <pt x="193" y="952" on="1"/>
        <pt x="164" y="870" on="1"/>
        <pt x="164" y="842" on="1"/>
        <pt x="176" y="842" on="1"/>
        <pt x="285" y="1051" on="0"/>
        <pt x="342" y="1051" on="1"/>
        <pt x="416" y="1051" on="0"/>
        <pt x="496" y="897" on="1"/>
        <pt x="524" y="897" on="0"/>
        <pt x="592" y="1133" on="1"/>
      </contour>
    </TTGlyph>
    <TTGlyph name="macron" xMin="102" yMin="1260" xMax="563" yMax="1374">
      <contour>
        <pt x="520" y="1358" on="1"/>
        <pt x="561" y="1364" on="1"/>
        <pt x="563" y="1260" on="1"/>
        <pt x="377" y="1294" on="0"/>
        <pt x="102" y="1280" on="1"/>
        <pt x="109" y="1374" on="1"/>
      </contour>
    </TTGlyph>
    <TTGlyph name="minus" xMin="96" yMin="713" xMax="557" yMax="829">
      <contour>
        <pt x="512" y="813" on="1"/>
        <pt x="553" y="819" on="1"/>
        <pt x="557" y="713" on="1"/>
        <pt x="369" y="748" on="0"/>
        <pt x="96" y="733" on="1"/>
        <pt x="100" y="829" on="1"/>
      </contour>
    </TTGlyph>
    <TTGlyph name="mu" xMin="12" yMin="-84" xMax="522" yMax="911">
      <contour>
        <pt x="508" y="883" on="1"/>
        <pt x="508" y="840" on="1"/>
        <pt x="522" y="729" on="1"/>
        <pt x="500" y="422" on="0"/>
        <pt x="516" y="18" on="1"/>
        <pt x="479" y="14" on="0"/>
        <pt x="457" y="14" on="1"/>
        <pt x="410" y="98" on="0"/>
        <pt x="397" y="76" on="1"/>
        <pt x="350" y="-16" on="0"/>
        <pt x="287" y="-16" on="1"/>
        <pt x="244" y="-16" on="0"/>
        <pt x="135" y="92" on="1"/>
        <pt x="111" y="53" on="0"/>
        <pt x="74" y="-84" on="1"/>
        <pt x="92" y="-100" on="0"/>
        <pt x="12" y="-68" on="1"/>
        <pt x="45" y="78" on="0"/>
        <pt x="45" y="158" on="1"/>
        <pt x="59" y="381" on="0"/>
        <pt x="25" y="690" on="1"/>
        <pt x="25" y="772" on="1"/>
        <pt x="25" y="877" on="0"/>
        <pt x="80" y="895" on="1"/>
        <pt x="106" y="895" on="1"/>
        <pt x="150" y="868" on="1"/>
        <pt x="135" y="772" on="1"/>
        <pt x="135" y="635" on="1"/>
        <pt x="195" y="51" on="0"/>
        <pt x="287" y="94" on="1"/>
        <pt x="383" y="133" on="0"/>
        <pt x="412" y="618" on="1"/>
        <pt x="412" y="758" on="1"/>
        <pt x="412" y="856" on="0"/>
        <pt x="383" y="911" on="1"/>
        <pt x="383" y="999" on="0"/>
      </contour>
    </TTGlyph>
    <TTGlyph name="multiply" xMin="23" yMin="100" xMax="600" yMax="977">
      <contour>
        <pt x="500" y="944" on="1"/>
        <pt x="600" y="852" on="1"/>
        <pt x="446" y="680" on="0"/>
        <pt x="383" y="508" on="1"/>
        <pt x="549" y="211" on="1"/>
        <pt x="530" y="141" on="0"/>
        <pt x="506" y="141" on="1"/>
        <pt x="453" y="106" on="0"/>
        <pt x="309" y="387" on="1"/>
        <pt x="143" y="156" on="0"/>
        <pt x="92" y="113" on="1"/>
        <pt x="78" y="100" on="1"/>
        <pt x="23" y="113" on="0"/>
        <pt x="23" y="156" on="1"/>
        <pt x="96" y="246" on="0"/>
        <pt x="272" y="494" on="1"/>
        <pt x="135" y="850" on="0"/>
        <pt x="94" y="893" on="1"/>
        <pt x="94" y="936" on="1"/>
        <pt x="135" y="977" on="1"/>
        <pt x="176" y="977" on="1"/>
        <pt x="217" y="977" on="0"/>
        <pt x="287" y="715" on="1"/>
        <pt x="328" y="616" on="1"/>
      </contour>
    </TTGlyph>
    <TTGlyph name="n" xMin="37" yMin="-70" xMax="590" yMax="1214">
      <contour>
        <pt x="369" y="1214" on="1"/>
        <pt x="381" y="1214" on="1"/>
        <pt x="545" y="1214" on="0"/>
        <pt x="575" y="594" on="1"/>
        <pt x="575" y="344" on="1"/>
        <pt x="590" y="193" on="1"/>
        <pt x="575" y="137" on="1"/>
        <pt x="590" y="12" on="1"/>
        <pt x="547" y="-14" on="1"/>
        <pt x="479" y="4" on="0"/>
        <pt x="479" y="82" on="1"/>
        <pt x="479" y="539" on="1"/>
        <pt x="479" y="1022" on="0"/>
        <pt x="381" y="1063" on="1"/>
        <pt x="369" y="1063" on="1"/>
        <pt x="221" y="987" on="0"/>
        <pt x="188" y="455" on="1"/>
        <pt x="188" y="68" on="1"/>
        <pt x="203" y="12" on="1"/>
        <pt x="174" y="-70" on="0"/>
        <pt x="147" y="-70" on="1"/>
        <pt x="78" y="-70" on="0"/>
        <pt x="63" y="-14" on="1"/>
        <pt x="78" y="358" on="1"/>
        <pt x="37" y="981" on="1"/>
        <pt x="37" y="1063" on="1"/>
        <pt x="92" y="1118" on="1"/>
        <pt x="147" y="1098" on="0"/>
        <pt x="147" y="1077" on="1"/>
        <pt x="133" y="870" on="1"/>
        <pt x="147" y="856" on="1"/>
        <pt x="174" y="856" on="1"/>
        <pt x="174" y="1059" on="0"/>
      </contour>
    </TTGlyph>
    <TTGlyph name="nacute" xMin="37" yMin="-70" xMax="590" yMax="1696">
      <component glyphName="n" x="0" y="0" flags="0x1204"/>
      <component glyphName="acute" x="27" y="0" flags="0x1004"/>
    </TTGlyph>
    <TTGlyph name="napostrophe" xMin="15" yMin="-19" xMax="568" yMax="1728">
      <component glyphName="n" x="-22" y="51" flags="0x1204"/>
      <component glyphName="commaaccent" x="-36" y="1837" flags="0x1004"/>
    </TTGlyph>
    <TTGlyph name="ncaron" xMin="37" yMin="-70" xMax="590" yMax="1621">
      <component glyphName="n" x="0" y="0" flags="0x1204"/>
      <component glyphName="caron" x="-390" y="-77" flags="0x1004"/>
    </TTGlyph>
    <TTGlyph name="ncommaaccent" xMin="37" yMin="-498" xMax="590" yMax="1214">
      <component glyphName="n" x="0" y="0" flags="0x1204"/>
      <component glyphName="commaaccent" x="88" y="0" flags="0x1004"/>
    </TTGlyph>
    <TTGlyph name="nine" xMin="33" yMin="-6" xMax="670" yMax="1473">
      <contour>
        <pt x="600" y="1473" on="1"/>
        <pt x="629" y="1473" on="1"/>
        <pt x="670" y="1473" on="0"/>
        <pt x="670" y="1417" on="1"/>
        <pt x="600" y="1249" on="0"/>
        <pt x="600" y="782" on="1"/>
        <pt x="614" y="782" on="1"/>
        <pt x="600" y="768" on="1"/>
        <pt x="600" y="215" on="1"/>
        <pt x="641" y="49" on="1"/>
        <pt x="586" y="-6" on="1"/>
        <pt x="530" y="-6" on="0"/>
        <pt x="489" y="78" on="1"/>
        <pt x="504" y="174" on="1"/>
        <pt x="504" y="215" on="1"/>
        <pt x="518" y="657" on="1"/>
        <pt x="504" y="741" on="1"/>
        <pt x="518" y="907" on="1"/>
        <pt x="518" y="934" on="1"/>
        <pt x="489" y="934" on="1"/>
        <pt x="373" y="782" on="0"/>
        <pt x="227" y="782" on="1"/>
        <pt x="33" y="782" on="0"/>
        <pt x="33" y="1018" on="1"/>
        <pt x="172" y="1446" on="0"/>
        <pt x="463" y="1446" on="1"/>
        <pt x="530" y="1432" on="1"/>
      </contour>
      <contour>
        <pt x="143" y="948" on="1"/>
        <pt x="186" y="879" on="0"/>
        <pt x="242" y="879" on="1"/>
        <pt x="416" y="879" on="0"/>
        <pt x="518" y="1251" on="1"/>
        <pt x="518" y="1280" on="1"/>
        <pt x="504" y="1321" on="0"/>
        <pt x="434" y="1321" on="1"/>
        <pt x="352" y="1321" on="1"/>
        <pt x="227" y="1276" on="0"/>
        <pt x="143" y="1073" on="1"/>
      </contour>
    </TTGlyph>
    <TTGlyph name="ntilde" xMin="-153" yMin="-70" xMax="793" yMax="1749">
      <component glyphName="n" x="0" y="0" flags="0x1204"/>
      <component glyphName="tilde" x="-284" y="0" flags="0x1004"/>
    </TTGlyph>
    <TTGlyph name="numbersign" xMin="47" yMin="125" xMax="1194" yMax="1425">
      <contour>
        <pt x="836" y="1425" on="1"/>
        <pt x="891" y="1384" on="1"/>
        <pt x="877" y="1260" on="1"/>
        <pt x="905" y="1024" on="1"/>
        <pt x="1071" y="1038" on="1"/>
        <pt x="1126" y="997" on="1"/>
        <pt x="1126" y="942" on="1"/>
        <pt x="905" y="913" on="1"/>
        <pt x="905" y="788" on="1"/>
        <pt x="918" y="555" on="1"/>
        <pt x="961" y="555" on="1"/>
        <pt x="1077" y="555" on="0"/>
        <pt x="1139" y="582" on="1"/>
        <pt x="1194" y="541" on="1"/>
        <pt x="918" y="444" on="1"/>
        <pt x="905" y="334" on="1"/>
        <pt x="918" y="223" on="1"/>
        <pt x="899" y="125" on="0"/>
        <pt x="862" y="125" on="1"/>
        <pt x="836" y="125" on="1"/>
        <pt x="821" y="139" on="1"/>
        <pt x="807" y="180" on="1"/>
        <pt x="795" y="180" on="1"/>
        <pt x="821" y="416" on="1"/>
        <pt x="795" y="444" on="1"/>
        <pt x="696" y="430" on="1"/>
        <pt x="629" y="430" on="1"/>
        <pt x="629" y="346" on="1"/>
        <pt x="629" y="274" on="0"/>
        <pt x="586" y="264" on="1"/>
        <pt x="545" y="264" on="1"/>
        <pt x="518" y="264" on="0"/>
        <pt x="504" y="430" on="1"/>
        <pt x="408" y="416" on="1"/>
        <pt x="242" y="416" on="1"/>
        <pt x="174" y="416" on="0"/>
        <pt x="131" y="485" on="1"/>
        <pt x="131" y="522" on="0"/>
        <pt x="199" y="555" on="1"/>
        <pt x="303" y="512" on="0"/>
        <pt x="504" y="512" on="1"/>
        <pt x="530" y="623" on="1"/>
        <pt x="530" y="803" on="1"/>
        <pt x="504" y="831" on="1"/>
        <pt x="412" y="803" on="0"/>
        <pt x="102" y="788" on="1"/>
        <pt x="47" y="803" on="0"/>
        <pt x="47" y="872" on="1"/>
        <pt x="102" y="913" on="1"/>
        <pt x="242" y="899" on="1"/>
        <pt x="365" y="899" on="1"/>
        <pt x="518" y="899" on="0"/>
        <pt x="518" y="983" on="1"/>
        <pt x="530" y="1065" on="1"/>
        <pt x="504" y="1274" on="1"/>
        <pt x="524" y="1329" on="0"/>
        <pt x="545" y="1329" on="1"/>
        <pt x="573" y="1329" on="1"/>
        <pt x="600" y="1329" on="0"/>
        <pt x="600" y="1286" on="1"/>
        <pt x="614" y="954" on="1"/>
        <pt x="670" y="954" on="1"/>
        <pt x="807" y="973" on="0"/>
        <pt x="807" y="1010" on="1"/>
        <pt x="807" y="1038" on="1"/>
        <pt x="780" y="1397" on="1"/>
      </contour>
      <contour>
        <pt x="614" y="817" on="1"/>
        <pt x="614" y="748" on="1"/>
        <pt x="614" y="526" on="0"/>
        <pt x="655" y="526" on="1"/>
        <pt x="795" y="526" on="1"/>
        <pt x="821" y="555" on="1"/>
        <pt x="821" y="582" on="1"/>
        <pt x="807" y="887" on="1"/>
        <pt x="795" y="887" on="1"/>
        <pt x="614" y="866" on="0"/>
      </contour>
    </TTGlyph>
    <TTGlyph name="o" xMin="47" yMin="-39" xMax="518" yMax="1079">
      <contour>
        <pt x="338" y="1079" on="1"/>
        <pt x="467" y="1079" on="0"/>
        <pt x="518" y="709" on="1"/>
        <pt x="504" y="692" on="1"/>
        <pt x="504" y="610" on="1"/>
        <pt x="469" y="-27" on="0"/>
        <pt x="283" y="-27" on="1"/>
        <pt x="268" y="-39" on="1"/>
        <pt x="254" y="-39" on="1"/>
        <pt x="47" y="8" on="0"/>
        <pt x="47" y="487" on="1"/>
        <pt x="47" y="1079" on="0"/>
      </contour>
      <contour>
        <pt x="131" y="555" on="1"/>
        <pt x="162" y="72" on="0"/>
        <pt x="254" y="72" on="1"/>
        <pt x="268" y="72" on="1"/>
        <pt x="385" y="72" on="0"/>
        <pt x="420" y="569" on="1"/>
        <pt x="420" y="764" on="1"/>
        <pt x="420" y="950" on="0"/>
        <pt x="297" y="969" on="1"/>
        <pt x="131" y="920" on="0"/>
      </contour>
    </TTGlyph>
    <TTGlyph name="oacute" xMin="47" yMin="-39" xMax="518" yMax="1696">
      <component glyphName="o" x="0" y="0" flags="0x1204"/>
      <component glyphName="acute" x="45" y="0" flags="0x1004"/>
    </TTGlyph>
    <TTGlyph name="obreve" xMin="47" yMin="-39" xMax="568" yMax="1449">
      <component glyphName="o" x="0" y="0" flags="0x1204"/>
      <component glyphName="breve" x="-22" y="-198" flags="0x1004"/>
    </TTGlyph>
    <TTGlyph name="ocircumflex" xMin="47" yMin="-39" xMax="591" yMax="1480">
      <component glyphName="o" x="0" y="0" flags="0x1204"/>
      <component glyphName="circumflex" x="-83" y="-261" flags="0x1004"/>
    </TTGlyph>
    <TTGlyph name="odieresis" xMin="47" yMin="-39" xMax="534" yMax="1340">
      <component glyphName="o" x="0" y="0" flags="0x1204"/>
      <component glyphName="dieresis" x="-273" y="-325" flags="0x1004"/>
    </TTGlyph>
    <TTGlyph name="oe" xMin="47" yMin="-39" xMax="1016" yMax="1138">
      <component glyphName="o" x="0" y="0" flags="0x1004"/>
      <component glyphName="e" x="430" y="-17" flags="0x1004"/>
    </TTGlyph>
    <TTGlyph name="ogonek" xMin="51" yMin="-360" xMax="377" yMax="74">
      <contour>
        <pt x="213" y="10" on="1"/>
        <pt x="145" y="-158" on="1"/>
        <pt x="119" y="-303" on="0"/>
        <pt x="217" y="-250" on="1"/>
        <pt x="262" y="-250" on="0"/>
        <pt x="313" y="-147" on="1"/>
        <pt x="377" y="-205" on="1"/>
        <pt x="289" y="-360" on="0"/>
        <pt x="162" y="-360" on="1"/>
        <pt x="147" y="-360" on="1"/>
        <pt x="63" y="-350" on="0"/>
        <pt x="51" y="-156" on="1"/>
        <pt x="51" y="-117" on="0"/>
        <pt x="139" y="74" on="1"/>
      </contour>
    </TTGlyph>
    <TTGlyph name="ograve" xMin="-66" yMin="-39" xMax="518" yMax="1487">
      <component glyphName="o" x="0" y="0" flags="0x1204"/>
      <component glyphName="grave" x="-177" y="0" flags="0x1004"/>
    </TTGlyph>
    <TTGlyph name="ohungarumlaut" xMin="7" yMin="-39" xMax="518" yMax="1667">
      <component glyphName="o" x="0" y="0" flags="0x1204"/>
      <component glyphName="hungarumlaut" x="-89" y="0" flags="0x1004"/>
    </TTGlyph>
    <TTGlyph name="omacron" xMin="46" yMin="-39" xMax="518" yMax="1374">
      <component glyphName="o" x="0" y="0" flags="0x1204"/>
      <component glyphName="macron" x="-56" y="0" flags="0x1004"/>
    </TTGlyph>
    <TTGlyph name="one" xMin="63" yMin="0" xMax="379" yMax="1604">
      <contour>
        <pt x="102" y="1604" on="1"/>
        <pt x="145" y="1604" on="1"/>
        <pt x="201" y="1548" on="1"/>
        <pt x="174" y="1464" on="1"/>
        <pt x="174" y="1382" on="1"/>
        <pt x="174" y="1217" on="0"/>
        <pt x="340" y="207" on="1"/>
        <pt x="379" y="166" on="1"/>
        <pt x="379" y="152" on="1"/>
        <pt x="379" y="35" on="0"/>
        <pt x="297" y="0" on="1"/>
        <pt x="248" y="0" on="0"/>
        <pt x="213" y="41" on="1"/>
        <pt x="229" y="123" on="1"/>
        <pt x="229" y="340" on="0"/>
        <pt x="63" y="1575" on="1"/>
      </contour>
    </TTGlyph>
    <TTGlyph name="onehalf" xMin="61" yMin="14" xMax="1123" yMax="1493">
      <component glyphName="one" x="7" y="386" scalex="0.86376953125" scaley="0.597717285156" flags="0x1004"/>
      <component glyphName="slash" x="84" y="8" flags="0x1004"/>
      <component glyphName="two" x="518" y="44" scalex="1.0283203125" scaley="0.467834472656" flags="0x1004"/>
    </TTGlyph>
    <TTGlyph name="onequarter" xMin="61" yMin="43" xMax="1066" yMax="1532">
      <component glyphName="one" x="7" y="381" scalex="0.86376953125" scaley="0.609741210938" flags="0x1004"/>
      <component glyphName="slash" x="133" y="47" flags="0x1004"/>
      <component glyphName="four" x="622" y="47" scalex="0.974060058594" scaley="0.572204589844" flags="0x1004"/>
    </TTGlyph>
    <TTGlyph name="onesuperior" xMin="56" yMin="400" xMax="272" yMax="1234">
      <component glyphName="one" x="14" y="400" scalex="0.68115234375" scaley="0.51953125" flags="0x1004"/>
    </TTGlyph>
    <TTGlyph name="ordfeminine" xMin="28" yMin="241" xMax="418" yMax="827">
      <component glyphName="a" x="-23" y="315" scalex="0.687316894531" scaley="0.469604492188" flags="0x1004"/>
    </TTGlyph>
    <TTGlyph name="ordmasculine" xMin="31" yMin="358" xMax="318" yMax="896">
      <component glyphName="o" x="2" y="377" scalex="0.607849121094" scaley="0.480651855469" flags="0x1004"/>
    </TTGlyph>
    <TTGlyph name="oslash" xMin="22" yMin="-194" xMax="518" yMax="1285">
      <component glyphName="o" x="0" y="0" flags="0x1204"/>
      <component glyphName="slash" x="-99" y="-200" flags="0x1004"/>
    </TTGlyph>
    <TTGlyph name="oslashacute" xMin="5" yMin="-229" xMax="518" yMax="1696">
      <component glyphName="o" x="0" y="0" flags="0x1204"/>
      <component glyphName="slash" x="-116" y="-235" flags="0x1004"/>
      <component glyphName="acute" x="-13" y="0" flags="0x1004"/>
    </TTGlyph>
    <TTGlyph name="otilde" xMin="-61" yMin="-39" xMax="885" yMax="1537">
      <component glyphName="o" x="0" y="0" flags="0x1204"/>
      <component glyphName="tilde" x="-192" y="-212" flags="0x1004"/>
    </TTGlyph>
    <TTGlyph name="p" xMin="29" yMin="-717" xMax="471" yMax="930">
      <contour>
        <pt x="293" y="930" on="1"/>
        <pt x="436" y="930" on="0"/>
        <pt x="471" y="610" on="1"/>
        <pt x="471" y="389" on="0"/>
        <pt x="168" y="45" on="1"/>
        <pt x="168" y="29" on="1"/>
        <pt x="168" y="-285" on="0"/>
        <pt x="211" y="-690" on="1"/>
        <pt x="168" y="-717" on="1"/>
        <pt x="156" y="-717" on="1"/>
        <pt x="72" y="-717" on="0"/>
        <pt x="72" y="-563" on="1"/>
        <pt x="57" y="-440" on="1"/>
        <pt x="72" y="-426" on="1"/>
        <pt x="72" y="-414" on="1"/>
        <pt x="29" y="29" on="1"/>
        <pt x="45" y="113" on="1"/>
        <pt x="45" y="403" on="1"/>
        <pt x="57" y="569" on="1"/>
        <pt x="45" y="569" on="1"/>
        <pt x="117" y="930" on="0"/>
      </contour>
      <contour>
        <pt x="156" y="432" on="1"/>
        <pt x="156" y="182" on="1"/>
        <pt x="168" y="182" on="1"/>
        <pt x="377" y="381" on="0"/>
        <pt x="377" y="653" on="1"/>
        <pt x="322" y="819" on="0"/>
        <pt x="279" y="819" on="1"/>
        <pt x="266" y="819" on="1"/>
        <pt x="156" y="729" on="0"/>
      </contour>
    </TTGlyph>
    <TTGlyph name="paragraph" xMin="68" yMin="-16" xMax="852" yMax="1139">
      <contour>
        <pt x="635" y="1139" on="1"/>
        <pt x="664" y="1139" on="1"/>
        <pt x="879" y="1149" on="0"/>
        <pt x="852" y="1098" on="1"/>
        <pt x="829" y="508" on="1"/>
        <pt x="844" y="66" on="1"/>
        <pt x="844" y="41" on="0"/>
        <pt x="774" y="-16" on="1"/>
        <pt x="733" y="37" on="1"/>
        <pt x="733" y="109" on="0"/>
        <pt x="766" y="1040" on="1"/>
        <pt x="737" y="1036" on="0"/>
        <pt x="698" y="1034" on="1"/>
        <pt x="635" y="915" on="0"/>
        <pt x="600" y="215" on="1"/>
        <pt x="641" y="49" on="1"/>
        <pt x="586" y="-6" on="1"/>
        <pt x="530" y="-6" on="0"/>
        <pt x="489" y="78" on="1"/>
        <pt x="504" y="174" on="1"/>
        <pt x="504" y="215" on="1"/>
        <pt x="553" y="573" on="1"/>
        <pt x="553" y="600" on="1"/>
        <pt x="524" y="600" on="1"/>
        <pt x="408" y="449" on="0"/>
        <pt x="262" y="449" on="1"/>
        <pt x="68" y="449" on="0"/>
        <pt x="68" y="684" on="1"/>
        <pt x="207" y="1112" on="0"/>
        <pt x="498" y="1112" on="1"/>
      </contour>
    </TTGlyph>
    <TTGlyph name="parenleft" xMin="45" yMin="-8" xMax="598" yMax="1927">
      <contour>
        <pt x="295" y="1927" on="1"/>
        <pt x="295" y="1915" on="1"/>
        <pt x="295" y="1876" on="0"/>
        <pt x="172" y="1667" on="1"/>
        <pt x="129" y="1335" on="1"/>
        <pt x="129" y="1153" on="1"/>
        <pt x="129" y="666" on="0"/>
        <pt x="420" y="119" on="1"/>
        <pt x="432" y="102" on="1"/>
        <pt x="475" y="76" on="1"/>
        <pt x="586" y="145" on="1"/>
        <pt x="598" y="131" on="1"/>
        <pt x="598" y="119" on="1"/>
        <pt x="580" y="-8" on="0"/>
        <pt x="487" y="-8" on="1"/>
        <pt x="201" y="-8" on="0"/>
        <pt x="45" y="1153" on="1"/>
        <pt x="45" y="1348" on="1"/>
        <pt x="45" y="1778" on="0"/>
        <pt x="266" y="1927" on="1"/>
      </contour>
    </TTGlyph>
    <TTGlyph name="parenright" xMin="74" yMin="10" xMax="528" yMax="1821">
      <contour>
        <pt x="129" y="1821" on="1"/>
        <pt x="209" y="1821" on="0"/>
        <pt x="225" y="1614" on="1"/>
        <pt x="528" y="961" on="0"/>
        <pt x="528" y="537" on="1"/>
        <pt x="422" y="10" on="0"/>
        <pt x="252" y="10" on="1"/>
        <pt x="211" y="25" on="1"/>
        <pt x="211" y="66" on="1"/>
        <pt x="432" y="229" on="0"/>
        <pt x="432" y="563" on="1"/>
        <pt x="432" y="618" on="1"/>
        <pt x="432" y="987" on="0"/>
        <pt x="115" y="1669" on="1"/>
        <pt x="74" y="1724" on="1"/>
        <pt x="74" y="1784" on="0"/>
      </contour>
    </TTGlyph>
    <TTGlyph name="percent" xMin="137" yMin="10" xMax="604" yMax="1790">
      <contour>
        <pt x="573" y="1790" on="1"/>
        <pt x="604" y="1790" on="1"/>
        <pt x="604" y="1753" on="1"/>
        <pt x="500" y="961" on="0"/>
        <pt x="287" y="221" on="1"/>
        <pt x="258" y="221" on="0"/>
        <pt x="258" y="49" on="1"/>
        <pt x="211" y="10" on="1"/>
        <pt x="137" y="31" on="1"/>
        <pt x="137" y="106" on="1"/>
        <pt x="356" y="664" on="0"/>
        <pt x="498" y="1599" on="1"/>
        <pt x="498" y="1733" on="0"/>
      </contour>
      <contour>
        <pt x="508" y="203" on="1"/>
        <pt x="549" y="203" on="1"/>
        <pt x="604" y="147" on="1"/>
        <pt x="604" y="111" on="0"/>
        <pt x="537" y="80" on="1"/>
        <pt x="479" y="98" on="0"/>
        <pt x="453" y="147" on="1"/>
      </contour>
      <contour>
        <pt x="193" y="1706" on="1"/>
        <pt x="236" y="1706" on="1"/>
        <pt x="291" y="1651" on="1"/>
        <pt x="291" y="1614" on="0"/>
        <pt x="221" y="1581" on="1"/>
        <pt x="164" y="1602" on="0"/>
        <pt x="137" y="1651" on="1"/>
      </contour>
    </TTGlyph>
    <TTGlyph name="period" xMin="182" yMin="0" xMax="342" yMax="174">
      <contour>
        <pt x="242" y="174" on="1"/>
        <pt x="285" y="174" on="1"/>
        <pt x="342" y="96" on="1"/>
        <pt x="342" y="45" on="0"/>
        <pt x="268" y="0" on="1"/>
        <pt x="211" y="27" on="0"/>
        <pt x="182" y="96" on="1"/>
      </contour>
    </TTGlyph>
    <TTGlyph name="periodcentered" xMin="96" yMin="457" xMax="231" yMax="614">
      <contour>
        <pt x="141" y="614" on="1"/>
        <pt x="213" y="627" on="0"/>
        <pt x="231" y="541" on="1"/>
        <pt x="209" y="444" on="0"/>
        <pt x="156" y="457" on="1"/>
        <pt x="111" y="479" on="0"/>
        <pt x="96" y="545" on="1"/>
        <pt x="96" y="580" on="0"/>
      </contour>
    </TTGlyph>
    <TTGlyph name="plus" xMin="82" yMin="256" xMax="842" yMax="1155">
      <contour>
        <pt x="455" y="1155" on="1"/>
        <pt x="510" y="1128" on="1"/>
        <pt x="498" y="963" on="1"/>
        <pt x="498" y="852" on="1"/>
        <pt x="498" y="823" on="0"/>
        <pt x="539" y="823" on="1"/>
        <pt x="815" y="852" on="1"/>
        <pt x="842" y="809" on="1"/>
        <pt x="842" y="797" on="1"/>
        <pt x="842" y="758" on="0"/>
        <pt x="524" y="727" on="1"/>
        <pt x="524" y="713" on="1"/>
        <pt x="580" y="326" on="1"/>
        <pt x="561" y="256" on="0"/>
        <pt x="539" y="256" on="1"/>
        <pt x="510" y="256" on="1"/>
        <pt x="414" y="322" on="0"/>
        <pt x="436" y="727" on="0"/>
        <pt x="399" y="727" on="1"/>
        <pt x="111" y="698" on="1"/>
        <pt x="82" y="741" on="1"/>
        <pt x="82" y="782" on="1"/>
        <pt x="82" y="809" on="0"/>
        <pt x="248" y="809" on="1"/>
        <pt x="332" y="809" on="1"/>
        <pt x="399" y="823" on="1"/>
        <pt x="399" y="963" on="1"/>
        <pt x="387" y="1044" on="1"/>
        <pt x="406" y="1118" on="0"/>
      </contour>
    </TTGlyph>
    <TTGlyph name="plusminus" xMin="82" yMin="201" xMax="915" yMax="1155">
      <contour>
        <pt x="860" y="383" on="1"/>
        <pt x="874" y="383" on="1"/>
        <pt x="915" y="342" on="1"/>
        <pt x="915" y="301" on="1"/>
        <pt x="711" y="283" on="0"/>
        <pt x="553" y="264" on="1"/>
        <pt x="545" y="256" on="0"/>
        <pt x="539" y="256" on="1"/>
        <pt x="510" y="256" on="1"/>
        <pt x="506" y="258" on="1"/>
        <pt x="299" y="229" on="0"/>
        <pt x="176" y="201" on="1"/>
        <pt x="121" y="242" on="1"/>
        <pt x="121" y="311" on="1"/>
        <pt x="446" y="342" on="1"/>
        <pt x="418" y="414" on="0"/>
        <pt x="426" y="524" on="1"/>
        <pt x="436" y="727" on="0"/>
        <pt x="399" y="727" on="1"/>
        <pt x="111" y="698" on="1"/>
        <pt x="82" y="741" on="1"/>
        <pt x="82" y="782" on="1"/>
        <pt x="82" y="809" on="0"/>
        <pt x="248" y="809" on="1"/>
        <pt x="332" y="809" on="1"/>
        <pt x="399" y="823" on="1"/>
        <pt x="399" y="963" on="1"/>
        <pt x="387" y="1044" on="1"/>
        <pt x="406" y="1118" on="0"/>
        <pt x="455" y="1155" on="1"/>
        <pt x="510" y="1128" on="1"/>
        <pt x="498" y="963" on="1"/>
        <pt x="498" y="852" on="1"/>
        <pt x="498" y="823" on="0"/>
        <pt x="539" y="823" on="1"/>
        <pt x="815" y="852" on="1"/>
        <pt x="842" y="809" on="1"/>
        <pt x="842" y="797" on="1"/>
        <pt x="842" y="758" on="0"/>
        <pt x="524" y="727" on="1"/>
        <pt x="524" y="713" on="1"/>
        <pt x="575" y="356" on="1"/>
      </contour>
    </TTGlyph>
    <TTGlyph name="q" xMin="53" yMin="-713" xMax="635" yMax="1083">
      <contour>
        <pt x="399" y="1083" on="1"/>
        <pt x="526" y="1083" on="0"/>
        <pt x="565" y="1001" on="1"/>
        <pt x="551" y="946" on="1"/>
        <pt x="621" y="303" on="0"/>
        <pt x="635" y="-326" on="1"/>
        <pt x="635" y="-670" on="0"/>
        <pt x="551" y="-713" on="1"/>
        <pt x="496" y="-713" on="0"/>
        <pt x="496" y="-643" on="1"/>
        <pt x="483" y="-643" on="1"/>
        <pt x="539" y="-573" on="0"/>
        <pt x="539" y="-145" on="1"/>
        <pt x="539" y="231" on="0"/>
        <pt x="496" y="518" on="1"/>
        <pt x="469" y="518" on="1"/>
        <pt x="362" y="61" on="0"/>
        <pt x="219" y="61" on="1"/>
        <pt x="53" y="61" on="0"/>
        <pt x="53" y="365" on="1"/>
        <pt x="53" y="449" on="1"/>
        <pt x="53" y="807" on="0"/>
        <pt x="330" y="1057" on="1"/>
        <pt x="399" y="1057" on="0"/>
      </contour>
      <contour>
        <pt x="152" y="408" on="1"/>
        <pt x="152" y="297" on="1"/>
        <pt x="152" y="190" on="0"/>
        <pt x="207" y="172" on="1"/>
        <pt x="233" y="172" on="1"/>
        <pt x="340" y="172" on="0"/>
        <pt x="440" y="725" on="1"/>
        <pt x="455" y="766" on="1"/>
        <pt x="440" y="973" on="0"/>
        <pt x="399" y="973" on="1"/>
        <pt x="193" y="973" on="0"/>
      </contour>
    </TTGlyph>
    <TTGlyph name="question" xMin="178" yMin="63" xMax="594" yMax="1778">
      <contour>
        <pt x="440" y="1778" on="1"/>
        <pt x="469" y="1778" on="1"/>
        <pt x="594" y="1778" on="0"/>
        <pt x="594" y="1569" on="1"/>
        <pt x="594" y="1460" on="0"/>
        <pt x="385" y="1016" on="1"/>
        <pt x="344" y="864" on="1"/>
        <pt x="344" y="727" on="1"/>
        <pt x="352" y="535" on="0"/>
        <pt x="385" y="518" on="1"/>
        <pt x="367" y="461" on="0"/>
        <pt x="317" y="434" on="1"/>
        <pt x="303" y="434" on="1"/>
        <pt x="274" y="442" on="0"/>
        <pt x="248" y="506" on="1"/>
        <pt x="262" y="588" on="1"/>
        <pt x="262" y="862" on="0"/>
        <pt x="178" y="961" on="1"/>
        <pt x="178" y="1016" on="0"/>
        <pt x="344" y="1126" on="1"/>
        <pt x="483" y="1389" on="0"/>
        <pt x="483" y="1473" on="1"/>
        <pt x="483" y="1569" on="1"/>
        <pt x="440" y="1612" on="1"/>
        <pt x="401" y="1612" on="0"/>
        <pt x="344" y="1391" on="1"/>
        <pt x="303" y="1362" on="1"/>
        <pt x="248" y="1403" on="1"/>
        <pt x="348" y="1778" on="0"/>
      </contour>
      <contour>
        <pt x="344" y="213" on="1"/>
        <pt x="385" y="213" on="1"/>
        <pt x="440" y="186" on="0"/>
        <pt x="440" y="131" on="1"/>
        <pt x="440" y="76" on="0"/>
        <pt x="358" y="76" on="1"/>
        <pt x="358" y="63" on="1"/>
        <pt x="301" y="82" on="0"/>
        <pt x="274" y="131" on="1"/>
        <pt x="274" y="145" on="1"/>
      </contour>
    </TTGlyph>
    <TTGlyph name="questiondown" xMin="60" yMin="31" xMax="518" yMax="1811">
      <component glyphName="question" x="712" y="1876" scalex="-1.09771728516" scaley="-1.03759765625" flags="0x1004"/>
    </TTGlyph>
    <TTGlyph name="quotedbl" xMin="131" yMin="1192" xMax="506" yMax="1704">
      <contour>
        <pt x="174" y="1704" on="1"/>
        <pt x="248" y="1704" on="0"/>
        <pt x="268" y="1649" on="1"/>
        <pt x="229" y="1290" on="0"/>
        <pt x="201" y="1290" on="1"/>
        <pt x="174" y="1290" on="1"/>
        <pt x="131" y="1290" on="0"/>
        <pt x="131" y="1579" on="1"/>
        <pt x="131" y="1622" on="1"/>
        <pt x="139" y="1704" on="0"/>
      </contour>
      <contour>
        <pt x="451" y="1622" on="1"/>
        <pt x="506" y="1602" on="0"/>
        <pt x="506" y="1579" on="1"/>
        <pt x="434" y="1432" on="0"/>
        <pt x="422" y="1206" on="1"/>
        <pt x="408" y="1192" on="1"/>
        <pt x="395" y="1192" on="1"/>
        <pt x="340" y="1192" on="0"/>
        <pt x="340" y="1358" on="1"/>
        <pt x="367" y="1622" on="0"/>
      </contour>
    </TTGlyph>
    <TTGlyph name="quotedblbase" xMin="131" yMin="-137" xMax="504" yMax="375">
      <contour>
        <pt x="172" y="375" on="1"/>
        <pt x="248" y="375" on="0"/>
        <pt x="268" y="319" on="1"/>
        <pt x="227" y="-41" on="0"/>
        <pt x="199" y="-41" on="1"/>
        <pt x="172" y="-41" on="1"/>
        <pt x="131" y="-41" on="0"/>
        <pt x="131" y="250" on="1"/>
        <pt x="131" y="291" on="1"/>
        <pt x="137" y="375" on="0"/>
      </contour>
      <contour>
        <pt x="449" y="291" on="1"/>
        <pt x="504" y="270" on="0"/>
        <pt x="504" y="250" on="1"/>
        <pt x="434" y="102" on="0"/>
        <pt x="420" y="-123" on="1"/>
        <pt x="408" y="-137" on="1"/>
        <pt x="393" y="-137" on="1"/>
        <pt x="338" y="-137" on="0"/>
        <pt x="338" y="29" on="1"/>
        <pt x="365" y="291" on="0"/>
      </contour>
    </TTGlyph>
    <TTGlyph name="quotedblleft" xMin="131" yMin="1192" xMax="506" yMax="1704">
      <contour>
        <pt x="174" y="1704" on="1"/>
        <pt x="248" y="1704" on="0"/>
        <pt x="268" y="1649" on="1"/>
        <pt x="229" y="1290" on="0"/>
        <pt x="201" y="1290" on="1"/>
        <pt x="174" y="1290" on="1"/>
        <pt x="131" y="1290" on="0"/>
        <pt x="131" y="1579" on="1"/>
        <pt x="131" y="1622" on="1"/>
        <pt x="139" y="1704" on="0"/>
      </contour>
      <contour>
        <pt x="451" y="1622" on="1"/>
        <pt x="506" y="1602" on="0"/>
        <pt x="506" y="1579" on="1"/>
        <pt x="434" y="1432" on="0"/>
        <pt x="422" y="1206" on="1"/>
        <pt x="408" y="1192" on="1"/>
        <pt x="395" y="1192" on="1"/>
        <pt x="340" y="1192" on="0"/>
        <pt x="340" y="1358" on="1"/>
        <pt x="367" y="1622" on="0"/>
      </contour>
    </TTGlyph>
    <TTGlyph name="quotedblright" xMin="131" yMin="1192" xMax="506" yMax="1704">
      <contour>
        <pt x="174" y="1704" on="1"/>
        <pt x="248" y="1704" on="0"/>
        <pt x="268" y="1649" on="1"/>
        <pt x="229" y="1290" on="0"/>
        <pt x="201" y="1290" on="1"/>
        <pt x="174" y="1290" on="1"/>
        <pt x="131" y="1290" on="0"/>
        <pt x="131" y="1579" on="1"/>
        <pt x="131" y="1622" on="1"/>
        <pt x="139" y="1704" on="0"/>
      </contour>
      <contour>
        <pt x="451" y="1622" on="1"/>
        <pt x="506" y="1602" on="0"/>
        <pt x="506" y="1579" on="1"/>
        <pt x="434" y="1432" on="0"/>
        <pt x="422" y="1206" on="1"/>
        <pt x="408" y="1192" on="1"/>
        <pt x="395" y="1192" on="1"/>
        <pt x="340" y="1192" on="0"/>
        <pt x="340" y="1358" on="1"/>
        <pt x="367" y="1622" on="0"/>
      </contour>
    </TTGlyph>
    <TTGlyph name="quoteleft" xMin="74" yMin="1176" xMax="246" yMax="1632">
      <contour>
        <pt x="246" y="1550" on="1"/>
        <pt x="145" y="1206" on="0"/>
        <pt x="117" y="1176" on="1"/>
        <pt x="106" y="1176" on="1"/>
        <pt x="74" y="1219" on="1"/>
        <pt x="74" y="1276" on="0"/>
        <pt x="106" y="1329" on="1"/>
        <pt x="156" y="1632" on="0"/>
        <pt x="193" y="1632" on="1"/>
        <pt x="246" y="1606" on="0"/>
      </contour>
    </TTGlyph>
    <TTGlyph name="quoteright" xMin="74" yMin="1176" xMax="246" yMax="1632">
      <contour>
        <pt x="246" y="1550" on="1"/>
        <pt x="145" y="1206" on="0"/>
        <pt x="117" y="1176" on="1"/>
        <pt x="106" y="1176" on="1"/>
        <pt x="74" y="1219" on="1"/>
        <pt x="74" y="1276" on="0"/>
        <pt x="106" y="1329" on="1"/>
        <pt x="156" y="1632" on="0"/>
        <pt x="193" y="1632" on="1"/>
        <pt x="246" y="1606" on="0"/>
      </contour>
    </TTGlyph>
    <TTGlyph name="quotesinglbase" xMin="109" yMin="-152" xMax="281" yMax="305">
      <contour>
        <pt x="281" y="223" on="1"/>
        <pt x="180" y="-121" on="0"/>
        <pt x="152" y="-152" on="1"/>
        <pt x="141" y="-152" on="1"/>
        <pt x="109" y="-109" on="1"/>
        <pt x="109" y="-51" on="0"/>
        <pt x="141" y="2" on="1"/>
        <pt x="190" y="305" on="0"/>
        <pt x="227" y="305" on="1"/>
        <pt x="281" y="279" on="0"/>
      </contour>
    </TTGlyph>
    <TTGlyph name="quotesingle" xMin="74" yMin="1176" xMax="246" yMax="1632">
      <contour>
        <pt x="246" y="1550" on="1"/>
        <pt x="145" y="1206" on="0"/>
        <pt x="117" y="1176" on="1"/>
        <pt x="106" y="1176" on="1"/>
        <pt x="74" y="1219" on="1"/>
        <pt x="74" y="1276" on="0"/>
        <pt x="106" y="1329" on="1"/>
        <pt x="156" y="1632" on="0"/>
        <pt x="193" y="1632" on="1"/>
        <pt x="246" y="1606" on="0"/>
      </contour>
    </TTGlyph>
    <TTGlyph name="r" xMin="31" yMin="4" xMax="543" yMax="1096">
      <contour>
        <pt x="446" y="1096" on="1"/>
        <pt x="487" y="1096" on="1"/>
        <pt x="543" y="1040" on="1"/>
        <pt x="543" y="1012" on="1"/>
        <pt x="514" y="985" on="1"/>
        <pt x="446" y="999" on="1"/>
        <pt x="225" y="707" on="0"/>
        <pt x="225" y="446" on="1"/>
        <pt x="225" y="225" on="1"/>
        <pt x="238" y="72" on="1"/>
        <pt x="238" y="16" on="0"/>
        <pt x="170" y="16" on="1"/>
        <pt x="170" y="4" on="1"/>
        <pt x="115" y="25" on="0"/>
        <pt x="115" y="45" on="1"/>
        <pt x="115" y="197" on="1"/>
        <pt x="63" y="860" on="0"/>
        <pt x="31" y="860" on="1"/>
        <pt x="59" y="944" on="0"/>
        <pt x="86" y="944" on="1"/>
        <pt x="100" y="944" on="1"/>
        <pt x="156" y="922" on="0"/>
        <pt x="156" y="846" on="1"/>
        <pt x="156" y="694" on="1"/>
        <pt x="170" y="694" on="1"/>
        <pt x="307" y="993" on="0"/>
      </contour>
    </TTGlyph>
    <TTGlyph name="racute" xMin="31" yMin="4" xMax="543" yMax="1696">
      <component glyphName="r" x="0" y="0" flags="0x1204"/>
      <component glyphName="acute" x="0" y="0" flags="0x1004"/>
    </TTGlyph>
    <TTGlyph name="rcaron" xMin="31" yMin="4" xMax="543" yMax="1698">
      <component glyphName="r" x="0" y="0" flags="0x1204"/>
      <component glyphName="caron" x="-441" y="0" flags="0x1004"/>
    </TTGlyph>
    <TTGlyph name="rcommaaccent" xMin="31" yMin="-498" xMax="543" yMax="1096">
      <component glyphName="r" x="0" y="0" flags="0x1204"/>
      <component glyphName="commaaccent" x="59" y="0" flags="0x1004"/>
    </TTGlyph>
    <TTGlyph name="registered" xMin="43" yMin="0" xMax="762" yMax="1395">
      <contour>
        <pt x="762" y="705" on="1"/>
        <pt x="762" y="186" on="0"/>
        <pt x="485" y="12" on="1"/>
        <pt x="346" y="0" on="1"/>
        <pt x="119" y="0" on="0"/>
        <pt x="43" y="455" on="1"/>
        <pt x="43" y="621" on="1"/>
        <pt x="139" y="1395" on="0"/>
        <pt x="250" y="1395" on="1"/>
        <pt x="754" y="1706" on="0"/>
      </contour>
      <contour>
        <pt x="489" y="1171" on="1"/>
        <pt x="600" y="1145" on="0"/>
        <pt x="600" y="1038" on="1"/>
        <pt x="588" y="825" on="0"/>
        <pt x="401" y="709" on="1"/>
        <pt x="524" y="281" on="0"/>
        <pt x="594" y="233" on="1"/>
        <pt x="678" y="395" on="0"/>
        <pt x="678" y="731" on="1"/>
        <pt x="641" y="1100" on="1"/>
        <pt x="606" y="1382" on="0"/>
        <pt x="389" y="1382" on="1"/>
        <pt x="207" y="1382" on="0"/>
        <pt x="113" y="594" on="1"/>
        <pt x="113" y="524" on="1"/>
        <pt x="154" y="82" on="0"/>
        <pt x="360" y="82" on="1"/>
        <pt x="485" y="82" on="0"/>
        <pt x="559" y="180" on="1"/>
        <pt x="512" y="231" on="0"/>
        <pt x="432" y="449" on="1"/>
        <pt x="348" y="639" on="1"/>
        <pt x="326" y="639" on="1"/>
        <pt x="326" y="633" on="1"/>
        <pt x="334" y="502" on="1"/>
        <pt x="334" y="279" on="0"/>
        <pt x="293" y="279" on="1"/>
        <pt x="272" y="279" on="1"/>
        <pt x="254" y="279" on="0"/>
        <pt x="248" y="317" on="1"/>
        <pt x="279" y="1108" on="1"/>
        <pt x="303" y="1130" on="1"/>
        <pt x="309" y="1130" on="1"/>
      </contour>
      <contour>
        <pt x="340" y="1030" on="1"/>
        <pt x="334" y="823" on="1"/>
        <pt x="334" y="770" on="1"/>
        <pt x="348" y="754" on="1"/>
        <pt x="541" y="909" on="0"/>
        <pt x="541" y="1030" on="1"/>
        <pt x="541" y="1069" on="1"/>
        <pt x="508" y="1098" on="1"/>
        <pt x="502" y="1098" on="1"/>
        <pt x="416" y="1098" on="0"/>
      </contour>
    </TTGlyph>
    <TTGlyph name="ring" xMin="489" yMin="1337" xMax="946" yMax="1741">
      <contour>
        <pt x="772" y="1741" on="1"/>
        <pt x="877" y="1741" on="0"/>
        <pt x="946" y="1581" on="1"/>
        <pt x="946" y="1372" on="0"/>
        <pt x="727" y="1337" on="1"/>
        <pt x="717" y="1337" on="1"/>
        <pt x="524" y="1337" on="0"/>
        <pt x="489" y="1501" on="1"/>
        <pt x="489" y="1520" on="1"/>
        <pt x="489" y="1704" on="0"/>
        <pt x="707" y="1735" on="1"/>
        <pt x="772" y="1735" on="0"/>
      </contour>
      <contour>
        <pt x="555" y="1565" on="1"/>
        <pt x="555" y="1536" on="1"/>
        <pt x="555" y="1405" on="0"/>
        <pt x="674" y="1366" on="1"/>
        <pt x="694" y="1366" on="1"/>
        <pt x="852" y="1366" on="0"/>
        <pt x="879" y="1556" on="1"/>
        <pt x="879" y="1675" on="0"/>
        <pt x="762" y="1696" on="1"/>
        <pt x="717" y="1704" on="1"/>
        <pt x="582" y="1692" on="0"/>
      </contour>
    </TTGlyph>
    <TTGlyph name="s" xMin="-61" yMin="-39" xMax="492" yMax="1151">
      <contour>
        <pt x="477" y="1151" on="1"/>
        <pt x="492" y="1135" on="1"/>
        <pt x="492" y="1108" on="1"/>
        <pt x="229" y="922" on="0"/>
        <pt x="229" y="721" on="1"/>
        <pt x="229" y="692" on="1"/>
        <pt x="229" y="545" on="0"/>
        <pt x="465" y="279" on="1"/>
        <pt x="477" y="223" on="1"/>
        <pt x="377" y="-39" on="0"/>
        <pt x="90" y="-39" on="1"/>
        <pt x="-61" y="-39" on="0"/>
        <pt x="-61" y="72" on="1"/>
        <pt x="104" y="57" on="1"/>
        <pt x="160" y="57" on="1"/>
        <pt x="354" y="104" on="0"/>
        <pt x="354" y="223" on="1"/>
        <pt x="354" y="238" on="1"/>
        <pt x="354" y="272" on="0"/>
        <pt x="160" y="555" on="1"/>
        <pt x="119" y="709" on="1"/>
        <pt x="119" y="963" on="0"/>
        <pt x="451" y="1151" on="1"/>
      </contour>
    </TTGlyph>
    <TTGlyph name="sacute" xMin="-61" yMin="-39" xMax="492" yMax="1696">
      <component glyphName="s" x="0" y="0" flags="0x1204"/>
      <component glyphName="acute" x="-24" y="0" flags="0x1004"/>
    </TTGlyph>
    <TTGlyph name="scaron" xMin="-61" yMin="-39" xMax="531" yMax="1525">
      <component glyphName="s" x="0" y="0" flags="0x1204"/>
      <component glyphName="caron" x="-419" y="-173" flags="0x1004"/>
    </TTGlyph>
    <TTGlyph name="scedilla" xMin="-61" yMin="-719" xMax="538" yMax="1151">
      <component glyphName="s" x="0" y="0" flags="0x1204"/>
      <component glyphName="cedilla" x="-226" y="0" flags="0x1004"/>
    </TTGlyph>
    <TTGlyph name="scircumflex" xMin="-61" yMin="-39" xMax="507" yMax="1741">
      <component glyphName="s" x="0" y="0" flags="0x1204"/>
      <component glyphName="circumflex" x="-167" y="0" flags="0x1004"/>
    </TTGlyph>
    <TTGlyph name="scommaaccent" xMin="-61" yMin="-498" xMax="492" yMax="1151">
      <component glyphName="s" x="0" y="0" flags="0x1204"/>
      <component glyphName="commaaccent" x="35" y="0" flags="0x1004"/>
    </TTGlyph>
    <TTGlyph name="section" xMin="67" yMin="82" xMax="645" yMax="1323">
      <contour>
        <pt x="616" y="1323" on="1"/>
        <pt x="602" y="1266" on="1"/>
        <pt x="602" y="1239" on="1"/>
        <pt x="328" y="1413" on="0"/>
        <pt x="295" y="1247" on="1"/>
        <pt x="295" y="1221" on="1"/>
        <pt x="295" y="1073" on="0"/>
        <pt x="477" y="911" on="1"/>
        <pt x="971" y="532" on="0"/>
        <pt x="322" y="475" on="1"/>
        <pt x="281" y="475" on="0"/>
        <pt x="250" y="485" on="1"/>
        <pt x="723" y="334" on="0"/>
        <pt x="567" y="35" on="0"/>
        <pt x="266" y="82" on="1"/>
        <pt x="115" y="82" on="0"/>
        <pt x="115" y="193" on="1"/>
        <pt x="281" y="178" on="1"/>
        <pt x="336" y="178" on="1"/>
        <pt x="715" y="150" on="0"/>
        <pt x="385" y="348" on="1"/>
        <pt x="170" y="397" on="0"/>
        <pt x="-35" y="823" on="0"/>
        <pt x="276" y="1008" on="1"/>
        <pt x="252" y="1042" on="0"/>
        <pt x="188" y="1204" on="1"/>
        <pt x="156" y="1563" on="0"/>
      </contour>
      <contour>
        <pt x="338" y="571" on="1"/>
        <pt x="514" y="590" on="1"/>
        <pt x="645" y="629" on="0"/>
        <pt x="578" y="727" on="1"/>
        <pt x="309" y="958" on="1"/>
        <pt x="76" y="782" on="0"/>
        <pt x="242" y="580" on="1"/>
      </contour>
    </TTGlyph>
    <TTGlyph name="semicolon" xMin="49" yMin="-649" xMax="354" yMax="817">
      <contour>
        <pt x="215" y="817" on="1"/>
        <pt x="299" y="786" on="0"/>
        <pt x="299" y="707" on="1"/>
        <pt x="256" y="664" on="1"/>
        <pt x="145" y="707" on="0"/>
        <pt x="145" y="745" on="1"/>
        <pt x="145" y="782" on="0"/>
      </contour>
      <contour>
        <pt x="285" y="332" on="1"/>
        <pt x="354" y="291" on="1"/>
        <pt x="340" y="236" on="1"/>
        <pt x="354" y="0" on="1"/>
        <pt x="303" y="-637" on="0"/>
        <pt x="104" y="-637" on="1"/>
        <pt x="104" y="-649" on="1"/>
        <pt x="49" y="-629" on="0"/>
        <pt x="49" y="-608" on="1"/>
        <pt x="270" y="-457" on="0"/>
        <pt x="270" y="98" on="1"/>
        <pt x="244" y="276" on="1"/>
        <pt x="285" y="319" on="1"/>
      </contour>
    </TTGlyph>
    <TTGlyph name="seven" xMin="23" yMin="-16" xMax="657" yMax="1323">
      <contour>
        <pt x="575" y="1323" on="1"/>
        <pt x="616" y="1323" on="1"/>
        <pt x="657" y="1282" on="1"/>
        <pt x="657" y="1268" on="1"/>
        <pt x="602" y="1159" on="0"/>
        <pt x="575" y="494" on="1"/>
        <pt x="590" y="494" on="1"/>
        <pt x="575" y="481" on="1"/>
        <pt x="575" y="453" on="1"/>
        <pt x="590" y="412" on="1"/>
        <pt x="575" y="342" on="1"/>
        <pt x="575" y="150" on="1"/>
        <pt x="631" y="94" on="1"/>
        <pt x="604" y="-16" on="0"/>
        <pt x="520" y="-16" on="1"/>
        <pt x="483" y="-16" on="0"/>
        <pt x="451" y="51" on="1"/>
        <pt x="487" y="309" on="0"/>
        <pt x="520" y="1157" on="1"/>
        <pt x="506" y="1157" on="1"/>
        <pt x="258" y="1116" on="1"/>
        <pt x="215" y="1130" on="1"/>
        <pt x="104" y="1116" on="1"/>
        <pt x="23" y="1145" on="0"/>
        <pt x="23" y="1171" on="1"/>
        <pt x="23" y="1200" on="1"/>
        <pt x="78" y="1255" on="1"/>
        <pt x="133" y="1227" on="0"/>
        <pt x="229" y="1227" on="1"/>
        <pt x="258" y="1227" on="1"/>
        <pt x="446" y="1227" on="0"/>
      </contour>
    </TTGlyph>
    <TTGlyph name="six" xMin="68" yMin="-23" xMax="580" yMax="1554">
      <contour>
        <pt x="164" y="1554" on="1"/>
        <pt x="193" y="1554" on="1"/>
        <pt x="223" y="1554" on="0"/>
        <pt x="233" y="1483" on="1"/>
        <pt x="152" y="1366" on="0"/>
        <pt x="152" y="1223" on="1"/>
        <pt x="152" y="973" on="1"/>
        <pt x="152" y="745" on="0"/>
        <pt x="193" y="432" on="1"/>
        <pt x="219" y="432" on="1"/>
        <pt x="260" y="874" on="0"/>
        <pt x="510" y="874" on="1"/>
        <pt x="580" y="840" on="0"/>
        <pt x="580" y="764" on="1"/>
        <pt x="580" y="571" on="1"/>
        <pt x="580" y="125" on="0"/>
        <pt x="373" y="6" on="1"/>
        <pt x="303" y="-23" on="1"/>
        <pt x="68" y="-23" on="0"/>
        <pt x="68" y="985" on="1"/>
        <pt x="68" y="1083" on="1"/>
        <pt x="68" y="1554" on="0"/>
      </contour>
      <contour>
        <pt x="303" y="393" on="1"/>
        <pt x="317" y="322" on="1"/>
        <pt x="303" y="227" on="1"/>
        <pt x="313" y="156" on="0"/>
        <pt x="344" y="156" on="1"/>
        <pt x="385" y="156" on="1"/>
        <pt x="469" y="156" on="0"/>
        <pt x="496" y="559" on="1"/>
        <pt x="496" y="670" on="1"/>
        <pt x="496" y="741" on="0"/>
        <pt x="455" y="752" on="1"/>
        <pt x="440" y="752" on="1"/>
        <pt x="346" y="752" on="0"/>
      </contour>
    </TTGlyph>
    <TTGlyph name="slash" xMin="121" yMin="6" xMax="592" yMax="1485">
      <contour>
        <pt x="563" y="1485" on="1"/>
        <pt x="592" y="1485" on="1"/>
        <pt x="592" y="1458" on="1"/>
        <pt x="453" y="692" on="0"/>
        <pt x="260" y="158" on="1"/>
        <pt x="231" y="158" on="0"/>
        <pt x="231" y="33" on="1"/>
        <pt x="193" y="6" on="1"/>
        <pt x="121" y="20" on="1"/>
        <pt x="121" y="76" on="1"/>
        <pt x="322" y="477" on="0"/>
        <pt x="496" y="1348" on="1"/>
        <pt x="496" y="1444" on="0"/>
      </contour>
    </TTGlyph>
    <TTGlyph name="sterling" xMin="-35" yMin="-10" xMax="936" yMax="1468">
      <contour>
        <pt x="543" y="676" on="1"/>
        <pt x="557" y="676" on="1"/>
        <pt x="598" y="635" on="1"/>
        <pt x="598" y="594" on="1"/>
        <pt x="362" y="578" on="0"/>
        <pt x="276" y="563" on="1"/>
        <pt x="248" y="244" on="0"/>
        <pt x="190" y="70" on="1"/>
        <pt x="504" y="229" on="1"/>
        <pt x="936" y="100" on="1"/>
        <pt x="893" y="-10" on="1"/>
        <pt x="508" y="158" on="0"/>
        <pt x="504" y="119" on="1"/>
        <pt x="35" y="-141" on="0"/>
        <pt x="70" y="35" on="1"/>
        <pt x="145" y="229" on="0"/>
        <pt x="168" y="549" on="1"/>
        <pt x="63" y="532" on="0"/>
        <pt x="20" y="522" on="1"/>
        <pt x="-35" y="563" on="1"/>
        <pt x="-35" y="633" on="1"/>
        <pt x="174" y="651" on="1"/>
        <pt x="150" y="1397" on="1"/>
        <pt x="20" y="1890" on="0"/>
        <pt x="915" y="1253" on="1"/>
        <pt x="922" y="1133" on="1"/>
        <pt x="406" y="1407" on="1"/>
        <pt x="274" y="1468" on="1"/>
        <pt x="276" y="961" on="0"/>
        <pt x="285" y="659" on="1"/>
      </contour>
    </TTGlyph>
    <TTGlyph name="t" xMin="-51" yMin="-4" xMax="408" yMax="1651">
      <contour>
        <pt x="168" y="1649" on="1"/>
        <pt x="199" y="1651" on="1"/>
        <pt x="205" y="1552" on="1"/>
        <pt x="205" y="1538" on="1"/>
        <pt x="205" y="1221" on="0"/>
        <pt x="246" y="1221" on="1"/>
        <pt x="381" y="1266" on="1"/>
        <pt x="395" y="1237" on="0"/>
        <pt x="408" y="1206" on="1"/>
        <pt x="383" y="1184" on="0"/>
        <pt x="397" y="1178" on="1"/>
        <pt x="231" y="1096" on="1"/>
        <pt x="260" y="377" on="1"/>
        <pt x="260" y="322" on="1"/>
        <pt x="256" y="119" on="0"/>
        <pt x="231" y="-4" on="1"/>
        <pt x="166" y="0" on="1"/>
        <pt x="162" y="215" on="1"/>
        <pt x="162" y="557" on="1"/>
        <pt x="162" y="709" on="1"/>
        <pt x="162" y="1067" on="0"/>
        <pt x="121" y="1067" on="1"/>
        <pt x="-6" y="1057" on="1"/>
        <pt x="-51" y="1075" on="1"/>
        <pt x="-47" y="1108" on="1"/>
        <pt x="-23" y="1114" on="1"/>
        <pt x="4" y="1114" on="1"/>
        <pt x="135" y="1133" on="0"/>
        <pt x="135" y="1206" on="1"/>
        <pt x="106" y="1620" on="1"/>
        <pt x="121" y="1632" on="1"/>
      </contour>
    </TTGlyph>
    <TTGlyph name="tcaron" xMin="-51" yMin="-4" xMax="639" yMax="1651">
      <component glyphName="t" x="0" y="0" flags="0x1004"/>
      <component glyphName="quoteright" x="393" y="0" flags="0x1004"/>
    </TTGlyph>
    <TTGlyph name="tcommaaccent" xMin="-51" yMin="-498" xMax="408" yMax="1651">
      <component glyphName="t" x="0" y="0" flags="0x1204"/>
      <component glyphName="commaaccent" x="-32" y="0" flags="0x1004"/>
    </TTGlyph>
</ttFont>
